ISO-10303-21;
HEADER;
FILE_DESCRIPTION (( 'STEP AP203' ),
    '1' );
FILE_NAME ('3508电机座.STEP',
    '2019-11-17T11:43:05',
    ( '' ),
    ( '' ),
    'SwSTEP 2.0',
    'SolidWorks 2016',
    '' );
FILE_SCHEMA (( 'CONFIG_CONTROL_DESIGN' ));
ENDSEC;

DATA;
#1 = ORIENTED_EDGE ( 'NONE', *, *, #910, .F. ) ;
#2 = CARTESIAN_POINT ( 'NONE',  ( 22.00000000000000700, 2.000000000000000000, 23.00000000000000700 ) ) ;
#3 = FACE_BOUND ( 'NONE', #306, .T. ) ;
#4 = ORIENTED_EDGE ( 'NONE', *, *, #415, .T. ) ;
#5 = VECTOR ( 'NONE', #1023, 1000.000000000000000 ) ;
#6 = VERTEX_POINT ( 'NONE', #390 ) ;
#7 = APPROVAL_PERSON_ORGANIZATION ( #523, #592, #224 ) ;
#8 = DIRECTION ( 'NONE',  ( 0.0000000000000000000, 0.0000000000000000000, -1.000000000000000000 ) ) ;
#9 = VERTEX_POINT ( 'NONE', #385 ) ;
#10 = EDGE_CURVE ( 'NONE', #1338, #88, #25, .T. ) ;
#11 = DATE_TIME_ROLE ( 'creation_date' ) ;
#12 = VECTOR ( 'NONE', #1078, 1000.000000000000000 ) ;
#13 = CARTESIAN_POINT ( 'NONE',  ( 24.00000000000000700, 27.99999999999970500, 17.49999999999975100 ) ) ;
#14 = CC_DESIGN_PERSON_AND_ORGANIZATION_ASSIGNMENT ( #1290, #970, ( #1182 ) ) ;
#15 = CARTESIAN_POINT ( 'NONE',  ( 24.00000000000000700, 28.00000000000044400, -17.50000000000025200 ) ) ;
#16 = EDGE_CURVE ( 'NONE', #527, #326, #587, .T. ) ;
#17 = DIRECTION ( 'NONE',  ( 0.0000000000000000000, 0.0000000000000000000, -1.000000000000000000 ) ) ;
#18 = VERTEX_POINT ( 'NONE', #606 ) ;
#19 = PRODUCT ( '3508电机座', '3508电机座', '', ( #760 ) ) ;
#20 = CARTESIAN_POINT ( 'NONE',  ( 24.00000000000000700, 2.000000000000000000, -25.00000000000000400 ) ) ;
#21 = ORIENTED_EDGE ( 'NONE', *, *, #191, .T. ) ;
#22 = VECTOR ( 'NONE', #1325, 1000.000000000000000 ) ;
#23 = AXIS2_PLACEMENT_3D ( 'NONE', #100, #511, #1385 ) ;
#24 = DIRECTION ( 'NONE',  ( 1.000000000000000000, 0.0000000000000000000, 0.0000000000000000000 ) ) ;
#25 = LINE ( 'NONE', #814, #835 ) ;
#26 = DIRECTION ( 'NONE',  ( 1.000000000000000000, -0.0000000000000000000, -0.0000000000000000000 ) ) ;
#27 = PERSON_AND_ORGANIZATION_ROLE ( 'design_owner' ) ;
#28 = ORIENTED_EDGE ( 'NONE', *, *, #1140, .T. ) ;
#29 = DIRECTION ( 'NONE',  ( 0.0000000000000000000, 0.0000000000000000000, 1.000000000000000000 ) ) ;
#30 = VECTOR ( 'NONE', #158, 1000.000000000000000 ) ;
#31 = CARTESIAN_POINT ( 'NONE',  ( -14.99999999999999500, 2.000000000000000000, -14.99999999999999800 ) ) ;
#32 = AXIS2_PLACEMENT_3D ( 'NONE', #1092, #26, #772 ) ;
#33 = DIRECTION ( 'NONE',  ( 0.0000000000000000000, 0.0000000000000000000, -1.000000000000000000 ) ) ;
#34 = ORIENTED_EDGE ( 'NONE', *, *, #1313, .T. ) ;
#35 = DIRECTION ( 'NONE',  ( 0.0000000000000000000, 0.0000000000000000000, -1.000000000000000000 ) ) ;
#36 = EDGE_CURVE ( 'NONE', #737, #414, #1086, .T. ) ;
#37 = ORIENTED_EDGE ( 'NONE', *, *, #1159, .F. ) ;
#38 = CARTESIAN_POINT ( 'NONE',  ( -23.99999999999999300, 10.50000000000000900, 1.999999999999412000 ) ) ;
#39 = ORIENTED_EDGE ( 'NONE', *, *, #1323, .T. ) ;
#40 = EDGE_LOOP ( 'NONE', ( #198, #1027, #242, #709 ) ) ;
#41 = ADVANCED_FACE ( 'NONE', ( #585 ), #599, .T. ) ;
#42 = DIRECTION ( 'NONE',  ( 0.0000000000000000000, 0.0000000000000000000, -1.000000000000000000 ) ) ;
#43 = VERTEX_POINT ( 'NONE', #1010 ) ;
#44 = DIRECTION ( 'NONE',  ( 0.0000000000000000000, 0.0000000000000000000, -1.000000000000000000 ) ) ;
#45 = EDGE_CURVE ( 'NONE', #9, #102, #697, .T. ) ;
#46 = FACE_OUTER_BOUND ( 'NONE', #181, .T. ) ;
#47 = AXIS2_PLACEMENT_3D ( 'NONE', #778, #1094, #874 ) ;
#48 = DIRECTION ( 'NONE',  ( 1.000000000000000000, -0.0000000000000000000, -0.0000000000000000000 ) ) ;
#49 = DIRECTION ( 'NONE',  ( 0.0000000000000000000, 0.0000000000000000000, 1.000000000000000000 ) ) ;
#50 = DIRECTION ( 'NONE',  ( 1.000000000000000000, -0.0000000000000000000, -0.0000000000000000000 ) ) ;
#51 = FACE_OUTER_BOUND ( 'NONE', #862, .T. ) ;
#52 = EDGE_LOOP ( 'NONE', ( #226, #159 ) ) ;
#53 = ORIENTED_EDGE ( 'NONE', *, *, #213, .F. ) ;
#54 = CARTESIAN_POINT ( 'NONE',  ( 15.00000000000000700, 2.000000000000000000, 15.00000000000000500 ) ) ;
#55 = AXIS2_PLACEMENT_3D ( 'NONE', #405, #718, #83 ) ;
#56 = ORIENTED_EDGE ( 'NONE', *, *, #616, .F. ) ;
#57 = CARTESIAN_POINT ( 'NONE',  ( -14.99999999999999500, 2.000000000000000000, 15.00000000000000500 ) ) ;
#58 = VERTEX_POINT ( 'NONE', #1015 ) ;
#59 = CARTESIAN_POINT ( 'NONE',  ( -3.324886662288880400E-015, 0.0000000000000000000, -23.00000000000000000 ) ) ;
#60 = DATE_AND_TIME ( #608, #855 ) ;
#61 = CIRCLE ( 'NONE', #1278, 15.00000000000000000 ) ;
#62 = ORIENTED_EDGE ( 'NONE', *, *, #84, .T. ) ;
#63 = DESIGN_CONTEXT ( 'detailed design', #437, 'design' ) ;
#64 = DIRECTION ( 'NONE',  ( 1.000000000000000000, -0.0000000000000000000, 0.0000000000000000000 ) ) ;
#65 = VECTOR ( 'NONE', #440, 1000.000000000000000 ) ;
#66 = EDGE_CURVE ( 'NONE', #478, #1100, #494, .T. ) ;
#67 = DIRECTION ( 'NONE',  ( -1.000000000000000000, 0.0000000000000000000, 0.0000000000000000000 ) ) ;
#68 = ADVANCED_FACE ( 'NONE', ( #1349 ), #166, .F. ) ;
#69 = CARTESIAN_POINT ( 'NONE',  ( -24.00000000000000000, 2.000000000000000000, -22.99999999999999600 ) ) ;
#70 = AXIS2_PLACEMENT_3D ( 'NONE', #54, #789, #578 ) ;
#71 = ORIENTED_EDGE ( 'NONE', *, *, #562, .F. ) ;
#72 = VECTOR ( 'NONE', #356, 1000.000000000000000 ) ;
#73 = ORIENTED_EDGE ( 'NONE', *, *, #1239, .F. ) ;
#74 = EDGE_CURVE ( 'NONE', #1286, #144, #98, .T. ) ;
#75 = ORIENTED_EDGE ( 'NONE', *, *, #1061, .F. ) ;
#76 = CIRCLE ( 'NONE', #330, 2.000000000000001800 ) ;
#77 = ADVANCED_FACE ( 'NONE', ( #461 ), #904, .T. ) ;
#78 = AXIS2_PLACEMENT_3D ( 'NONE', #101, #757, #217 ) ;
#79 = ORIENTED_EDGE ( 'NONE', *, *, #307, .T. ) ;
#80 = DIRECTION ( 'NONE',  ( -0.7071067811865475700, 0.7071067811865474600, 1.022195611122249400E-016 ) ) ;
#81 = ORIENTED_EDGE ( 'NONE', *, *, #45, .T. ) ;
#82 = CARTESIAN_POINT ( 'NONE',  ( 26.00000000000001100, 28.00000000000044400, -17.50000000000025200 ) ) ;
#83 = DIRECTION ( 'NONE',  ( 0.0000000000000000000, 0.0000000000000000000, 1.000000000000000000 ) ) ;
#84 = EDGE_CURVE ( 'NONE', #1307, #1200, #1196, .T. ) ;
#85 = CARTESIAN_POINT ( 'NONE',  ( -21.99999999999999300, 2.000000000000000000, 25.00000000000000400 ) ) ;
#86 = CARTESIAN_POINT ( 'NONE',  ( 24.00000000000000700, 2.000000000000000000, -25.00000000000000000 ) ) ;
#87 = CC_DESIGN_PERSON_AND_ORGANIZATION_ASSIGNMENT ( #1034, #348, ( #640 ) ) ;
#88 = VERTEX_POINT ( 'NONE', #378 ) ;
#89 = ORIENTED_EDGE ( 'NONE', *, *, #90, .F. ) ;
#90 = EDGE_CURVE ( 'NONE', #793, #1243, #927, .T. ) ;
#91 = DIRECTION ( 'NONE',  ( 0.0000000000000000000, 0.0000000000000000000, -1.000000000000000000 ) ) ;
#92 = DIRECTION ( 'NONE',  ( -0.0000000000000000000, 0.0000000000000000000, 1.000000000000000000 ) ) ;
#93 = ORIENTED_EDGE ( 'NONE', *, *, #379, .F. ) ;
#94 = AXIS2_PLACEMENT_3D ( 'NONE', #780, #439, #138 ) ;
#95 = DIRECTION ( 'NONE',  ( 1.000000000000000000, -0.0000000000000000000, -0.0000000000000000000 ) ) ;
#96 = DIRECTION ( 'NONE',  ( 0.7071067811865475700, -0.7071067811865475700, 0.0000000000000000000 ) ) ;
#97 = CARTESIAN_POINT ( 'NONE',  ( 24.00000000000000700, 28.00000000000044400, -19.50000000000025200 ) ) ;
#98 = LINE ( 'NONE', #69, #664 ) ;
#99 = AXIS2_PLACEMENT_3D ( 'NONE', #416, #745, #563 ) ;
#100 = CARTESIAN_POINT ( 'NONE',  ( 24.00000000000000700, 28.00000000000001100, -2.694222958124176000E-015 ) ) ;
#101 = CARTESIAN_POINT ( 'NONE',  ( 22.00000000000000700, 4.000000000000000000, 0.0000000000000000000 ) ) ;
#102 = VERTEX_POINT ( 'NONE', #504 ) ;
#103 = CIRCLE ( 'NONE', #1339, 2.500000000000000400 ) ;
#104 = CARTESIAN_POINT ( 'NONE',  ( 1.026378056619610800E-014, 2.000000000000000000, -25.00000000000000000 ) ) ;
#105 = LINE ( 'NONE', #104, #1268 ) ;
#106 = ORIENTED_EDGE ( 'NONE', *, *, #451, .F. ) ;
#107 = CARTESIAN_POINT ( 'NONE',  ( 0.0000000000000000000, 2.000000000000000000, 0.0000000000000000000 ) ) ;
#108 = FACE_BOUND ( 'NONE', #817, .T. ) ;
#109 = ORIENTED_EDGE ( 'NONE', *, *, #255, .T. ) ;
#110 = CYLINDRICAL_SURFACE ( 'NONE', #856, 2.500000000000000400 ) ;
#111 = VERTEX_POINT ( 'NONE', #182 ) ;
#112 = EDGE_CURVE ( 'NONE', #1160, #1295, #1316, .T. ) ;
#113 = EDGE_LOOP ( 'NONE', ( #1253, #683 ) ) ;
#114 = VERTEX_POINT ( 'NONE', #735 ) ;
#115 = DIRECTION ( 'NONE',  ( -1.000000000000000000, 0.0000000000000000000, 0.0000000000000000000 ) ) ;
#116 = AXIS2_PLACEMENT_3D ( 'NONE', #546, #1193, #663 ) ;
#117 = CIRCLE ( 'NONE', #344, 2.000000000000001800 ) ;
#118 = DIRECTION ( 'NONE',  ( 0.0000000000000000000, 0.0000000000000000000, 1.000000000000000000 ) ) ;
#119 = EDGE_CURVE ( 'NONE', #1360, #698, #302, .T. ) ;
#120 = AXIS2_PLACEMENT_3D ( 'NONE', #617, #1361, #91 ) ;
#121 = CARTESIAN_POINT ( 'NONE',  ( 26.00000000000001100, 50.00000000000000000, -24.99999999999999600 ) ) ;
#122 = ORIENTED_EDGE ( 'NONE', *, *, #713, .T. ) ;
#123 = CARTESIAN_POINT ( 'NONE',  ( -21.99999999999999300, 0.0000000000000000000, 23.00000000000000700 ) ) ;
#124 = EDGE_LOOP ( 'NONE', ( #631, #1368, #466, #251 ) ) ;
#125 = LINE ( 'NONE', #916, #702 ) ;
#126 = DIRECTION ( 'NONE',  ( 0.0000000000000000000, 0.0000000000000000000, -1.000000000000000000 ) ) ;
#127 = AXIS2_PLACEMENT_3D ( 'NONE', #1148, #510, #1256 ) ;
#128 = CARTESIAN_POINT ( 'NONE',  ( 24.00000000000000700, 0.0000000000000000000, -24.99999999999999600 ) ) ;
#129 = APPROVAL_STATUS ( 'not_yet_approved' ) ;
#130 = CARTESIAN_POINT ( 'NONE',  ( -14.99999999999999500, 0.0000000000000000000, -14.99999999999999800 ) ) ;
#131 = DIRECTION ( 'NONE',  ( 0.0000000000000000000, 0.0000000000000000000, 1.000000000000000000 ) ) ;
#132 = DIRECTION ( 'NONE',  ( 0.0000000000000000000, 1.000000000000000000, 0.0000000000000000000 ) ) ;
#133 = CARTESIAN_POINT ( 'NONE',  ( 24.00000000000000700, 48.00000000000000000, 25.00000000000000400 ) ) ;
#134 = EDGE_CURVE ( 'NONE', #414, #601, #459, .T. ) ;
#135 = CARTESIAN_POINT ( 'NONE',  ( 15.00000000000000700, 2.000000000000000000, 12.50000000000000500 ) ) ;
#136 = EDGE_LOOP ( 'NONE', ( #56, #1104 ) ) ;
#137 = CIRCLE ( 'NONE', #271, 13.00000000000000000 ) ;
#138 = DIRECTION ( 'NONE',  ( 0.0000000000000000000, 0.0000000000000000000, -1.000000000000000000 ) ) ;
#139 = VERTEX_POINT ( 'NONE', #840 ) ;
#140 = CIRCLE ( 'NONE', #1359, 2.499999999999996900 ) ;
#141 = ORIENTED_EDGE ( 'NONE', *, *, #784, .T. ) ;
#142 = PLANE ( 'NONE',  #1260 ) ;
#143 = DIRECTION ( 'NONE',  ( -1.000000000000000000, 0.0000000000000000000, 0.0000000000000000000 ) ) ;
#144 = VERTEX_POINT ( 'NONE', #308 ) ;
#145 = VECTOR ( 'NONE', #29, 1000.000000000000000 ) ;
#146 = EDGE_CURVE ( 'NONE', #1048, #643, #1333, .T. ) ;
#147 = CARTESIAN_POINT ( 'NONE',  ( 24.00000000000000700, 27.99999999999970500, 19.49999999999975500 ) ) ;
#148 = ORIENTED_EDGE ( 'NONE', *, *, #307, .F. ) ;
#149 = AXIS2_PLACEMENT_3D ( 'NONE', #547, #960, #1273 ) ;
#150 = DIRECTION ( 'NONE',  ( 1.000000000000000000, 0.0000000000000000000, 0.0000000000000000000 ) ) ;
#151 = LINE ( 'NONE', #400, #398 ) ;
#152 = DIRECTION ( 'NONE',  ( -0.0000000000000000000, 1.000000000000000000, -0.0000000000000000000 ) ) ;
#153 = DIRECTION ( 'NONE',  ( 0.0000000000000000000, -1.000000000000000000, 0.0000000000000000000 ) ) ;
#154 = EDGE_CURVE ( 'NONE', #728, #1151, #492, .T. ) ;
#155 = ORIENTED_EDGE ( 'NONE', *, *, #426, .T. ) ;
#156 = VERTEX_POINT ( 'NONE', #1262 ) ;
#157 = VERTEX_POINT ( 'NONE', #821 ) ;
#158 = DIRECTION ( 'NONE',  ( 1.387778780781445700E-016, 0.0000000000000000000, 1.000000000000000000 ) ) ;
#159 = ORIENTED_EDGE ( 'NONE', *, *, #894, .F. ) ;
#160 = CARTESIAN_POINT ( 'NONE',  ( 15.00000000000000700, 0.0000000000000000000, 15.00000000000000500 ) ) ;
#161 = VECTOR ( 'NONE', #642, 1000.000000000000000 ) ;
#162 = LINE ( 'NONE', #433, #1038 ) ;
#163 = DIRECTION ( 'NONE',  ( 1.000000000000000000, 0.0000000000000000000, 0.0000000000000000000 ) ) ;
#164 = CARTESIAN_POINT ( 'NONE',  ( -23.99999999999999300, 28.00000000000001100, -2.694222958124176000E-015 ) ) ;
#165 = CC_DESIGN_DATE_AND_TIME_ASSIGNMENT ( #278, #658, ( #640 ) ) ;
#166 = CYLINDRICAL_SURFACE ( 'NONE', #924, 13.00000000000000000 ) ;
#167 = CYLINDRICAL_SURFACE ( 'NONE', #127, 1.999999999999998200 ) ;
#168 = DIRECTION ( 'NONE',  ( 0.0000000000000000000, 0.0000000000000000000, 1.000000000000000000 ) ) ;
#169 = DIRECTION ( 'NONE',  ( -0.0000000000000000000, -0.0000000000000000000, 1.000000000000000000 ) ) ;
#170 = ORIENTED_EDGE ( 'NONE', *, *, #897, .T. ) ;
#171 = LINE ( 'NONE', #1199, #72 ) ;
#172 = ADVANCED_FACE ( 'NONE', ( #270, #1163, #1093, #997, #1299, #184 ), #298, .T. ) ;
#173 = EDGE_LOOP ( 'NONE', ( #943, #538, #176, #421 ) ) ;
#174 = AXIS2_PLACEMENT_3D ( 'NONE', #346, #528, #17 ) ;
#175 = CIRCLE ( 'NONE', #1296, 2.500000000000000400 ) ;
#176 = ORIENTED_EDGE ( 'NONE', *, *, #704, .F. ) ;
#177 = CIRCLE ( 'NONE', #834, 2.000000000000001800 ) ;
#178 = LINE ( 'NONE', #1143, #675 ) ;
#179 = ORIENTED_EDGE ( 'NONE', *, *, #267, .F. ) ;
#180 = DIRECTION ( 'NONE',  ( -0.0000000000000000000, -0.0000000000000000000, -1.000000000000000000 ) ) ;
#181 = EDGE_LOOP ( 'NONE', ( #1324, #573, #674, #387 ) ) ;
#182 = CARTESIAN_POINT ( 'NONE',  ( 24.00000000000000700, 26.00000000000000400, -23.00000000000000400 ) ) ;
#183 = EDGE_CURVE ( 'NONE', #520, #627, #429, .T. ) ;
#184 = FACE_BOUND ( 'NONE', #1291, .T. ) ;
#185 = CARTESIAN_POINT ( 'NONE',  ( 0.0000000000000000000, 2.000000000000000000, 23.00000000000000700 ) ) ;
#186 = VECTOR ( 'NONE', #1025, 1000.000000000000000 ) ;
#187 = DIRECTION ( 'NONE',  ( 0.0000000000000000000, 1.000000000000000000, 0.0000000000000000000 ) ) ;
#188 = AXIS2_PLACEMENT_3D ( 'NONE', #130, #1077, #449 ) ;
#189 = CARTESIAN_POINT ( 'NONE',  ( -23.99999999999999300, 10.50000000000000900, -1.999999999999412900 ) ) ;
#190 = ORIENTED_EDGE ( 'NONE', *, *, #1075, .F. ) ;
#191 = EDGE_CURVE ( 'NONE', #799, #1295, #151, .T. ) ;
#192 = EDGE_LOOP ( 'NONE', ( #1282, #1251 ) ) ;
#193 = ORIENTED_EDGE ( 'NONE', *, *, #568, .T. ) ;
#194 = ORIENTED_EDGE ( 'NONE', *, *, #734, .F. ) ;
#195 = DIRECTION ( 'NONE',  ( 0.0000000000000000000, 0.0000000000000000000, 1.000000000000000000 ) ) ;
#196 = APPROVAL_DATE_TIME ( #836, #786 ) ;
#197 = CARTESIAN_POINT ( 'NONE',  ( 24.00000000000000700, 2.000000000000000000, -24.99999999999999600 ) ) ;
#198 = ORIENTED_EDGE ( 'NONE', *, *, #222, .F. ) ;
#199 = CIRCLE ( 'NONE', #259, 15.00000000000000000 ) ;
#200 = DIRECTION ( 'NONE',  ( 1.387778780781445700E-016, 0.0000000000000000000, 1.000000000000000000 ) ) ;
#201 = DIRECTION ( 'NONE',  ( 0.0000000000000000000, 0.0000000000000000000, 1.000000000000000000 ) ) ;
#202 = VECTOR ( 'NONE', #313, 1000.000000000000000 ) ;
#203 = DIRECTION ( 'NONE',  ( 1.000000000000000000, -0.0000000000000000000, -0.0000000000000000000 ) ) ;
#204 = CARTESIAN_POINT ( 'NONE',  ( 0.0000000000000000000, 2.000000000000000000, -25.00000000000000000 ) ) ;
#205 = CARTESIAN_POINT ( 'NONE',  ( -14.99999999999999500, 2.000000000000000000, -14.99999999999999800 ) ) ;
#206 = DIRECTION ( 'NONE',  ( 0.0000000000000000000, 0.0000000000000000000, -1.000000000000000000 ) ) ;
#207 = ORIENTED_EDGE ( 'NONE', *, *, #513, .T. ) ;
#208 = CYLINDRICAL_SURFACE ( 'NONE', #32, 1.999999999999412500 ) ;
#209 = EDGE_LOOP ( 'NONE', ( #1176, #848, #170, #1371, #797, #505 ) ) ;
#210 = PLANE ( 'NONE',  #498 ) ;
#211 = FACE_OUTER_BOUND ( 'NONE', #930, .T. ) ;
#212 = EDGE_LOOP ( 'NONE', ( #1249, #540, #777, #518 ) ) ;
#213 = EDGE_CURVE ( 'NONE', #912, #962, #117, .T. ) ;
#214 = LINE ( 'NONE', #365, #1134 ) ;
#215 = CARTESIAN_POINT ( 'NONE',  ( -14.99999999999999500, 2.000000000000000000, 15.00000000000000500 ) ) ;
#216 = VECTOR ( 'NONE', #1166, 1000.000000000000000 ) ;
#217 = DIRECTION ( 'NONE',  ( 1.000000000000000000, 0.0000000000000000000, 0.0000000000000000000 ) ) ;
#218 = CC_DESIGN_PERSON_AND_ORGANIZATION_ASSIGNMENT ( #1019, #27, ( #19 ) ) ;
#219 = CIRCLE ( 'NONE', #1242, 1.999999999999412500 ) ;
#220 = DIRECTION ( 'NONE',  ( 0.0000000000000000000, 1.000000000000000000, 0.0000000000000000000 ) ) ;
#221 = DIRECTION ( 'NONE',  ( -1.000000000000000000, 0.0000000000000000000, 0.0000000000000000000 ) ) ;
#222 = EDGE_CURVE ( 'NONE', #1295, #1286, #1216, .T. ) ;
#223 = AXIS2_PLACEMENT_3D ( 'NONE', #1301, #662, #150 ) ;
#224 = APPROVAL_ROLE ( '' ) ;
#225 = ORIENTED_EDGE ( 'NONE', *, *, #661, .T. ) ;
#226 = ORIENTED_EDGE ( 'NONE', *, *, #1231, .F. ) ;
#227 = EDGE_LOOP ( 'NONE', ( #389, #724, #499, #21, #1330, #1168, #1288, #999 ) ) ;
#228 = DIRECTION ( 'NONE',  ( 0.0000000000000000000, 0.0000000000000000000, -1.000000000000000000 ) ) ;
#229 = EDGE_CURVE ( 'NONE', #139, #852, #925, .T. ) ;
#230 = ORIENTED_EDGE ( 'NONE', *, *, #154, .T. ) ;
#231 = APPROVAL_DATE_TIME ( #474, #286 ) ;
#232 = APPROVAL_STATUS ( 'not_yet_approved' ) ;
#233 = FACE_BOUND ( 'NONE', #1233, .T. ) ;
#234 = VERTEX_POINT ( 'NONE', #612 ) ;
#235 = DIRECTION ( 'NONE',  ( -0.0000000000000000000, -1.000000000000000000, -0.0000000000000000000 ) ) ;
#236 = VECTOR ( 'NONE', #453, 1000.000000000000000 ) ;
#237 = VECTOR ( 'NONE', #833, 1000.000000000000000 ) ;
#238 = DIRECTION ( 'NONE',  ( 1.000000000000000000, -0.0000000000000000000, -0.0000000000000000000 ) ) ;
#239 = EDGE_CURVE ( 'NONE', #737, #157, #371, .T. ) ;
#240 = DIRECTION ( 'NONE',  ( 0.0000000000000000000, 0.0000000000000000000, 1.000000000000000000 ) ) ;
#241 = CARTESIAN_POINT ( 'NONE',  ( 24.00000000000000700, 28.00000000000001100, -2.694222958124176000E-015 ) ) ;
#242 = ORIENTED_EDGE ( 'NONE', *, *, #526, .F. ) ;
#243 = DIRECTION ( 'NONE',  ( 1.000000000000000000, 0.0000000000000000000, 0.0000000000000000000 ) ) ;
#244 = LINE ( 'NONE', #574, #1335 ) ;
#245 = ORIENTED_EDGE ( 'NONE', *, *, #513, .F. ) ;
#246 = LINE ( 'NONE', #185, #1047 ) ;
#247 = CARTESIAN_POINT ( 'NONE',  ( -22.00000000000000000, 2.000000000000000000, -22.99999999999999600 ) ) ;
#248 = ORIENTED_EDGE ( 'NONE', *, *, #90, .T. ) ;
#249 = CARTESIAN_POINT ( 'NONE',  ( 26.00000000000001100, 48.00000000000000000, -25.00000000000000400 ) ) ;
#250 = FACE_BOUND ( 'NONE', #192, .T. ) ;
#251 = ORIENTED_EDGE ( 'NONE', *, *, #860, .F. ) ;
#252 = CARTESIAN_POINT ( 'NONE',  ( -14.99999999999999500, 2.000000000000000000, 17.50000000000000400 ) ) ;
#253 = ADVANCED_FACE ( 'NONE', ( #51 ), #167, .T. ) ;
#254 = CARTESIAN_POINT ( 'NONE',  ( 1.836970198721029600E-015, 0.0000000000000000000, 15.00000000000000000 ) ) ;
#255 = EDGE_CURVE ( 'NONE', #157, #601, #103, .T. ) ;
#256 = PLANE ( 'NONE',  #1218 ) ;
#257 = VECTOR ( 'NONE', #1195, 1000.000000000000000 ) ;
#258 = ORIENTED_EDGE ( 'NONE', *, *, #764, .T. ) ;
#259 = AXIS2_PLACEMENT_3D ( 'NONE', #942, #220, #515 ) ;
#260 = ORIENTED_EDGE ( 'NONE', *, *, #496, .F. ) ;
#261 = CARTESIAN_POINT ( 'NONE',  ( 24.00000000000000700, 0.0000000000000000000, 23.00000000000000700 ) ) ;
#262 = LINE ( 'NONE', #1058, #502 ) ;
#263 = ORIENTED_EDGE ( 'NONE', *, *, #451, .T. ) ;
#264 = ADVANCED_FACE ( 'NONE', ( #1099 ), #633, .T. ) ;
#265 = CARTESIAN_POINT ( 'NONE',  ( 26.00000000000001100, 28.00000000000001100, -2.694222958124176000E-015 ) ) ;
#266 = DIRECTION ( 'NONE',  ( 0.0000000000000000000, 0.0000000000000000000, 1.000000000000000000 ) ) ;
#267 = EDGE_CURVE ( 'NONE', #672, #980, #844, .T. ) ;
#268 = EDGE_LOOP ( 'NONE', ( #1084, #571, #886, #39 ) ) ;
#269 = DIRECTION ( 'NONE',  ( 1.000000000000000000, 0.0000000000000000000, -0.0000000000000000000 ) ) ;
#270 = FACE_OUTER_BOUND ( 'NONE', #1087, .T. ) ;
#271 = AXIS2_PLACEMENT_3D ( 'NONE', #265, #1222, #44 ) ;
#272 = ORIENTED_EDGE ( 'NONE', *, *, #239, .T. ) ;
#273 = CARTESIAN_POINT ( 'NONE',  ( -14.99999999999999500, 0.0000000000000000000, -12.49999999999999600 ) ) ;
#274 = ORIENTED_EDGE ( 'NONE', *, *, #10, .T. ) ;
#275 = CARTESIAN_POINT ( 'NONE',  ( 26.00000000000001100, 2.000000000000000000, -24.99999999999999600 ) ) ;
#276 = ORIENTED_EDGE ( 'NONE', *, *, #1375, .T. ) ;
#277 = CIRCLE ( 'NONE', #1065, 1.999999999999998200 ) ;
#278 = DATE_AND_TIME ( #311, #1004 ) ;
#279 = ORIENTED_EDGE ( 'NONE', *, *, #959, .F. ) ;
#280 = PLANE ( 'NONE',  #366 ) ;
#281 = CIRCLE ( 'NONE', #188, 2.500000000000000400 ) ;
#282 = EDGE_CURVE ( 'NONE', #815, #1114, #650, .T. ) ;
#283 = CARTESIAN_POINT ( 'NONE',  ( 15.00000000000000700, 2.000000000000000000, 17.50000000000000000 ) ) ;
#284 = DIRECTION ( 'NONE',  ( 0.0000000000000000000, 1.000000000000000000, 0.0000000000000000000 ) ) ;
#285 = VECTOR ( 'NONE', #95, 1000.000000000000000 ) ;
#286 = APPROVAL ( #232, '未指定' ) ;
#287 = ADVANCED_FACE ( 'NONE', ( #878 ), #208, .F. ) ;
#288 = DIRECTION ( 'NONE',  ( -1.000000000000000000, 0.0000000000000000000, 1.445602896647339400E-016 ) ) ;
#289 = EDGE_CURVE ( 'NONE', #156, #478, #1169, .T. ) ;
#290 = EDGE_LOOP ( 'NONE', ( #832, #1334, #193, #141, #828, #891, #1186, #225, #230, #703 ) ) ;
#291 = AXIS2_PLACEMENT_3D ( 'NONE', #939, #316, #634 ) ;
#292 = ORIENTED_EDGE ( 'NONE', *, *, #1323, .F. ) ;
#293 = DIRECTION ( 'NONE',  ( 0.0000000000000000000, 0.0000000000000000000, 1.000000000000000000 ) ) ;
#294 = CIRCLE ( 'NONE', #673, 2.000000000000001800 ) ;
#295 = ORIENTED_EDGE ( 'NONE', *, *, #784, .F. ) ;
#296 = EDGE_LOOP ( 'NONE', ( #934, #773, #680, #756 ) ) ;
#297 = DIRECTION ( 'NONE',  ( 1.000000000000000000, -0.0000000000000000000, -0.0000000000000000000 ) ) ;
#298 = PLANE ( 'NONE',  #1363 ) ;
#299 = VERTEX_POINT ( 'NONE', #941 ) ;
#300 = AXIS2_PLACEMENT_3D ( 'NONE', #596, #284, #1229 ) ;
#301 = ADVANCED_FACE ( 'NONE', ( #699 ), #911, .T. ) ;
#302 = LINE ( 'NONE', #1367, #285 ) ;
#303 = DIRECTION ( 'NONE',  ( -1.000000000000000000, 0.0000000000000000000, 1.445602896647339200E-016 ) ) ;
#304 = CARTESIAN_POINT ( 'NONE',  ( 15.00000000000000500, 2.000000000000000000, -12.49999999999999500 ) ) ;
#305 = CARTESIAN_POINT ( 'NONE',  ( 26.00000000000001100, 28.00000000000044400, -15.50000000000025000 ) ) ;
#306 = EDGE_LOOP ( 'NONE', ( #689, #730 ) ) ;
#307 = EDGE_CURVE ( 'NONE', #18, #58, #171, .T. ) ;
#308 = CARTESIAN_POINT ( 'NONE',  ( -24.00000000000000000, 0.0000000000000000000, -22.99999999999999600 ) ) ;
#309 = VERTEX_POINT ( 'NONE', #875 ) ;
#310 = DIRECTION ( 'NONE',  ( -0.0000000000000000000, 1.000000000000000000, -0.0000000000000000000 ) ) ;
#311 = CALENDAR_DATE ( 2019, 17, 11 ) ;
#312 = AXIS2_PLACEMENT_3D ( 'NONE', #241, #1071, #1180 ) ;
#313 = DIRECTION ( 'NONE',  ( 1.000000000000000000, 0.0000000000000000000, 0.0000000000000000000 ) ) ;
#314 = LINE ( 'NONE', #133, #487 ) ;
#315 = CARTESIAN_POINT ( 'NONE',  ( 24.00000000000000700, 0.0000000000000000000, 25.00000000000000400 ) ) ;
#316 = DIRECTION ( 'NONE',  ( -0.0000000000000000000, -0.0000000000000000000, 1.000000000000000000 ) ) ;
#317 = AXIS2_PLACEMENT_3D ( 'NONE', #489, #1347, #481 ) ;
#318 = CARTESIAN_POINT ( 'NONE',  ( 26.00000000000001100, 50.00000000000000000, 23.00000000000000400 ) ) ;
#319 = ORIENTED_EDGE ( 'NONE', *, *, #1206, .T. ) ;
#320 = VECTOR ( 'NONE', #1297, 1000.000000000000000 ) ;
#321 = ORIENTED_EDGE ( 'NONE', *, *, #1281, .T. ) ;
#322 = DIRECTION ( 'NONE',  ( 1.000000000000000000, -0.0000000000000000000, 0.0000000000000000000 ) ) ;
#323 = ORIENTED_EDGE ( 'NONE', *, *, #568, .F. ) ;
#324 = EDGE_CURVE ( 'NONE', #1327, #851, #1044, .T. ) ;
#325 = APPLICATION_PROTOCOL_DEFINITION ( 'international standard', 'config_control_design', 1994, #437 ) ;
#326 = VERTEX_POINT ( 'NONE', #442 ) ;
#327 = PERSON_AND_ORGANIZATION ( #971, #1192 ) ;
#328 = DIRECTION ( 'NONE',  ( -0.0000000000000000000, -1.000000000000000000, -0.0000000000000000000 ) ) ;
#329 = EDGE_LOOP ( 'NONE', ( #1142, #258, #1135, #1237 ) ) ;
#330 = AXIS2_PLACEMENT_3D ( 'NONE', #893, #1322, #372 ) ;
#331 = DIRECTION ( 'NONE',  ( 1.000000000000000000, -0.0000000000000000000, -0.0000000000000000000 ) ) ;
#332 = LINE ( 'NONE', #1194, #236 ) ;
#333 = DIRECTION ( 'NONE',  ( 0.0000000000000000000, -1.000000000000000000, 0.0000000000000000000 ) ) ;
#334 = EDGE_CURVE ( 'NONE', #1063, #799, #982, .T. ) ;
#335 = DIRECTION ( 'NONE',  ( 0.0000000000000000000, 0.0000000000000000000, 1.000000000000000000 ) ) ;
#336 = DIRECTION ( 'NONE',  ( 0.7071067811865474600, 0.7071067811865475700, -1.022195611122249400E-016 ) ) ;
#337 = CARTESIAN_POINT ( 'NONE',  ( -14.99999999999999500, 2.000000000000000000, -14.99999999999999800 ) ) ;
#338 = ORIENTED_EDGE ( 'NONE', *, *, #1007, .T. ) ;
#339 = APPLICATION_PROTOCOL_DEFINITION ( 'international standard', 'config_control_design', 1994, #1175 ) ;
#340 = CIRCLE ( 'NONE', #880, 2.499999999999996900 ) ;
#341 = ORIENTED_EDGE ( 'NONE', *, *, #213, .T. ) ;
#342 = VERTEX_POINT ( 'NONE', #785 ) ;
#343 = CARTESIAN_POINT ( 'NONE',  ( 26.00000000000001100, 28.00000000000001100, -2.694222958124176000E-015 ) ) ;
#344 = AXIS2_PLACEMENT_3D ( 'NONE', #1265, #500, #825 ) ;
#345 = ORIENTED_EDGE ( 'NONE', *, *, #1140, .F. ) ;
#346 = CARTESIAN_POINT ( 'NONE',  ( -23.99999999999999300, 28.00000000000044400, -17.50000000000025200 ) ) ;
#347 = LOCAL_TIME ( 19, 43, 5.000000000000000000, #1107 ) ;
#348 = PERSON_AND_ORGANIZATION_ROLE ( 'classification_officer' ) ;
#349 = CARTESIAN_POINT ( 'NONE',  ( 1.055290114552557600E-014, 2.000000000000000000, -23.00000000000000000 ) ) ;
#350 = CIRCLE ( 'NONE', #23, 13.00000000000000000 ) ;
#351 = ORIENTED_EDGE ( 'NONE', *, *, #764, .F. ) ;
#352 = CYLINDRICAL_SURFACE ( 'NONE', #70, 2.499999999999998700 ) ;
#353 = CARTESIAN_POINT ( 'NONE',  ( -14.99999999999999500, 2.000000000000000000, -17.49999999999999600 ) ) ;
#354 = CARTESIAN_POINT ( 'NONE',  ( 24.00000000000000700, 0.0000000000000000000, 25.00000000000000400 ) ) ;
#355 = EDGE_CURVE ( 'NONE', #1160, #720, #105, .T. ) ;
#356 = DIRECTION ( 'NONE',  ( 0.0000000000000000000, 0.0000000000000000000, 1.000000000000000000 ) ) ;
#357 = ORIENTED_EDGE ( 'NONE', *, *, #646, .T. ) ;
#358 = CC_DESIGN_APPROVAL ( #286, ( #1108 ) ) ;
#359 = FACE_OUTER_BOUND ( 'NONE', #296, .T. ) ;
#360 = EDGE_LOOP ( 'NONE', ( #1366, #321, #34, #263 ) ) ;
#361 = EDGE_LOOP ( 'NONE', ( #179, #392, #248, #583 ) ) ;
#362 = CIRCLE ( 'NONE', #1164, 1.999999999999412500 ) ;
#363 = ORIENTED_EDGE ( 'NONE', *, *, #959, .T. ) ;
#364 = EDGE_CURVE ( 'NONE', #6, #720, #739, .T. ) ;
#365 = CARTESIAN_POINT ( 'NONE',  ( -0.9999999999999965600, 0.9999999999999965600, 25.00000000000000400 ) ) ;
#366 = AXIS2_PLACEMENT_3D ( 'NONE', #1013, #80, #384 ) ;
#367 = EDGE_LOOP ( 'NONE', ( #106, #279 ) ) ;
#368 = ADVANCED_FACE ( 'NONE', ( #359 ), #517, .F. ) ;
#369 = CYLINDRICAL_SURFACE ( 'NONE', #1022, 2.500000000000000400 ) ;
#370 = DIRECTION ( 'NONE',  ( -0.0000000000000000000, 0.0000000000000000000, -1.000000000000000000 ) ) ;
#371 = LINE ( 'NONE', #725, #805 ) ;
#372 = DIRECTION ( 'NONE',  ( 0.0000000000000000000, 0.0000000000000000000, -1.000000000000000000 ) ) ;
#373 = DIRECTION ( 'NONE',  ( 0.0000000000000000000, 0.0000000000000000000, 1.000000000000000000 ) ) ;
#374 = ORIENTED_EDGE ( 'NONE', *, *, #1215, .F. ) ;
#375 = ORIENTED_EDGE ( 'NONE', *, *, #932, .T. ) ;
#376 = ORIENTED_EDGE ( 'NONE', *, *, #1225, .T. ) ;
#377 = DIRECTION ( 'NONE',  ( 0.0000000000000000000, 0.0000000000000000000, -1.000000000000000000 ) ) ;
#378 = CARTESIAN_POINT ( 'NONE',  ( 24.00000000000000700, 4.000000000000000000, 23.00000000000000700 ) ) ;
#379 = EDGE_CURVE ( 'NONE', #1307, #622, #884, .T. ) ;
#380 = CIRCLE ( 'NONE', #94, 2.000000000000000400 ) ;
#381 = ORIENTED_EDGE ( 'NONE', *, *, #818, .F. ) ;
#382 = DIRECTION ( 'NONE',  ( -0.0000000000000000000, -1.000000000000000000, 0.0000000000000000000 ) ) ;
#383 = AXIS2_PLACEMENT_3D ( 'NONE', #430, #1081, #876 ) ;
#384 = DIRECTION ( 'NONE',  ( -0.7071067811865474600, -0.7071067811865475700, 0.0000000000000000000 ) ) ;
#385 = CARTESIAN_POINT ( 'NONE',  ( 24.00000000000000700, 45.50000000000001400, 1.999999999999997800 ) ) ;
#386 = AXIS2_PLACEMENT_3D ( 'NONE', #693, #1331, #565 ) ;
#387 = ORIENTED_EDGE ( 'NONE', *, *, #239, .F. ) ;
#388 = VECTOR ( 'NONE', #560, 1000.000000000000000 ) ;
#389 = ORIENTED_EDGE ( 'NONE', *, *, #897, .F. ) ;
#390 = CARTESIAN_POINT ( 'NONE',  ( 24.00000000000000700, 48.00000000000000000, -24.99999999999999600 ) ) ;
#391 = EDGE_LOOP ( 'NONE', ( #323, #4, #639, #1380 ) ) ;
#392 = ORIENTED_EDGE ( 'NONE', *, *, #1255, .T. ) ;
#393 = VERTEX_POINT ( 'NONE', #318 ) ;
#394 = CARTESIAN_POINT ( 'NONE',  ( -14.99999999999999500, 2.000000000000000000, 15.00000000000000500 ) ) ;
#395 = VERTEX_POINT ( 'NONE', #1306 ) ;
#396 = EDGE_CURVE ( 'NONE', #955, #851, #566, .T. ) ;
#397 = CARTESIAN_POINT ( 'NONE',  ( 26.00000000000001100, 48.00000000000000000, 25.00000000000000400 ) ) ;
#398 = VECTOR ( 'NONE', #1376, 1000.000000000000000 ) ;
#399 = AXIS2_PLACEMENT_3D ( 'NONE', #215, #624, #422 ) ;
#400 = CARTESIAN_POINT ( 'NONE',  ( -22.00000000000000000, 2.000000000000000000, -24.99999999999999600 ) ) ;
#401 = ORIENTED_EDGE ( 'NONE', *, *, #134, .F. ) ;
#402 = VERTEX_POINT ( 'NONE', #1165 ) ;
#403 = CARTESIAN_POINT ( 'NONE',  ( -21.99999999999999300, 2.000000000000000000, 23.00000000000000700 ) ) ;
#404 = LINE ( 'NONE', #261, #584 ) ;
#405 = CARTESIAN_POINT ( 'NONE',  ( -22.00000000000000000, 2.000000000000000000, -22.99999999999999600 ) ) ;
#406 = CARTESIAN_POINT ( 'NONE',  ( -24.00000000000000000, 2.000000000000000000, -22.99999999999999600 ) ) ;
#407 = FACE_OUTER_BOUND ( 'NONE', #609, .T. ) ;
#408 = CARTESIAN_POINT ( 'NONE',  ( -14.99999999999999500, 2.000000000000000000, 15.00000000000000500 ) ) ;
#409 = DIRECTION ( 'NONE',  ( 0.0000000000000000000, 1.000000000000000000, 0.0000000000000000000 ) ) ;
#410 = AXIS2_PLACEMENT_3D ( 'NONE', #403, #509, #1162 ) ;
#411 = CARTESIAN_POINT ( 'NONE',  ( -22.00000000000000000, 2.000000000000000000, -25.00000000000000000 ) ) ;
#412 = CARTESIAN_POINT ( 'NONE',  ( 0.0000000000000000000, 2.000000000000000000, 0.0000000000000000000 ) ) ;
#413 = CARTESIAN_POINT ( 'NONE',  ( -23.99999999999999300, 0.0000000000000000000, 23.00000000000000400 ) ) ;
#414 = VERTEX_POINT ( 'NONE', #1051 ) ;
#415 = EDGE_CURVE ( 'NONE', #1114, #1338, #1128, .T. ) ;
#416 = CARTESIAN_POINT ( 'NONE',  ( -14.99999999999999500, 0.0000000000000000000, 15.00000000000000500 ) ) ;
#417 = ORIENTED_EDGE ( 'NONE', *, *, #744, .T. ) ;
#418 = CARTESIAN_POINT ( 'NONE',  ( 0.0000000000000000000, 0.0000000000000000000, 23.00000000000000700 ) ) ;
#419 = ORIENTED_EDGE ( 'NONE', *, *, #282, .F. ) ;
#420 = CC_DESIGN_PERSON_AND_ORGANIZATION_ASSIGNMENT ( #588, #1187, ( #1108 ) ) ;
#421 = ORIENTED_EDGE ( 'NONE', *, *, #652, .F. ) ;
#422 = DIRECTION ( 'NONE',  ( 0.0000000000000000000, 0.0000000000000000000, 1.000000000000000000 ) ) ;
#423 = LINE ( 'NONE', #803, #30 ) ;
#424 = ORIENTED_EDGE ( 'NONE', *, *, #535, .F. ) ;
#425 = DIRECTION ( 'NONE',  ( -0.0000000000000000000, -1.000000000000000000, -0.0000000000000000000 ) ) ;
#426 = EDGE_CURVE ( 'NONE', #102, #234, #1201, .T. ) ;
#427 = AXIS2_PLACEMENT_3D ( 'NONE', #13, #221, #118 ) ;
#428 = FACE_OUTER_BOUND ( 'NONE', #124, .T. ) ;
#429 = CIRCLE ( 'NONE', #572, 2.500000000000000400 ) ;
#430 = CARTESIAN_POINT ( 'NONE',  ( 24.00000000000000700, 2.000000000000000000, 25.00000000000000400 ) ) ;
#431 = ORIENTED_EDGE ( 'NONE', *, *, #1085, .F. ) ;
#432 = CIRCLE ( 'NONE', #149, 2.000000000000001800 ) ;
#433 = CARTESIAN_POINT ( 'NONE',  ( 26.00000000000001100, 50.00000000000000000, 23.00000000000000700 ) ) ;
#434 = EDGE_LOOP ( 'NONE', ( #1294, #985 ) ) ;
#435 = EDGE_CURVE ( 'NONE', #111, #720, #244, .T. ) ;
#436 = CIRCLE ( 'NONE', #47, 2.500000000000000400 ) ;
#437 = APPLICATION_CONTEXT ( 'configuration controlled 3d designs of mechanical parts and assemblies' ) ;
#438 = ORIENTED_EDGE ( 'NONE', *, *, #932, .F. ) ;
#439 = DIRECTION ( 'NONE',  ( 1.000000000000000000, 0.0000000000000000000, 0.0000000000000000000 ) ) ;
#440 = DIRECTION ( 'NONE',  ( -1.445602896647339200E-016, 0.0000000000000000000, -1.000000000000000000 ) ) ;
#441 = ORIENTED_EDGE ( 'NONE', *, *, #1149, .T. ) ;
#442 = CARTESIAN_POINT ( 'NONE',  ( 26.00000000000001100, 2.000000000000001800, -24.99999999999999600 ) ) ;
#443 = DIRECTION ( 'NONE',  ( 0.0000000000000000000, 1.000000000000000000, 0.0000000000000000000 ) ) ;
#444 = CARTESIAN_POINT ( 'NONE',  ( 26.00000000000001100, 10.50000000000000900, -5.510910596162892300E-016 ) ) ;
#445 = AXIS2_PLACEMENT_3D ( 'NONE', #20, #769, #977 ) ;
#446 = DIRECTION ( 'NONE',  ( -0.0000000000000000000, -1.000000000000000000, -0.0000000000000000000 ) ) ;
#447 = EDGE_LOOP ( 'NONE', ( #501, #647 ) ) ;
#448 = VECTOR ( 'NONE', #455, 1000.000000000000100 ) ;
#449 = DIRECTION ( 'NONE',  ( 0.0000000000000000000, 0.0000000000000000000, 1.000000000000000000 ) ) ;
#450 = ORIENTED_EDGE ( 'NONE', *, *, #635, .T. ) ;
#451 = EDGE_CURVE ( 'NONE', #342, #395, #137, .T. ) ;
#452 = ORIENTED_EDGE ( 'NONE', *, *, #84, .F. ) ;
#453 = DIRECTION ( 'NONE',  ( -0.0000000000000000000, -1.000000000000000000, -0.0000000000000000000 ) ) ;
#454 = AXIS2_PLACEMENT_3D ( 'NONE', #792, #50, #992 ) ;
#455 = DIRECTION ( 'NONE',  ( 0.7071067811865474600, 0.7071067811865474600, 0.0000000000000000000 ) ) ;
#456 = CYLINDRICAL_SURFACE ( 'NONE', #542, 2.000000000000001800 ) ;
#457 = ADVANCED_FACE ( 'NONE', ( #775 ), #256, .F. ) ;
#458 = FACE_BOUND ( 'NONE', #1356, .T. ) ;
#459 = LINE ( 'NONE', #304, #237 ) ;
#460 = EDGE_CURVE ( 'NONE', #912, #1221, #1204, .T. ) ;
#461 = FACE_OUTER_BOUND ( 'NONE', #551, .T. ) ;
#462 = ADVANCED_FACE ( 'NONE', ( #211 ), #602, .F. ) ;
#463 = DIRECTION ( 'NONE',  ( 0.0000000000000000000, 1.000000000000000000, 0.0000000000000000000 ) ) ;
#464 = AXIS2_PLACEMENT_3D ( 'NONE', #343, #24, #887 ) ;
#465 = CARTESIAN_POINT ( 'NONE',  ( -14.99999999999999500, 2.000000000000000000, -12.49999999999999600 ) ) ;
#466 = ORIENTED_EDGE ( 'NONE', *, *, #324, .F. ) ;
#467 = DIRECTION ( 'NONE',  ( 1.000000000000000000, -0.0000000000000000000, -0.0000000000000000000 ) ) ;
#468 = ORIENTED_EDGE ( 'NONE', *, *, #1007, .F. ) ;
#469 = LINE ( 'NONE', #845, #986 ) ;
#470 = CYLINDRICAL_SURFACE ( 'NONE', #529, 13.00000000000000000 ) ;
#471 = VERTEX_POINT ( 'NONE', #682 ) ;
#472 = EDGE_CURVE ( 'NONE', #43, #622, #340, .T. ) ;
#473 = DIRECTION ( 'NONE',  ( 1.000000000000000000, -0.0000000000000000000, -0.0000000000000000000 ) ) ;
#474 = DATE_AND_TIME ( #1226, #1088 ) ;
#475 = ORIENTED_EDGE ( 'NONE', *, *, #635, .F. ) ;
#476 = DIRECTION ( 'NONE',  ( -1.387778780781445700E-016, 0.0000000000000000000, -1.000000000000000000 ) ) ;
#477 = CIRCLE ( 'NONE', #613, 2.000000000000001800 ) ;
#478 = VERTEX_POINT ( 'NONE', #1214 ) ;
#479 = DIRECTION ( 'NONE',  ( 0.0000000000000000000, 0.0000000000000000000, -1.000000000000000000 ) ) ;
#480 = AXIS2_PLACEMENT_3D ( 'NONE', #1096, #463, #373 ) ;
#481 = DIRECTION ( 'NONE',  ( 0.0000000000000000000, -0.0000000000000000000, 1.000000000000000000 ) ) ;
#482 = EDGE_LOOP ( 'NONE', ( #989, #1 ) ) ;
#483 = ORIENTED_EDGE ( 'NONE', *, *, #755, .F. ) ;
#484 = CARTESIAN_POINT ( 'NONE',  ( 26.00000000000001100, 27.99999999999970500, 19.49999999999975500 ) ) ;
#485 = EDGE_CURVE ( 'NONE', #1200, #1307, #885, .T. ) ;
#486 = ADVANCED_FACE ( 'NONE', ( #913, #569, #108, #1131, #3, #1101 ), #1009, .T. ) ;
#487 = VECTOR ( 'NONE', #768, 1000.000000000000000 ) ;
#488 = ORIENTED_EDGE ( 'NONE', *, *, #842, .T. ) ;
#489 = CARTESIAN_POINT ( 'NONE',  ( 24.00000000000000700, 50.00000000000000000, -24.99999999999999600 ) ) ;
#490 = CC_DESIGN_DATE_AND_TIME_ASSIGNMENT ( #727, #11, ( #1108 ) ) ;
#491 = FACE_OUTER_BOUND ( 'NONE', #864, .T. ) ;
#492 = LINE ( 'NONE', #632, #202 ) ;
#493 = DIRECTION ( 'NONE',  ( 0.0000000000000000000, 0.0000000000000000000, -1.000000000000000000 ) ) ;
#494 = LINE ( 'NONE', #708, #1230 ) ;
#495 = ADVANCED_FACE ( 'NONE', ( #1353 ), #470, .F. ) ;
#496 = EDGE_CURVE ( 'NONE', #9, #309, #539, .T. ) ;
#497 = DIRECTION ( 'NONE',  ( 1.000000000000000000, -0.0000000000000000000, -0.0000000000000000000 ) ) ;
#498 = AXIS2_PLACEMENT_3D ( 'NONE', #204, #1147, #1247 ) ;
#499 = ORIENTED_EDGE ( 'NONE', *, *, #334, .T. ) ;
#500 = DIRECTION ( 'NONE',  ( -1.000000000000000000, 0.0000000000000000000, 0.0000000000000000000 ) ) ;
#501 = ORIENTED_EDGE ( 'NONE', *, *, #579, .T. ) ;
#502 = VECTOR ( 'NONE', #328, 1000.000000000000000 ) ;
#503 = ADVANCED_FACE ( 'NONE', ( #1064 ), #1031, .F. ) ;
#504 = CARTESIAN_POINT ( 'NONE',  ( 26.00000000000001100, 45.50000000000001400, 1.999999999999997800 ) ) ;
#505 = ORIENTED_EDGE ( 'NONE', *, *, #1075, .T. ) ;
#506 = VECTOR ( 'NONE', #203, 1000.000000000000000 ) ;
#507 = EDGE_CURVE ( 'NONE', #1018, #299, #831, .T. ) ;
#508 = CYLINDRICAL_SURFACE ( 'NONE', #1351, 2.499999999999998700 ) ;
#509 = DIRECTION ( 'NONE',  ( 0.0000000000000000000, 1.000000000000000000, -0.0000000000000000000 ) ) ;
#510 = DIRECTION ( 'NONE',  ( 1.000000000000000000, 0.0000000000000000000, -1.445602896647339200E-016 ) ) ;
#511 = DIRECTION ( 'NONE',  ( -1.000000000000000000, 0.0000000000000000000, 0.0000000000000000000 ) ) ;
#512 = CARTESIAN_POINT ( 'NONE',  ( 24.00000000000000700, 50.00000000000000000, -23.00000000000000400 ) ) ;
#513 = EDGE_CURVE ( 'NONE', #955, #1172, #175, .T. ) ;
#514 = DIRECTION ( 'NONE',  ( -0.0000000000000000000, -1.000000000000000000, -0.0000000000000000000 ) ) ;
#515 = DIRECTION ( 'NONE',  ( 0.0000000000000000000, 0.0000000000000000000, 1.000000000000000000 ) ) ;
#516 = ORIENTED_EDGE ( 'NONE', *, *, #535, .T. ) ;
#517 = CYLINDRICAL_SURFACE ( 'NONE', #174, 2.000000000000001800 ) ;
#518 = ORIENTED_EDGE ( 'NONE', *, *, #1383, .T. ) ;
#519 = FACE_OUTER_BOUND ( 'NONE', #956, .T. ) ;
#520 = VERTEX_POINT ( 'NONE', #1227 ) ;
#521 = CIRCLE ( 'NONE', #748, 1.999999999999412500 ) ;
#522 = CARTESIAN_POINT ( 'NONE',  ( 6.938893903907228400E-015, 2.000000000000000000, 23.00000000000000700 ) ) ;
#523 = PERSON_AND_ORGANIZATION ( #971, #1192 ) ;
#524 = FACE_OUTER_BOUND ( 'NONE', #212, .T. ) ;
#525 = CARTESIAN_POINT ( 'NONE',  ( 24.00000000000000700, 26.00000000000000700, -25.00000000000000000 ) ) ;
#526 = EDGE_CURVE ( 'NONE', #144, #799, #776, .T. ) ;
#527 = VERTEX_POINT ( 'NONE', #1003 ) ;
#528 = DIRECTION ( 'NONE',  ( 1.000000000000000000, -0.0000000000000000000, -0.0000000000000000000 ) ) ;
#529 = AXIS2_PLACEMENT_3D ( 'NONE', #695, #1315, #377 ) ;
#530 = CARTESIAN_POINT ( 'NONE',  ( -23.99999999999999300, 28.00000000000044400, -17.50000000000025200 ) ) ;
#531 = DIRECTION ( 'NONE',  ( 0.0000000000000000000, 0.0000000000000000000, 1.000000000000000000 ) ) ;
#532 = CIRCLE ( 'NONE', #1095, 2.500000000000000400 ) ;
#533 = DIRECTION ( 'NONE',  ( 0.0000000000000000000, 1.000000000000000000, 0.0000000000000000000 ) ) ;
#534 = CARTESIAN_POINT ( 'NONE',  ( -21.99999999999999300, 2.000000000000000000, 23.00000000000000700 ) ) ;
#535 = EDGE_CURVE ( 'NONE', #114, #58, #1115, .T. ) ;
#536 = ORIENTED_EDGE ( 'NONE', *, *, #119, .T. ) ;
#537 = LINE ( 'NONE', #1109, #554 ) ;
#538 = ORIENTED_EDGE ( 'NONE', *, *, #16, .F. ) ;
#539 = CIRCLE ( 'NONE', #1122, 2.000000000000000400 ) ;
#540 = ORIENTED_EDGE ( 'NONE', *, *, #66, .F. ) ;
#541 = DIRECTION ( 'NONE',  ( 0.0000000000000000000, 1.000000000000000000, 0.0000000000000000000 ) ) ;
#542 = AXIS2_PLACEMENT_3D ( 'NONE', #530, #749, #206 ) ;
#543 = ORIENTED_EDGE ( 'NONE', *, *, #267, .T. ) ;
#544 = DIRECTION ( 'NONE',  ( -1.000000000000000000, 0.0000000000000000000, 0.0000000000000000000 ) ) ;
#545 = FACE_OUTER_BOUND ( 'NONE', #1352, .T. ) ;
#546 = CARTESIAN_POINT ( 'NONE',  ( 24.00000000000000700, 45.50000000000001400, -2.694222958124176000E-015 ) ) ;
#547 = CARTESIAN_POINT ( 'NONE',  ( 22.00000000000000700, 4.000000000000000000, 23.00000000000000700 ) ) ;
#548 = DIRECTION ( 'NONE',  ( 0.0000000000000000000, -1.000000000000000000, 0.0000000000000000000 ) ) ;
#549 = APPROVAL_STATUS ( 'not_yet_approved' ) ;
#550 = ORIENTED_EDGE ( 'NONE', *, *, #801, .F. ) ;
#551 = EDGE_LOOP ( 'NONE', ( #79, #1102, #37, #417 ) ) ;
#552 = AXIS2_PLACEMENT_3D ( 'NONE', #412, #838, #615 ) ;
#553 = EDGE_LOOP ( 'NONE', ( #62, #761, #678, #93 ) ) ;
#554 = VECTOR ( 'NONE', #473, 1000.000000000000000 ) ;
#555 = CARTESIAN_POINT ( 'NONE',  ( 26.00000000000001100, 27.99999999999970500, 15.49999999999975000 ) ) ;
#556 = VECTOR ( 'NONE', #180, 1000.000000000000000 ) ;
#557 = ORIENTED_EDGE ( 'NONE', *, *, #726, .T. ) ;
#558 = COORDINATED_UNIVERSAL_TIME_OFFSET ( 8, 0, .AHEAD. ) ;
#559 = VERTEX_POINT ( 'NONE', #397 ) ;
#560 = DIRECTION ( 'NONE',  ( -0.0000000000000000000, -1.000000000000000000, -0.0000000000000000000 ) ) ;
#561 = CARTESIAN_POINT ( 'NONE',  ( 24.00000000000000700, 10.50000000000000900, 1.999999999999412000 ) ) ;
#562 = EDGE_CURVE ( 'NONE', #1048, #627, #1370, .T. ) ;
#563 = DIRECTION ( 'NONE',  ( 0.0000000000000000000, 0.0000000000000000000, 1.000000000000000000 ) ) ;
#564 = CC_DESIGN_APPROVAL ( #592, ( #1182 ) ) ;
#565 = DIRECTION ( 'NONE',  ( 0.0000000000000000000, 0.0000000000000000000, -1.000000000000000000 ) ) ;
#566 = LINE ( 'NONE', #984, #671 ) ;
#567 = EDGE_LOOP ( 'NONE', ( #1123, #1042 ) ) ;
#568 = EDGE_CURVE ( 'NONE', #1114, #983, #125, .T. ) ;
#569 = FACE_BOUND ( 'NONE', #1070, .T. ) ;
#570 = ADVANCED_FACE ( 'NONE', ( #519 ), #1083, .T. ) ;
#571 = ORIENTED_EDGE ( 'NONE', *, *, #854, .T. ) ;
#572 = AXIS2_PLACEMENT_3D ( 'NONE', #1043, #409, #1153 ) ;
#573 = ORIENTED_EDGE ( 'NONE', *, *, #134, .T. ) ;
#574 = CARTESIAN_POINT ( 'NONE',  ( 24.00000000000000700, 26.00000000000000400, -23.00000000000000700 ) ) ;
#575 = EDGE_LOOP ( 'NONE', ( #468, #746 ) ) ;
#576 = CARTESIAN_POINT ( 'NONE',  ( 24.00000000000000700, 25.99999999999999600, 25.00000000000000400 ) ) ;
#577 = DIRECTION ( 'NONE',  ( 0.0000000000000000000, 0.0000000000000000000, 1.000000000000000000 ) ) ;
#578 = DIRECTION ( 'NONE',  ( 0.0000000000000000000, 0.0000000000000000000, -1.000000000000000000 ) ) ;
#579 = EDGE_CURVE ( 'NONE', #622, #43, #140, .T. ) ;
#580 = CARTESIAN_POINT ( 'NONE',  ( -24.00000000000000000, 2.000000000000000000, -24.99999999999999600 ) ) ;
#581 = CARTESIAN_POINT ( 'NONE',  ( 0.0000000000000000000, 2.000000000000000000, 0.0000000000000000000 ) ) ;
#582 = ORIENTED_EDGE ( 'NONE', *, *, #355, .F. ) ;
#583 = ORIENTED_EDGE ( 'NONE', *, *, #813, .F. ) ;
#584 = VECTOR ( 'NONE', #153, 1000.000000000000000 ) ;
#585 = FACE_OUTER_BOUND ( 'NONE', #391, .T. ) ;
#586 = EDGE_CURVE ( 'NONE', #815, #156, #246, .T. ) ;
#587 = LINE ( 'NONE', #275, #556 ) ;
#588 = PERSON_AND_ORGANIZATION ( #971, #1192 ) ;
#589 = CARTESIAN_POINT ( 'NONE',  ( 24.00000000000000700, 48.00000000000000000, 23.00000000000000700 ) ) ;
#590 = PERSON_AND_ORGANIZATION ( #971, #1192 ) ;
#591 = DIRECTION ( 'NONE',  ( 0.0000000000000000000, -1.000000000000000000, 0.0000000000000000000 ) ) ;
#592 = APPROVAL ( #129, '未指定' ) ;
#593 = CARTESIAN_POINT ( 'NONE',  ( -22.00000000000000000, 0.0000000000000000000, -22.99999999999999600 ) ) ;
#594 = ADVANCED_FACE ( 'NONE', ( #1308 ), #280, .T. ) ;
#595 = EDGE_CURVE ( 'NONE', #18, #6, #277, .T. ) ;
#596 = CARTESIAN_POINT ( 'NONE',  ( 15.00000000000000500, 2.000000000000000000, -14.99999999999999600 ) ) ;
#597 = AXIS2_PLACEMENT_3D ( 'NONE', #998, #467, #479 ) ;
#598 = CARTESIAN_POINT ( 'NONE',  ( -23.99999999999999300, 45.50000000000001400, -2.694222958124176000E-015 ) ) ;
#599 = PLANE ( 'NONE',  #684 ) ;
#600 = ORIENTED_EDGE ( 'NONE', *, *, #526, .T. ) ;
#601 = VERTEX_POINT ( 'NONE', #812 ) ;
#602 = CYLINDRICAL_SURFACE ( 'NONE', #454, 1.999999999999412500 ) ;
#603 = CARTESIAN_POINT ( 'NONE',  ( 15.00000000000000700, 0.0000000000000000000, 15.00000000000000500 ) ) ;
#604 = LINE ( 'NONE', #283, #5 ) ;
#605 = VERTEX_POINT ( 'NONE', #484 ) ;
#606 = CARTESIAN_POINT ( 'NONE',  ( 24.00000000000000700, 50.00000000000000000, -23.00000000000000400 ) ) ;
#607 = EDGE_CURVE ( 'NONE', #1200, #43, #604, .T. ) ;
#608 = CALENDAR_DATE ( 2019, 17, 11 ) ;
#609 = EDGE_LOOP ( 'NONE', ( #750, #488, #1224, #740 ) ) ;
#610 = CARTESIAN_POINT ( 'NONE',  ( 24.00000000000000700, 48.00000000000000000, -23.00000000000000400 ) ) ;
#611 = ADVANCED_FACE ( 'NONE', ( #1103 ), #1372, .F. ) ;
#612 = CARTESIAN_POINT ( 'NONE',  ( 26.00000000000001100, 45.50000000000001400, -2.000000000000003100 ) ) ;
#613 = AXIS2_PLACEMENT_3D ( 'NONE', #843, #1154, #1276 ) ;
#614 = LINE ( 'NONE', #249, #12 ) ;
#615 = DIRECTION ( 'NONE',  ( 0.0000000000000000000, 0.0000000000000000000, -1.000000000000000000 ) ) ;
#616 = EDGE_CURVE ( 'NONE', #638, #698, #294, .T. ) ;
#617 = CARTESIAN_POINT ( 'NONE',  ( 26.00000000000001100, 48.00000000000000000, -23.00000000000000400 ) ) ;
#618 = FACE_OUTER_BOUND ( 'NONE', #819, .T. ) ;
#619 = ADVANCED_FACE ( 'NONE', ( #1189 ), #1118, .F. ) ;
#620 = PRODUCT_DEFINITION_SHAPE ( 'NONE', 'NONE',  #1108 ) ;
#621 = DIRECTION ( 'NONE',  ( 1.000000000000000000, -0.0000000000000000000, -0.0000000000000000000 ) ) ;
#622 = VERTEX_POINT ( 'NONE', #1355 ) ;
#623 = ORIENTED_EDGE ( 'NONE', *, *, #1011, .T. ) ;
#624 = DIRECTION ( 'NONE',  ( 0.0000000000000000000, 1.000000000000000000, 0.0000000000000000000 ) ) ;
#625 = VECTOR ( 'NONE', #1137, 1000.000000000000000 ) ;
#626 = ORIENTED_EDGE ( 'NONE', *, *, #860, .T. ) ;
#627 = VERTEX_POINT ( 'NONE', #273 ) ;
#628 = CYLINDRICAL_SURFACE ( 'NONE', #1234, 15.00000000000000000 ) ;
#629 = AXIS2_PLACEMENT_3D ( 'NONE', #394, #700, #493 ) ;
#630 = CARTESIAN_POINT ( 'NONE',  ( 26.00000000000001100, 10.50000000000000900, -1.999999999999412900 ) ) ;
#631 = ORIENTED_EDGE ( 'NONE', *, *, #1275, .T. ) ;
#632 = CARTESIAN_POINT ( 'NONE',  ( -23.99999999999999300, 2.000000000000000000, 25.00000000000000400 ) ) ;
#633 = CYLINDRICAL_SURFACE ( 'NONE', #905, 2.000000000000001800 ) ;
#634 = DIRECTION ( 'NONE',  ( -1.000000000000000000, 0.0000000000000000000, 0.0000000000000000000 ) ) ;
#635 = EDGE_CURVE ( 'NONE', #1018, #759, #521, .T. ) ;
#636 = CARTESIAN_POINT ( 'NONE',  ( 0.0000000000000000000, 0.0000000000000000000, -25.00000000000000000 ) ) ;
#637 = DIRECTION ( 'NONE',  ( -0.0000000000000000000, 0.0000000000000000000, 1.000000000000000000 ) ) ;
#638 = VERTEX_POINT ( 'NONE', #921 ) ;
#639 = ORIENTED_EDGE ( 'NONE', *, *, #1304, .F. ) ;
#640 = SECURITY_CLASSIFICATION ( '', '', #1076 ) ;
#641 = ORIENTED_EDGE ( 'NONE', *, *, #1055, .T. ) ;
#642 = DIRECTION ( 'NONE',  ( 1.000000000000000000, -0.0000000000000000000, -0.0000000000000000000 ) ) ;
#643 = VERTEX_POINT ( 'NONE', #906 ) ;
#644 = LINE ( 'NONE', #1263, #1157 ) ;
#645 = CARTESIAN_POINT ( 'NONE',  ( -14.99999999999999500, 0.0000000000000000000, 17.50000000000000400 ) ) ;
#646 = EDGE_CURVE ( 'NONE', #759, #1354, #1271, .T. ) ;
#647 = ORIENTED_EDGE ( 'NONE', *, *, #472, .T. ) ;
#648 = AXIS2_PLACEMENT_3D ( 'NONE', #123, #1280, #1174 ) ;
#649 = LINE ( 'NONE', #1105, #1073 ) ;
#650 = LINE ( 'NONE', #827, #257 ) ;
#651 = CARTESIAN_POINT ( 'NONE',  ( 24.00000000000000700, 10.50000000000000900, -5.510910596162892300E-016 ) ) ;
#652 = EDGE_CURVE ( 'NONE', #1063, #901, #178, .T. ) ;
#653 = ORIENTED_EDGE ( 'NONE', *, *, #1332, .T. ) ;
#654 = CARTESIAN_POINT ( 'NONE',  ( 0.0000000000000000000, 0.0000000000000000000, 0.0000000000000000000 ) ) ;
#655 = PLANE ( 'NONE',  #1309 ) ;
#656 = ORIENTED_EDGE ( 'NONE', *, *, #396, .F. ) ;
#657 = VERTEX_POINT ( 'NONE', #97 ) ;
#658 = DATE_TIME_ROLE ( 'classification_date' ) ;
#659 = VECTOR ( 'NONE', #336, 1000.000000000000000 ) ;
#660 = CARTESIAN_POINT ( 'NONE',  ( 15.00000000000000500, 2.000000000000000000, -14.99999999999999600 ) ) ;
#661 = EDGE_CURVE ( 'NONE', #471, #728, #1017, .T. ) ;
#662 = DIRECTION ( 'NONE',  ( 1.445602896647339400E-016, 0.0000000000000000000, 1.000000000000000000 ) ) ;
#663 = DIRECTION ( 'NONE',  ( 0.0000000000000000000, 0.0000000000000000000, 1.000000000000000000 ) ) ;
#664 = VECTOR ( 'NONE', #591, 1000.000000000000000 ) ;
#665 = AXIS2_PLACEMENT_3D ( 'NONE', #418, #637, #1057 ) ;
#666 = CARTESIAN_POINT ( 'NONE',  ( -23.99999999999999300, 27.99999999999970500, 17.49999999999975100 ) ) ;
#667 = CARTESIAN_POINT ( 'NONE',  ( 1.836970198721029600E-015, 2.000000000000000000, 15.00000000000000000 ) ) ;
#668 = DIRECTION ( 'NONE',  ( 0.0000000000000000000, 0.0000000000000000000, 1.000000000000000000 ) ) ;
#669 = ORIENTED_EDGE ( 'NONE', *, *, #1215, .T. ) ;
#670 = DIRECTION ( 'NONE',  ( 0.0000000000000000000, 0.0000000000000000000, -1.000000000000000000 ) ) ;
#671 = VECTOR ( 'NONE', #1312, 1000.000000000000000 ) ;
#672 = VERTEX_POINT ( 'NONE', #1269 ) ;
#673 = AXIS2_PLACEMENT_3D ( 'NONE', #82, #163, #1350 ) ;
#674 = ORIENTED_EDGE ( 'NONE', *, *, #255, .F. ) ;
#675 = VECTOR ( 'NONE', #92, 1000.000000000000000 ) ;
#676 = VERTEX_POINT ( 'NONE', #1254 ) ;
#677 = DIRECTION ( 'NONE',  ( 0.0000000000000000000, 0.0000000000000000000, 1.000000000000000000 ) ) ;
#678 = ORIENTED_EDGE ( 'NONE', *, *, #579, .F. ) ;
#679 = LINE ( 'NONE', #522, #1293 ) ;
#681 = ADVANCED_FACE ( 'NONE', ( #1173 ), #210, .F. ) ;
#680 = ORIENTED_EDGE ( 'NONE', *, *, #1126, .T. ) ;
#682 = CARTESIAN_POINT ( 'NONE',  ( -23.99999999999999300, 2.000000000000000000, 23.00000000000000400 ) ) ;
#683 = ORIENTED_EDGE ( 'NONE', *, *, #1281, .F. ) ;
#684 = AXIS2_PLACEMENT_3D ( 'NONE', #59, #714, #1125 ) ;
#685 = CARTESIAN_POINT ( 'NONE',  ( 26.00000000000001100, 50.00000000000000000, -24.99999999999999600 ) ) ;
#686 = ADVANCED_FACE ( 'NONE', ( #1208 ), #732, .F. ) ;
#687 = AXIS2_PLACEMENT_3D ( 'NONE', #31, #1303, #1213 ) ;
#688 = CARTESIAN_POINT ( 'NONE',  ( 22.00000000000000700, 2.000000000000000000, -23.00000000000000700 ) ) ;
#689 = ORIENTED_EDGE ( 'NONE', *, *, #1225, .F. ) ;
#690 = EDGE_LOOP ( 'NONE', ( #28, #81, #155, #381 ) ) ;
#691 = DIRECTION ( 'NONE',  ( -0.0000000000000000000, -1.000000000000000000, -0.0000000000000000000 ) ) ;
#692 = ORIENTED_EDGE ( 'NONE', *, *, #146, .T. ) ;
#693 = CARTESIAN_POINT ( 'NONE',  ( 26.00000000000001100, 45.50000000000001400, -2.694222958124176000E-015 ) ) ;
#694 = LINE ( 'NONE', #353, #747 ) ;
#695 = CARTESIAN_POINT ( 'NONE',  ( -23.99999999999999300, 28.00000000000001100, -2.694222958124176000E-015 ) ) ;
#696 = AXIS2_PLACEMENT_3D ( 'NONE', #1362, #830, #722 ) ;
#697 = LINE ( 'NONE', #1130, #1232 ) ;
#698 = VERTEX_POINT ( 'NONE', #305 ) ;
#699 = FACE_OUTER_BOUND ( 'NONE', #40, .T. ) ;
#700 = DIRECTION ( 'NONE',  ( -0.0000000000000000000, -1.000000000000000000, -0.0000000000000000000 ) ) ;
#701 = ORIENTED_EDGE ( 'NONE', *, *, #646, .F. ) ;
#702 = VECTOR ( 'NONE', #288, 1000.000000000000000 ) ;
#703 = ORIENTED_EDGE ( 'NONE', *, *, #1383, .F. ) ;
#704 = EDGE_CURVE ( 'NONE', #901, #527, #802, .T. ) ;
#705 = FACE_OUTER_BOUND ( 'NONE', #1014, .T. ) ;
#706 = DIRECTION ( 'NONE',  ( 0.0000000000000000000, 0.0000000000000000000, -1.000000000000000000 ) ) ;
#707 = CIRCLE ( 'NONE', #1212, 2.500000000000000400 ) ;
#708 = CARTESIAN_POINT ( 'NONE',  ( 24.00000000000000700, 25.99999999999999600, 23.00000000000000700 ) ) ;
#709 = ORIENTED_EDGE ( 'NONE', *, *, #74, .F. ) ;
#710 = CC_DESIGN_APPROVAL ( #786, ( #640 ) ) ;
#711 = DIRECTION ( 'NONE',  ( 1.000000000000000000, -0.0000000000000000000, -0.0000000000000000000 ) ) ;
#712 = LINE ( 'NONE', #1050, #1041 ) ;
#713 = EDGE_CURVE ( 'NONE', #962, #605, #712, .T. ) ;
#714 = DIRECTION ( 'NONE',  ( 1.445602896647339400E-016, 0.0000000000000000000, 1.000000000000000000 ) ) ;
#715 = FACE_OUTER_BOUND ( 'NONE', #1112, .T. ) ;
#716 = ADVANCED_FACE ( 'NONE', ( #491 ), #1144, .F. ) ;
#717 = AXIS2_PLACEMENT_3D ( 'NONE', #593, #382, #809 ) ;
#718 = DIRECTION ( 'NONE',  ( 0.0000000000000000000, 1.000000000000000000, -0.0000000000000000000 ) ) ;
#719 = VERTEX_POINT ( 'NONE', #413 ) ;
#720 = VERTEX_POINT ( 'NONE', #525 ) ;
#721 = CIRCLE ( 'NONE', #648, 2.000000000000001800 ) ;
#722 = DIRECTION ( 'NONE',  ( 0.0000000000000000000, 0.0000000000000000000, -1.000000000000000000 ) ) ;
#723 = ADVANCED_FACE ( 'NONE', ( #428 ), #369, .F. ) ;
#724 = ORIENTED_EDGE ( 'NONE', *, *, #1246, .T. ) ;
#725 = CARTESIAN_POINT ( 'NONE',  ( 15.00000000000000500, 2.000000000000000000, -17.49999999999999600 ) ) ;
#726 = EDGE_CURVE ( 'NONE', #1354, #299, #1261, .T. ) ;
#727 = DATE_AND_TIME ( #1119, #347 ) ;
#728 = VERTEX_POINT ( 'NONE', #85 ) ;
#729 = MANIFOLD_SOLID_BREP ( '圆角1', #922 ) ;
#730 = ORIENTED_EDGE ( 'NONE', *, *, #426, .F. ) ;
#731 = DIRECTION ( 'NONE',  ( 0.7071067811865474600, 0.7071067811865474600, 0.0000000000000000000 ) ) ;
#732 = CYLINDRICAL_SURFACE ( 'NONE', #552, 15.00000000000000000 ) ;
#733 = DIRECTION ( 'NONE',  ( -1.000000000000000000, 0.0000000000000000000, 0.0000000000000000000 ) ) ;
#734 = EDGE_CURVE ( 'NONE', #601, #157, #532, .T. ) ;
#735 = CARTESIAN_POINT ( 'NONE',  ( 24.00000000000000700, 48.00000000000000000, 25.00000000000000400 ) ) ;
#736 = DIRECTION ( 'NONE',  ( 0.0000000000000000000, 1.000000000000000000, 0.0000000000000000000 ) ) ;
#737 = VERTEX_POINT ( 'NONE', #929 ) ;
#738 = AXIS2_PLACEMENT_3D ( 'NONE', #666, #238, #35 ) ;
#739 = LINE ( 'NONE', #128, #1235 ) ;
#740 = ORIENTED_EDGE ( 'NONE', *, *, #289, .T. ) ;
#741 = CARTESIAN_POINT ( 'NONE',  ( 24.00000000000000700, 28.00000000000044400, -15.50000000000025000 ) ) ;
#742 = ORIENTED_EDGE ( 'NONE', *, *, #379, .T. ) ;
#743 = DIRECTION ( 'NONE',  ( 0.0000000000000000000, 0.0000000000000000000, -1.000000000000000000 ) ) ;
#744 = EDGE_CURVE ( 'NONE', #852, #18, #1244, .T. ) ;
#745 = DIRECTION ( 'NONE',  ( 0.0000000000000000000, 1.000000000000000000, 0.0000000000000000000 ) ) ;
#746 = ORIENTED_EDGE ( 'NONE', *, *, #146, .F. ) ;
#747 = VECTOR ( 'NONE', #964, 1000.000000000000000 ) ;
#748 = AXIS2_PLACEMENT_3D ( 'NONE', #926, #733, #195 ) ;
#749 = DIRECTION ( 'NONE',  ( 1.000000000000000000, -0.0000000000000000000, -0.0000000000000000000 ) ) ;
#750 = ORIENTED_EDGE ( 'NONE', *, *, #1061, .T. ) ;
#751 = CARTESIAN_POINT ( 'NONE',  ( -14.99999999999999500, 0.0000000000000000000, 12.50000000000000400 ) ) ;
#752 = LINE ( 'NONE', #853, #1021 ) ;
#753 = CARTESIAN_POINT ( 'NONE',  ( 0.0000000000000000000, 2.000000000000000000, -15.00000000000000000 ) ) ;
#754 = VECTOR ( 'NONE', #948, 1000.000000000000000 ) ;
#755 = EDGE_CURVE ( 'NONE', #759, #1018, #219, .T. ) ;
#756 = ORIENTED_EDGE ( 'NONE', *, *, #616, .T. ) ;
#757 = DIRECTION ( 'NONE',  ( 0.0000000000000000000, 0.0000000000000000000, 1.000000000000000000 ) ) ;
#758 =( GEOMETRIC_REPRESENTATION_CONTEXT ( 3 ) GLOBAL_UNCERTAINTY_ASSIGNED_CONTEXT ( ( #1202 ) ) GLOBAL_UNIT_ASSIGNED_CONTEXT ( ( #963, #1080, #1298 ) ) REPRESENTATION_CONTEXT ( 'NONE', 'WORKASPACE' ) );
#759 = VERTEX_POINT ( 'NONE', #1259 ) ;
#760 = MECHANICAL_CONTEXT ( 'NONE', #1175, 'mechanical' ) ;
#761 = ORIENTED_EDGE ( 'NONE', *, *, #607, .T. ) ;
#762 = PERSON_AND_ORGANIZATION ( #971, #1192 ) ;
#763 = CARTESIAN_POINT ( 'NONE',  ( 15.00000000000000700, 2.000000000000000000, 15.00000000000000500 ) ) ;
#764 = EDGE_CURVE ( 'NONE', #719, #471, #994, .T. ) ;
#765 = ORIENTED_EDGE ( 'NONE', *, *, #910, .T. ) ;
#766 = CIRCLE ( 'NONE', #116, 2.000000000000000400 ) ;
#767 = APPROVAL_ROLE ( '' ) ;
#768 = DIRECTION ( 'NONE',  ( -1.000000000000000000, 0.0000000000000000000, 0.0000000000000000000 ) ) ;
#769 = DIRECTION ( 'NONE',  ( -1.445602896647339200E-016, 0.0000000000000000000, -1.000000000000000000 ) ) ;
#770 = DIRECTION ( 'NONE',  ( 0.0000000000000000000, 1.000000000000000000, 0.0000000000000000000 ) ) ;
#771 = AXIS2_PLACEMENT_3D ( 'NONE', #534, #333, #1181 ) ;
#772 = DIRECTION ( 'NONE',  ( 0.0000000000000000000, 0.0000000000000000000, -1.000000000000000000 ) ) ;
#773 = ORIENTED_EDGE ( 'NONE', *, *, #894, .T. ) ;
#774 = DIRECTION ( 'NONE',  ( 0.0000000000000000000, 0.0000000000000000000, 1.000000000000000000 ) ) ;
#775 = FACE_OUTER_BOUND ( 'NONE', #329, .T. ) ;
#776 = CIRCLE ( 'NONE', #717, 1.999999999999998200 ) ;
#777 = ORIENTED_EDGE ( 'NONE', *, *, #289, .F. ) ;
#778 = CARTESIAN_POINT ( 'NONE',  ( 15.00000000000000500, 2.000000000000000000, -14.99999999999999600 ) ) ;
#779 = APPROVAL_DATE_TIME ( #60, #592 ) ;
#780 = CARTESIAN_POINT ( 'NONE',  ( 26.00000000000001100, 45.50000000000001400, -2.694222958124176000E-015 ) ) ;
#781 = LINE ( 'NONE', #121, #145 ) ;
#782 = ORIENTED_EDGE ( 'NONE', *, *, #726, .F. ) ;
#783 = FACE_BOUND ( 'NONE', #829, .T. ) ;
#784 = EDGE_CURVE ( 'NONE', #983, #1160, #1258, .T. ) ;
#785 = CARTESIAN_POINT ( 'NONE',  ( 26.00000000000001100, 28.00000000000001100, -13.00000000000000400 ) ) ;
#786 = APPROVAL ( #549, '未指定' ) ;
#787 = DIRECTION ( 'NONE',  ( -1.000000000000000000, 0.0000000000000000000, 0.0000000000000000000 ) ) ;
#788 = DIRECTION ( 'NONE',  ( -1.000000000000000000, 0.0000000000000000000, 0.0000000000000000000 ) ) ;
#789 = DIRECTION ( 'NONE',  ( -0.0000000000000000000, -1.000000000000000000, -0.0000000000000000000 ) ) ;
#790 = AXIS2_PLACEMENT_3D ( 'NONE', #1346, #907, #293 ) ;
#791 = ADVANCED_FACE ( 'NONE', ( #937 ), #839, .F. ) ;
#792 = CARTESIAN_POINT ( 'NONE',  ( -23.99999999999999300, 10.50000000000000900, -5.510910596162892300E-016 ) ) ;
#793 = VERTEX_POINT ( 'NONE', #753 ) ;
#794 = DIRECTION ( 'NONE',  ( 0.0000000000000000000, 1.000000000000000000, -0.0000000000000000000 ) ) ;
#795 = ORIENTED_EDGE ( 'NONE', *, *, #485, .F. ) ;
#796 = DIRECTION ( 'NONE',  ( 1.000000000000000000, -0.0000000000000000000, -0.0000000000000000000 ) ) ;
#797 = ORIENTED_EDGE ( 'NONE', *, *, #1159, .T. ) ;
#798 = DIRECTION ( 'NONE',  ( 1.000000000000000000, 0.0000000000000000000, -0.0000000000000000000 ) ) ;
#799 = VERTEX_POINT ( 'NONE', #859 ) ;
#800 = CARTESIAN_POINT ( 'NONE',  ( -23.99999999999999300, 28.00000000000044400, -19.50000000000025200 ) ) ;
#801 = EDGE_CURVE ( 'NONE', #58, #393, #162, .T. ) ;
#802 = CIRCLE ( 'NONE', #291, 2.000000000000001800 ) ;
#803 = CARTESIAN_POINT ( 'NONE',  ( -24.00000000000000000, 2.000000000000000000, -24.99999999999999600 ) ) ;
#804 = DIRECTION ( 'NONE',  ( 0.0000000000000000000, 1.000000000000000000, 0.0000000000000000000 ) ) ;
#805 = VECTOR ( 'NONE', #928, 1000.000000000000000 ) ;
#806 = DIRECTION ( 'NONE',  ( 0.0000000000000000000, 0.0000000000000000000, 1.000000000000000000 ) ) ;
#807 = ORIENTED_EDGE ( 'NONE', *, *, #364, .T. ) ;
#808 = ORIENTED_EDGE ( 'NONE', *, *, #1348, .F. ) ;
#809 = DIRECTION ( 'NONE',  ( 0.0000000000000000000, 0.0000000000000000000, 1.000000000000000000 ) ) ;
#810 = AXIS2_PLACEMENT_3D ( 'NONE', #868, #770, #131 ) ;
#811 = CIRCLE ( 'NONE', #399, 2.500000000000000400 ) ;
#812 = CARTESIAN_POINT ( 'NONE',  ( 15.00000000000000500, 0.0000000000000000000, -12.49999999999999500 ) ) ;
#813 = EDGE_CURVE ( 'NONE', #980, #1243, #1177, .T. ) ;
#814 = CARTESIAN_POINT ( 'NONE',  ( 24.00000000000000700, 4.000000000000000000, 23.00000000000000700 ) ) ;
#815 = VERTEX_POINT ( 'NONE', #2 ) ;
#816 = DIRECTION ( 'NONE',  ( 1.000000000000000000, -0.0000000000000000000, -0.0000000000000000000 ) ) ;
#817 = EDGE_LOOP ( 'NONE', ( #292, #431 ) ) ;
#818 = EDGE_CURVE ( 'NONE', #309, #234, #752, .T. ) ;
#819 = EDGE_LOOP ( 'NONE', ( #1012, #1155, #1267, #889, #808, #600 ) ) ;
#820 = LOCAL_TIME ( 19, 43, 5.000000000000000000, #1374 ) ;
#821 = CARTESIAN_POINT ( 'NONE',  ( 15.00000000000000500, 0.0000000000000000000, -17.49999999999999600 ) ) ;
#822 = EDGE_LOOP ( 'NONE', ( #1343, #245 ) ) ;
#823 = ADVANCED_FACE ( 'NONE', ( #1344 ), #1000, .F. ) ;
#824 = DIRECTION ( 'NONE',  ( 0.0000000000000000000, 0.0000000000000000000, 1.000000000000000000 ) ) ;
#825 = DIRECTION ( 'NONE',  ( 0.0000000000000000000, 0.0000000000000000000, 1.000000000000000000 ) ) ;
#826 = VECTOR ( 'NONE', #796, 1000.000000000000000 ) ;
#827 = CARTESIAN_POINT ( 'NONE',  ( 22.00000000000000700, 2.000000000000000000, -23.00000000000000400 ) ) ;
#828 = ORIENTED_EDGE ( 'NONE', *, *, #112, .T. ) ;
#829 = EDGE_LOOP ( 'NONE', ( #109, #914 ) ) ;
#830 = DIRECTION ( 'NONE',  ( -0.0000000000000000000, -1.000000000000000000, -0.0000000000000000000 ) ) ;
#831 = LINE ( 'NONE', #38, #22 ) ;
#832 = ORIENTED_EDGE ( 'NONE', *, *, #586, .F. ) ;
#833 = DIRECTION ( 'NONE',  ( -0.0000000000000000000, -1.000000000000000000, -0.0000000000000000000 ) ) ;
#834 = AXIS2_PLACEMENT_3D ( 'NONE', #1310, #787, #677 ) ;
#835 = VECTOR ( 'NONE', #169, 1000.000000000000000 ) ;
#836 = DATE_AND_TIME ( #1340, #820 ) ;
#837 = SHAPE_DEFINITION_REPRESENTATION ( #620, #969 ) ;
#838 = DIRECTION ( 'NONE',  ( -0.0000000000000000000, -1.000000000000000000, -0.0000000000000000000 ) ) ;
#839 = CYLINDRICAL_SURFACE ( 'NONE', #1384, 2.499999999999998700 ) ;
#840 = CARTESIAN_POINT ( 'NONE',  ( 26.00000000000001100, 48.00000000000000000, -24.99999999999999600 ) ) ;
#841 = DIRECTION ( 'NONE',  ( 1.000000000000000000, -0.0000000000000000000, -0.0000000000000000000 ) ) ;
#842 = EDGE_CURVE ( 'NONE', #88, #815, #432, .T. ) ;
#843 = CARTESIAN_POINT ( 'NONE',  ( 26.00000000000001100, 27.99999999999970500, 17.49999999999975100 ) ) ;
#844 = LINE ( 'NONE', #667, #754 ) ;
#845 = CARTESIAN_POINT ( 'NONE',  ( 26.00000000000001100, 50.00000000000000000, -24.99999999999999600 ) ) ;
#846 = CC_DESIGN_SECURITY_CLASSIFICATION ( #640, ( #1182 ) ) ;
#847 = FACE_BOUND ( 'NONE', #447, .T. ) ;
#848 = ORIENTED_EDGE ( 'NONE', *, *, #16, .T. ) ;
#849 = PERSON_AND_ORGANIZATION_ROLE ( 'creator' ) ;
#850 = VECTOR ( 'NONE', #48, 1000.000000000000000 ) ;
#851 = VERTEX_POINT ( 'NONE', #645 ) ;
#852 = VERTEX_POINT ( 'NONE', #857 ) ;
#853 = CARTESIAN_POINT ( 'NONE',  ( -23.99999999999999300, 45.50000000000001400, -2.000000000000003100 ) ) ;
#854 = EDGE_CURVE ( 'NONE', #962, #912, #1060, .T. ) ;
#855 = LOCAL_TIME ( 19, 43, 5.000000000000000000, #867 ) ;
#856 = AXIS2_PLACEMENT_3D ( 'NONE', #337, #425, #8 ) ;
#857 = CARTESIAN_POINT ( 'NONE',  ( 26.00000000000001100, 50.00000000000000000, -23.00000000000000400 ) ) ;
#858 = VECTOR ( 'NONE', #303, 1000.000000000000000 ) ;
#859 = CARTESIAN_POINT ( 'NONE',  ( -22.00000000000000000, 0.0000000000000000000, -24.99999999999999600 ) ) ;
#860 = EDGE_CURVE ( 'NONE', #1172, #1327, #262, .T. ) ;
#861 = CARTESIAN_POINT ( 'NONE',  ( 0.0000000000000000000, 0.0000000000000000000, -15.00000000000000000 ) ) ;
#862 = EDGE_LOOP ( 'NONE', ( #1302, #1001, #947, #1066 ) ) ;
#863 = DIRECTION ( 'NONE',  ( 0.7071067811865474600, 0.7071067811865474600, 0.0000000000000000000 ) ) ;
#864 = EDGE_LOOP ( 'NONE', ( #338, #1005, #1129, #1270 ) ) ;
#865 = APPROVAL_ROLE ( '' ) ;
#866 = EDGE_LOOP ( 'NONE', ( #656, #207, #626, #73 ) ) ;
#867 = COORDINATED_UNIVERSAL_TIME_OFFSET ( 8, 0, .AHEAD. ) ;
#868 = CARTESIAN_POINT ( 'NONE',  ( 0.0000000000000000000, 0.0000000000000000000, 0.0000000000000000000 ) ) ;
#869 = AXIS2_PLACEMENT_3D ( 'NONE', #918, #187, #1111 ) ;
#870 = ORIENTED_EDGE ( 'NONE', *, *, #1178, .T. ) ;
#871 = FACE_BOUND ( 'NONE', #482, .T. ) ;
#872 = CARTESIAN_POINT ( 'NONE',  ( 15.00000000000000500, 0.0000000000000000000, -14.99999999999999600 ) ) ;
#873 = CARTESIAN_POINT ( 'NONE',  ( -14.99999999999999500, 0.0000000000000000000, 15.00000000000000500 ) ) ;
#874 = DIRECTION ( 'NONE',  ( 0.0000000000000000000, 0.0000000000000000000, 1.000000000000000000 ) ) ;
#875 = CARTESIAN_POINT ( 'NONE',  ( 24.00000000000000700, 45.50000000000001400, -2.000000000000003100 ) ) ;
#876 = DIRECTION ( 'NONE',  ( -1.000000000000000000, 0.0000000000000000000, -0.0000000000000000000 ) ) ;
#877 = EDGE_CURVE ( 'NONE', #883, #719, #721, .T. ) ;
#878 = FACE_OUTER_BOUND ( 'NONE', #1211, .T. ) ;
#879 = DIRECTION ( 'NONE',  ( 0.0000000000000000000, 1.000000000000000000, -0.0000000000000000000 ) ) ;
#880 = AXIS2_PLACEMENT_3D ( 'NONE', #160, #1319, #900 ) ;
#881 = ADVANCED_FACE ( 'NONE', ( #1284 ), #110, .F. ) ;
#882 = DIRECTION ( 'NONE',  ( 0.0000000000000000000, 0.0000000000000000000, 1.000000000000000000 ) ) ;
#883 = VERTEX_POINT ( 'NONE', #1185 ) ;
#884 = LINE ( 'NONE', #135, #388 ) ;
#885 = CIRCLE ( 'NONE', #480, 2.499999999999996900 ) ;
#886 = ORIENTED_EDGE ( 'NONE', *, *, #460, .T. ) ;
#887 = DIRECTION ( 'NONE',  ( 0.0000000000000000000, 0.0000000000000000000, -1.000000000000000000 ) ) ;
#888 = CIRCLE ( 'NONE', #464, 13.00000000000000000 ) ;
#889 = ORIENTED_EDGE ( 'NONE', *, *, #877, .T. ) ;
#890 = DIRECTION ( 'NONE',  ( 1.000000000000000000, 0.0000000000000000000, -1.387778780781445700E-016 ) ) ;
#892 = ADVANCED_FACE ( 'NONE', ( #1049 ), #1029, .T. ) ;
#891 = ORIENTED_EDGE ( 'NONE', *, *, #222, .T. ) ;
#893 = CARTESIAN_POINT ( 'NONE',  ( 26.00000000000001100, 27.99999999999970500, 17.49999999999975100 ) ) ;
#894 = EDGE_CURVE ( 'NONE', #1360, #657, #177, .T. ) ;
#895 = DIRECTION ( 'NONE',  ( -1.445602896647339200E-016, 0.0000000000000000000, -1.000000000000000000 ) ) ;
#896 = AXIS2_PLACEMENT_3D ( 'NONE', #654, #335, #976 ) ;
#897 = EDGE_CURVE ( 'NONE', #326, #139, #469, .T. ) ;
#898 = DIRECTION ( 'NONE',  ( 0.0000000000000000000, 0.0000000000000000000, -1.000000000000000000 ) ) ;
#899 = ORIENTED_EDGE ( 'NONE', *, *, #607, .F. ) ;
#900 = DIRECTION ( 'NONE',  ( 0.0000000000000000000, 0.0000000000000000000, 1.000000000000000000 ) ) ;
#901 = VERTEX_POINT ( 'NONE', #354 ) ;
#902 = ORIENTED_EDGE ( 'NONE', *, *, #1149, .F. ) ;
#903 = FACE_BOUND ( 'NONE', #822, .T. ) ;
#904 = PLANE ( 'NONE',  #317 ) ;
#905 = AXIS2_PLACEMENT_3D ( 'NONE', #935, #1145, #143 ) ;
#906 = CARTESIAN_POINT ( 'NONE',  ( -14.99999999999999500, 2.000000000000000000, -17.49999999999999600 ) ) ;
#907 = DIRECTION ( 'NONE',  ( -1.000000000000000000, 0.0000000000000000000, 0.0000000000000000000 ) ) ;
#908 = CARTESIAN_POINT ( 'NONE',  ( 0.0000000000000000000, 2.000000000000000000, -15.00000000000000000 ) ) ;
#909 = ORIENTED_EDGE ( 'NONE', *, *, #595, .T. ) ;
#910 = EDGE_CURVE ( 'NONE', #414, #737, #436, .T. ) ;
#911 = CYLINDRICAL_SURFACE ( 'NONE', #1045, 1.999999999999998200 ) ;
#912 = VERTEX_POINT ( 'NONE', #1198 ) ;
#913 = FACE_BOUND ( 'NONE', #136, .T. ) ;
#914 = ORIENTED_EDGE ( 'NONE', *, *, #734, .T. ) ;
#915 = CIRCLE ( 'NONE', #810, 15.00000000000000000 ) ;
#916 = CARTESIAN_POINT ( 'NONE',  ( 24.00000000000000700, 2.000000000000000000, -23.00000000000000700 ) ) ;
#917 = EDGE_LOOP ( 'NONE', ( #975, #1321, #1156, #419 ) ) ;
#918 = CARTESIAN_POINT ( 'NONE',  ( 15.00000000000000700, 2.000000000000000000, 15.00000000000000500 ) ) ;
#919 = ADVANCED_FACE ( 'NONE', ( #705 ), #1252, .F. ) ;
#920 = FACE_OUTER_BOUND ( 'NONE', #1188, .T. ) ;
#921 = CARTESIAN_POINT ( 'NONE',  ( 26.00000000000001100, 28.00000000000044400, -19.50000000000025200 ) ) ;
#922 = CLOSED_SHELL ( 'NONE', ( #1345, #287, #919, #495, #619, #791, #723, #1024, #716, #686, #1248, #172, #1026, #681, #457, #1146, #1138, #881, #995, #611, #1097, #77, #486, #503, #68, #1238, #462, #368, #1318, #1358, #594, #41, #823, #264, #570, #892, #301, #253 ) ) ;
#923 = DIRECTION ( 'NONE',  ( -1.000000000000000000, 0.0000000000000000000, 0.0000000000000000000 ) ) ;
#924 = AXIS2_PLACEMENT_3D ( 'NONE', #164, #816, #1342 ) ;
#925 = CIRCLE ( 'NONE', #120, 1.999999999999998200 ) ;
#926 = CARTESIAN_POINT ( 'NONE',  ( 24.00000000000000700, 10.50000000000000900, -5.510910596162892300E-016 ) ) ;
#927 = LINE ( 'NONE', #908, #1279 ) ;
#928 = DIRECTION ( 'NONE',  ( -0.0000000000000000000, -1.000000000000000000, -0.0000000000000000000 ) ) ;
#929 = CARTESIAN_POINT ( 'NONE',  ( 15.00000000000000500, 2.000000000000000000, -17.49999999999999600 ) ) ;
#930 = EDGE_LOOP ( 'NONE', ( #1072, #450, #357, #557 ) ) ;
#931 = ORIENTED_EDGE ( 'NONE', *, *, #755, .T. ) ;
#932 = EDGE_CURVE ( 'NONE', #728, #883, #966, .T. ) ;
#933 = CARTESIAN_POINT ( 'NONE',  ( -0.9999999999999965600, 0.9999999999999965600, 23.00000000000000700 ) ) ;
#934 = ORIENTED_EDGE ( 'NONE', *, *, #119, .F. ) ;
#935 = CARTESIAN_POINT ( 'NONE',  ( 24.00000000000000700, 2.000000000000000000, 0.0000000000000000000 ) ) ;
#936 = CIRCLE ( 'NONE', #312, 13.00000000000000000 ) ;
#937 = FACE_OUTER_BOUND ( 'NONE', #553, .T. ) ;
#938 = EDGE_CURVE ( 'NONE', #299, #1354, #362, .T. ) ;
#939 = CARTESIAN_POINT ( 'NONE',  ( 24.00000000000000700, 2.000000000000000000, 25.00000000000000400 ) ) ;
#940 = AXIS2_PLACEMENT_3D ( 'NONE', #660, #1098, #670 ) ;
#941 = CARTESIAN_POINT ( 'NONE',  ( 26.00000000000001100, 10.50000000000000900, 1.999999999999412000 ) ) ;
#942 = CARTESIAN_POINT ( 'NONE',  ( 0.0000000000000000000, 2.000000000000000000, 0.0000000000000000000 ) ) ;
#943 = ORIENTED_EDGE ( 'NONE', *, *, #1246, .F. ) ;
#944 = ORIENTED_EDGE ( 'NONE', *, *, #1085, .T. ) ;
#945 = CARTESIAN_POINT ( 'NONE',  ( 1.055290114552557600E-014, 2.000000000000000000, -23.00000000000000000 ) ) ;
#946 = EDGE_CURVE ( 'NONE', #1243, #980, #915, .T. ) ;
#947 = ORIENTED_EDGE ( 'NONE', *, *, #595, .F. ) ;
#948 = DIRECTION ( 'NONE',  ( -0.0000000000000000000, -1.000000000000000000, -0.0000000000000000000 ) ) ;
#949 = VECTOR ( 'NONE', #297, 1000.000000000000000 ) ;
#950 = AXIS2_PLACEMENT_3D ( 'NONE', #1030, #1158, #1365 ) ;
#951 = DIRECTION ( 'NONE',  ( 0.0000000000000000000, 0.0000000000000000000, -1.000000000000000000 ) ) ;
#952 = EDGE_LOOP ( 'NONE', ( #582, #295, #870, #1127 ) ) ;
#953 = CIRCLE ( 'NONE', #1381, 2.000000000000001800 ) ;
#954 = DIRECTION ( 'NONE',  ( -0.0000000000000000000, 1.000000000000000000, -0.0000000000000000000 ) ) ;
#955 = VERTEX_POINT ( 'NONE', #252 ) ;
#956 = EDGE_LOOP ( 'NONE', ( #190, #550, #424, #902 ) ) ;
#957 = VECTOR ( 'NONE', #310, 1000.000000000000000 ) ;
#958 = FACE_OUTER_BOUND ( 'NONE', #361, .T. ) ;
#959 = EDGE_CURVE ( 'NONE', #395, #342, #888, .T. ) ;
#960 = DIRECTION ( 'NONE',  ( 0.0000000000000000000, -0.0000000000000000000, -1.000000000000000000 ) ) ;
#961 = AXIS2_PLACEMENT_3D ( 'NONE', #1217, #269, #42 ) ;
#962 = VERTEX_POINT ( 'NONE', #147 ) ;
#963 =( LENGTH_UNIT ( ) NAMED_UNIT ( * ) SI_UNIT ( .MILLI., .METRE. ) );
#964 = DIRECTION ( 'NONE',  ( -0.0000000000000000000, -1.000000000000000000, -0.0000000000000000000 ) ) ;
#965 = ORIENTED_EDGE ( 'NONE', *, *, #818, .T. ) ;
#966 = LINE ( 'NONE', #981, #1207 ) ;
#967 = ORIENTED_EDGE ( 'NONE', *, *, #1304, .T. ) ;
#968 = EDGE_CURVE ( 'NONE', #1151, #1100, #214, .T. ) ;
#969 = ADVANCED_BREP_SHAPE_REPRESENTATION ( '3508电机座', ( #729, #896 ), #758 ) ;
#970 = PERSON_AND_ORGANIZATION_ROLE ( 'design_supplier' ) ;
#971 = PERSON ( '未指定', '未指定', '未指定', ('未指定'), ('未指定'), ('未指定') ) ;
#972 = CARTESIAN_POINT ( 'NONE',  ( 0.0000000000000000000, 2.000000000000000000, 0.0000000000000000000 ) ) ;
#973 = CIRCLE ( 'NONE', #1059, 2.000000000000001800 ) ;
#974 = DIRECTION ( 'NONE',  ( 0.0000000000000000000, -1.000000000000000000, 0.0000000000000000000 ) ) ;
#975 = ORIENTED_EDGE ( 'NONE', *, *, #842, .F. ) ;
#976 = DIRECTION ( 'NONE',  ( 1.000000000000000000, 0.0000000000000000000, 0.0000000000000000000 ) ) ;
#977 = DIRECTION ( 'NONE',  ( 1.000000000000000000, 0.0000000000000000000, 0.0000000000000000000 ) ) ;
#978 = AXIS2_PLACEMENT_3D ( 'NONE', #205, #1033, #201 ) ;
#979 = DIRECTION ( 'NONE',  ( 0.7071067811865474600, 0.7071067811865475700, -1.022195611122249400E-016 ) ) ;
#980 = VERTEX_POINT ( 'NONE', #254 ) ;
#981 = CARTESIAN_POINT ( 'NONE',  ( -21.99999999999999300, 2.000000000000000000, 25.00000000000000400 ) ) ;
#982 = LINE ( 'NONE', #636, #320 ) ;
#983 = VERTEX_POINT ( 'NONE', #987 ) ;
#984 = CARTESIAN_POINT ( 'NONE',  ( -14.99999999999999500, 2.000000000000000000, 17.50000000000000400 ) ) ;
#985 = ORIENTED_EDGE ( 'NONE', *, *, #813, .T. ) ;
#986 = VECTOR ( 'NONE', #954, 1000.000000000000000 ) ;
#987 = CARTESIAN_POINT ( 'NONE',  ( 1.055290114552557600E-014, 2.000000000000000000, -23.00000000000000000 ) ) ;
#988 = EDGE_CURVE ( 'NONE', #6, #139, #614, .T. ) ;
#989 = ORIENTED_EDGE ( 'NONE', *, *, #36, .F. ) ;
#990 = LINE ( 'NONE', #1364, #161 ) ;
#991 = ORIENTED_EDGE ( 'NONE', *, *, #1231, .T. ) ;
#992 = DIRECTION ( 'NONE',  ( 0.0000000000000000000, 0.0000000000000000000, -1.000000000000000000 ) ) ;
#993 = FACE_BOUND ( 'NONE', #567, .T. ) ;
#994 = LINE ( 'NONE', #1264, #957 ) ;
#995 = ADVANCED_FACE ( 'NONE', ( #545 ), #508, .F. ) ;
#996 = CARTESIAN_POINT ( 'NONE',  ( -23.99999999999999300, 27.99999999999970500, 15.49999999999975000 ) ) ;
#997 = FACE_BOUND ( 'NONE', #1091, .T. ) ;
#998 = CARTESIAN_POINT ( 'NONE',  ( -23.99999999999999300, 45.50000000000001400, -2.694222958124176000E-015 ) ) ;
#999 = ORIENTED_EDGE ( 'NONE', *, *, #988, .T. ) ;
#1000 = CYLINDRICAL_SURFACE ( 'NONE', #78, 2.000000000000001800 ) ;
#1001 = ORIENTED_EDGE ( 'NONE', *, *, #988, .F. ) ;
#1002 = ORIENTED_EDGE ( 'NONE', *, *, #877, .F. ) ;
#1003 = CARTESIAN_POINT ( 'NONE',  ( 26.00000000000001100, 2.000000000000001800, 25.00000000000000400 ) ) ;
#1004 = LOCAL_TIME ( 19, 43, 5.000000000000000000, #1326 ) ;
#1005 = ORIENTED_EDGE ( 'NONE', *, *, #562, .T. ) ;
#1006 = CARTESIAN_POINT ( 'NONE',  ( 1.299235603361796100E-014, 2.000000000000000900, -25.00000000000000000 ) ) ;
#1007 = EDGE_CURVE ( 'NONE', #643, #1048, #1179, .T. ) ;
#1008 = ORIENTED_EDGE ( 'NONE', *, *, #854, .F. ) ;
#1009 = PLANE ( 'NONE',  #1170 ) ;
#1010 = CARTESIAN_POINT ( 'NONE',  ( 15.00000000000000700, 0.0000000000000000000, 17.50000000000000000 ) ) ;
#1011 = EDGE_CURVE ( 'NONE', #114, #1100, #332, .T. ) ;
#1012 = ORIENTED_EDGE ( 'NONE', *, *, #334, .F. ) ;
#1013 = CARTESIAN_POINT ( 'NONE',  ( 1.055290114552557600E-014, 2.000000000000000000, -23.00000000000000000 ) ) ;
#1014 = EDGE_LOOP ( 'NONE', ( #341, #122, #944, #1116 ) ) ;
#1015 = CARTESIAN_POINT ( 'NONE',  ( 24.00000000000000700, 50.00000000000000000, 23.00000000000000400 ) ) ;
#1016 = ORIENTED_EDGE ( 'NONE', *, *, #938, .F. ) ;
#1017 = CIRCLE ( 'NONE', #410, 2.000000000000001800 ) ;
#1018 = VERTEX_POINT ( 'NONE', #561 ) ;
#1019 = PERSON_AND_ORGANIZATION ( #971, #1192 ) ;
#1020 = ORIENTED_EDGE ( 'NONE', *, *, #1039, .T. ) ;
#1021 = VECTOR ( 'NONE', #841, 1000.000000000000000 ) ;
#1022 = AXIS2_PLACEMENT_3D ( 'NONE', #408, #1152, #743 ) ;
#1023 = DIRECTION ( 'NONE',  ( -0.0000000000000000000, -1.000000000000000000, -0.0000000000000000000 ) ) ;
#1024 = ADVANCED_FACE ( 'NONE', ( #46 ), #1220, .F. ) ;
#1025 = DIRECTION ( 'NONE',  ( -1.000000000000000000, 0.0000000000000000000, 0.0000000000000000000 ) ) ;
#1026 = ADVANCED_FACE ( 'NONE', ( #618, #1074, #458, #783, #993, #847 ), #142, .F. ) ;
#1027 = ORIENTED_EDGE ( 'NONE', *, *, #191, .F. ) ;
#1028 = ORIENTED_EDGE ( 'NONE', *, *, #1357, .T. ) ;
#1029 = CYLINDRICAL_SURFACE ( 'NONE', #771, 2.000000000000001800 ) ;
#1030 = CARTESIAN_POINT ( 'NONE',  ( 26.00000000000001100, 10.50000000000000900, -5.510910596162892300E-016 ) ) ;
#1031 = CYLINDRICAL_SURFACE ( 'NONE', #597, 2.000000000000000400 ) ;
#1032 = EDGE_LOOP ( 'NONE', ( #653, #543, #1274, #89 ) ) ;
#1033 = DIRECTION ( 'NONE',  ( 0.0000000000000000000, 1.000000000000000000, 0.0000000000000000000 ) ) ;
#1034 = PERSON_AND_ORGANIZATION ( #971, #1192 ) ;
#1035 = ORIENTED_EDGE ( 'NONE', *, *, #496, .T. ) ;
#1036 = LINE ( 'NONE', #315, #506 ) ;
#1037 = ORIENTED_EDGE ( 'NONE', *, *, #968, .F. ) ;
#1038 = VECTOR ( 'NONE', #322, 1000.000000000000000 ) ;
#1039 = EDGE_CURVE ( 'NONE', #676, #395, #537, .T. ) ;
#1040 = CARTESIAN_POINT ( 'NONE',  ( 24.00000000000000700, 4.000000000000000000, -23.00000000000000700 ) ) ;
#1041 = VECTOR ( 'NONE', #621, 1000.000000000000000 ) ;
#1042 = ORIENTED_EDGE ( 'NONE', *, *, #1239, .T. ) ;
#1043 = CARTESIAN_POINT ( 'NONE',  ( -14.99999999999999500, 0.0000000000000000000, -14.99999999999999800 ) ) ;
#1044 = CIRCLE ( 'NONE', #99, 2.500000000000000400 ) ;
#1045 = AXIS2_PLACEMENT_3D ( 'NONE', #247, #548, #33 ) ;
#1046 = CARTESIAN_POINT ( 'NONE',  ( 26.00000000000001100, 28.00000000000044400, -17.50000000000025200 ) ) ;
#1047 = VECTOR ( 'NONE', #1117, 1000.000000000000000 ) ;
#1048 = VERTEX_POINT ( 'NONE', #465 ) ;
#1049 = FACE_OUTER_BOUND ( 'NONE', #1240, .T. ) ;
#1050 = CARTESIAN_POINT ( 'NONE',  ( -23.99999999999999300, 27.99999999999970500, 19.49999999999975500 ) ) ;
#1051 = CARTESIAN_POINT ( 'NONE',  ( 15.00000000000000500, 2.000000000000000000, -12.49999999999999500 ) ) ;
#1052 = FACE_OUTER_BOUND ( 'NONE', #1377, .T. ) ;
#1053 = DIRECTION ( 'NONE',  ( 0.0000000000000000000, 0.0000000000000000000, 1.000000000000000000 ) ) ;
#1054 = ORIENTED_EDGE ( 'NONE', *, *, #704, .T. ) ;
#1055 = EDGE_CURVE ( 'NONE', #527, #559, #649, .T. ) ;
#1056 = CARTESIAN_POINT ( 'NONE',  ( -0.9999999999999965600, 0.9999999999999965600, 23.00000000000000700 ) ) ;
#1057 = DIRECTION ( 'NONE',  ( 1.000000000000000000, 0.0000000000000000000, 0.0000000000000000000 ) ) ;
#1058 = CARTESIAN_POINT ( 'NONE',  ( -14.99999999999999500, 2.000000000000000000, 12.50000000000000400 ) ) ;
#1059 = AXIS2_PLACEMENT_3D ( 'NONE', #15, #544, #668 ) ;
#1060 = CIRCLE ( 'NONE', #427, 2.000000000000001800 ) ;
#1061 = EDGE_CURVE ( 'NONE', #478, #88, #404, .T. ) ;
#1062 = CIRCLE ( 'NONE', #961, 2.000000000000001800 ) ;
#1063 = VERTEX_POINT ( 'NONE', #1329 ) ;
#1064 = FACE_OUTER_BOUND ( 'NONE', #1209, .T. ) ;
#1065 = AXIS2_PLACEMENT_3D ( 'NONE', #610, #67, #1124 ) ;
#1066 = ORIENTED_EDGE ( 'NONE', *, *, #744, .F. ) ;
#1067 = DIRECTION ( 'NONE',  ( 0.0000000000000000000, 0.0000000000000000000, -1.000000000000000000 ) ) ;
#1068 = DIRECTION ( 'NONE',  ( 0.0000000000000000000, 0.0000000000000000000, 1.000000000000000000 ) ) ;
#1069 = ORIENTED_EDGE ( 'NONE', *, *, #661, .F. ) ;
#1070 = EDGE_LOOP ( 'NONE', ( #782, #1016 ) ) ;
#1071 = DIRECTION ( 'NONE',  ( -1.000000000000000000, 0.0000000000000000000, 0.0000000000000000000 ) ) ;
#1072 = ORIENTED_EDGE ( 'NONE', *, *, #507, .F. ) ;
#1073 = VECTOR ( 'NONE', #152, 1000.000000000000000 ) ;
#1074 = FACE_BOUND ( 'NONE', #434, .T. ) ;
#1075 = EDGE_CURVE ( 'NONE', #393, #559, #1062, .T. ) ;
#1076 = SECURITY_CLASSIFICATION_LEVEL ( 'unclassified' ) ;
#1077 = DIRECTION ( 'NONE',  ( 0.0000000000000000000, 1.000000000000000000, 0.0000000000000000000 ) ) ;
#1078 = DIRECTION ( 'NONE',  ( 1.000000000000000000, -0.0000000000000000000, -1.445602896647339200E-016 ) ) ;
#1079 = ORIENTED_EDGE ( 'NONE', *, *, #1313, .F. ) ;
#1080 =( NAMED_UNIT ( * ) PLANE_ANGLE_UNIT ( ) SI_UNIT ( $, .RADIAN. ) );
#1081 = DIRECTION ( 'NONE',  ( 0.0000000000000000000, 0.0000000000000000000, -1.000000000000000000 ) ) ;
#1082 = ORIENTED_EDGE ( 'NONE', *, *, #1011, .F. ) ;
#1083 = CYLINDRICAL_SURFACE ( 'NONE', #1283, 2.000000000000001800 ) ;
#1084 = ORIENTED_EDGE ( 'NONE', *, *, #713, .F. ) ;
#1085 = EDGE_CURVE ( 'NONE', #605, #1221, #76, .T. ) ;
#1086 = CIRCLE ( 'NONE', #300, 2.500000000000000400 ) ;
#1087 = EDGE_LOOP ( 'NONE', ( #967, #274, #75, #1305, #1082, #516, #148, #909, #807, #1184 ) ) ;
#1088 = LOCAL_TIME ( 19, 43, 5.000000000000000000, #558 ) ;
#1089 = AXIS2_PLACEMENT_3D ( 'NONE', #933, #96, #731 ) ;
#1090 = CARTESIAN_POINT ( 'NONE',  ( 15.00000000000000500, 2.000000000000000000, -14.99999999999999600 ) ) ;
#1091 = EDGE_LOOP ( 'NONE', ( #53, #1008 ) ) ;
#1092 = CARTESIAN_POINT ( 'NONE',  ( -23.99999999999999300, 10.50000000000000900, -5.510910596162892300E-016 ) ) ;
#1093 = FACE_BOUND ( 'NONE', #1337, .T. ) ;
#1094 = DIRECTION ( 'NONE',  ( 0.0000000000000000000, 1.000000000000000000, 0.0000000000000000000 ) ) ;
#1095 = AXIS2_PLACEMENT_3D ( 'NONE', #1373, #736, #824 ) ;
#1096 = CARTESIAN_POINT ( 'NONE',  ( 15.00000000000000700, 2.000000000000000000, 15.00000000000000500 ) ) ;
#1097 = ADVANCED_FACE ( 'NONE', ( #715 ), #352, .F. ) ;
#1098 = DIRECTION ( 'NONE',  ( -0.0000000000000000000, -1.000000000000000000, -0.0000000000000000000 ) ) ;
#1099 = FACE_OUTER_BOUND ( 'NONE', #173, .T. ) ;
#1100 = VERTEX_POINT ( 'NONE', #576 ) ;
#1101 = FACE_OUTER_BOUND ( 'NONE', #209, .T. ) ;
#1102 = ORIENTED_EDGE ( 'NONE', *, *, #801, .T. ) ;
#1103 = FACE_OUTER_BOUND ( 'NONE', #866, .T. ) ;
#1104 = ORIENTED_EDGE ( 'NONE', *, *, #1357, .F. ) ;
#1105 = CARTESIAN_POINT ( 'NONE',  ( 26.00000000000001100, 50.00000000000000000, 25.00000000000000400 ) ) ;
#1106 = EDGE_CURVE ( 'NONE', #1286, #471, #423, .T. ) ;
#1107 = COORDINATED_UNIVERSAL_TIME_OFFSET ( 8, 0, .AHEAD. ) ;
#1108 = PRODUCT_DEFINITION ( '未知', '', #1182, #63 ) ;
#1109 = CARTESIAN_POINT ( 'NONE',  ( -23.99999999999999300, 28.00000000000001100, 12.99999999999999600 ) ) ;
#1110 = PLANE ( 'NONE',  #383 ) ;
#1111 = DIRECTION ( 'NONE',  ( 0.0000000000000000000, 0.0000000000000000000, 1.000000000000000000 ) ) ;
#1112 = EDGE_LOOP ( 'NONE', ( #899, #1223, #742, #1120 ) ) ;
#1113 = PRODUCT_RELATED_PRODUCT_CATEGORY ( 'detail', '', ( #19 ) ) ;
#1114 = VERTEX_POINT ( 'NONE', #688 ) ;
#1115 = CIRCLE ( 'NONE', #790, 2.000000000000001800 ) ;
#1116 = ORIENTED_EDGE ( 'NONE', *, *, #460, .F. ) ;
#1117 = DIRECTION ( 'NONE',  ( -1.000000000000000000, 0.0000000000000000000, -0.0000000000000000000 ) ) ;
#1118 = CYLINDRICAL_SURFACE ( 'NONE', #1266, 2.000000000000000400 ) ;
#1119 = CALENDAR_DATE ( 2019, 17, 11 ) ;
#1120 = ORIENTED_EDGE ( 'NONE', *, *, #472, .F. ) ;
#1121 = APPROVAL_PERSON_ORGANIZATION ( #590, #286, #767 ) ;
#1122 = AXIS2_PLACEMENT_3D ( 'NONE', #1219, #788, #577 ) ;
#1123 = ORIENTED_EDGE ( 'NONE', *, *, #324, .T. ) ;
#1124 = DIRECTION ( 'NONE',  ( 0.0000000000000000000, 0.0000000000000000000, 1.000000000000000000 ) ) ;
#1125 = DIRECTION ( 'NONE',  ( 1.000000000000000000, 0.0000000000000000000, -1.445602896647339400E-016 ) ) ;
#1126 = EDGE_CURVE ( 'NONE', #657, #638, #1287, .T. ) ;
#1127 = ORIENTED_EDGE ( 'NONE', *, *, #435, .T. ) ;
#1128 = CIRCLE ( 'NONE', #223, 2.000000000000001800 ) ;
#1129 = ORIENTED_EDGE ( 'NONE', *, *, #183, .F. ) ;
#1130 = CARTESIAN_POINT ( 'NONE',  ( -23.99999999999999300, 45.50000000000001400, 1.999999999999997800 ) ) ;
#1131 = FACE_BOUND ( 'NONE', #367, .T. ) ;
#1132 = AXIS2_PLACEMENT_3D ( 'NONE', #1285, #331, #1067 ) ;
#1133 = ORIENTED_EDGE ( 'NONE', *, *, #507, .T. ) ;
#1134 = VECTOR ( 'NONE', #863, 1000.000000000000100 ) ;
#1135 = ORIENTED_EDGE ( 'NONE', *, *, #1106, .F. ) ;
#1136 = ORIENTED_EDGE ( 'NONE', *, *, #183, .T. ) ;
#1137 = DIRECTION ( 'NONE',  ( -0.0000000000000000000, -1.000000000000000000, -0.0000000000000000000 ) ) ;
#1138 = ADVANCED_FACE ( 'NONE', ( #958 ), #628, .F. ) ;
#1139 = APPROVAL_PERSON_ORGANIZATION ( #762, #786, #865 ) ;
#1140 = EDGE_CURVE ( 'NONE', #309, #9, #766, .T. ) ;
#1141 = DIRECTION ( 'NONE',  ( 0.0000000000000000000, 0.0000000000000000000, 1.000000000000000000 ) ) ;
#1142 = ORIENTED_EDGE ( 'NONE', *, *, #1348, .T. ) ;
#1143 = CARTESIAN_POINT ( 'NONE',  ( 24.00000000000000700, 0.0000000000000000000, 25.00000000000000400 ) ) ;
#1144 = CYLINDRICAL_SURFACE ( 'NONE', #696, 2.500000000000000400 ) ;
#1145 = DIRECTION ( 'NONE',  ( 0.0000000000000000000, 0.0000000000000000000, -1.000000000000000000 ) ) ;
#1146 = ADVANCED_FACE ( 'NONE', ( #1052 ), #1110, .F. ) ;
#1147 = DIRECTION ( 'NONE',  ( 1.445602896647339200E-016, -0.0000000000000000000, 1.000000000000000000 ) ) ;
#1148 = CARTESIAN_POINT ( 'NONE',  ( 24.00000000000000700, 48.00000000000000000, -23.00000000000000400 ) ) ;
#1149 = EDGE_CURVE ( 'NONE', #559, #114, #314, .T. ) ;
#1150 = ORIENTED_EDGE ( 'NONE', *, *, #1126, .F. ) ;
#1151 = VERTEX_POINT ( 'NONE', #1292 ) ;
#1152 = DIRECTION ( 'NONE',  ( -0.0000000000000000000, -1.000000000000000000, -0.0000000000000000000 ) ) ;
#1153 = DIRECTION ( 'NONE',  ( 0.0000000000000000000, 0.0000000000000000000, 1.000000000000000000 ) ) ;
#1154 = DIRECTION ( 'NONE',  ( 1.000000000000000000, 0.0000000000000000000, 0.0000000000000000000 ) ) ;
#1155 = ORIENTED_EDGE ( 'NONE', *, *, #652, .T. ) ;
#1156 = ORIENTED_EDGE ( 'NONE', *, *, #415, .F. ) ;
#1157 = VECTOR ( 'NONE', #200, 1000.000000000000000 ) ;
#1158 = DIRECTION ( 'NONE',  ( 1.000000000000000000, 0.0000000000000000000, 0.0000000000000000000 ) ) ;
#1159 = EDGE_CURVE ( 'NONE', #852, #393, #781, .T. ) ;
#1160 = VERTEX_POINT ( 'NONE', #1006 ) ;
#1161 = DIRECTION ( 'NONE',  ( 1.000000000000000000, 0.0000000000000000000, 0.0000000000000000000 ) ) ;
#1162 = DIRECTION ( 'NONE',  ( 0.0000000000000000000, 0.0000000000000000000, 1.000000000000000000 ) ) ;
#1163 = FACE_BOUND ( 'NONE', #52, .T. ) ;
#1164 = AXIS2_PLACEMENT_3D ( 'NONE', #444, #243, #126 ) ;
#1165 = CARTESIAN_POINT ( 'NONE',  ( 24.00000000000000700, 28.00000000000001100, -13.00000000000000400 ) ) ;
#1166 = DIRECTION ( 'NONE',  ( 0.0000000000000000000, -1.000000000000000000, 0.0000000000000000000 ) ) ;
#1167 = EDGE_CURVE ( 'NONE', #402, #676, #936, .T. ) ;
#1168 = ORIENTED_EDGE ( 'NONE', *, *, #355, .T. ) ;
#1169 = LINE ( 'NONE', #1056, #448 ) ;
#1170 = AXIS2_PLACEMENT_3D ( 'NONE', #685, #798, #370 ) ;
#1171 = PLANE ( 'NONE',  #1089 ) ;
#1172 = VERTEX_POINT ( 'NONE', #1197 ) ;
#1173 = FACE_OUTER_BOUND ( 'NONE', #227, .T. ) ;
#1174 = DIRECTION ( 'NONE',  ( 0.0000000000000000000, 0.0000000000000000000, 1.000000000000000000 ) ) ;
#1175 = APPLICATION_CONTEXT ( 'configuration controlled 3d designs of mechanical parts and assemblies' ) ;
#1176 = ORIENTED_EDGE ( 'NONE', *, *, #1055, .F. ) ;
#1177 = CIRCLE ( 'NONE', #1314, 15.00000000000000000 ) ;
#1178 = EDGE_CURVE ( 'NONE', #983, #111, #1241, .T. ) ;
#1179 = CIRCLE ( 'NONE', #687, 2.500000000000000400 ) ;
#1180 = DIRECTION ( 'NONE',  ( 0.0000000000000000000, 0.0000000000000000000, 1.000000000000000000 ) ) ;
#1181 = DIRECTION ( 'NONE',  ( 0.0000000000000000000, 0.0000000000000000000, -1.000000000000000000 ) ) ;
#1182 = PRODUCT_DEFINITION_FORMATION_WITH_SPECIFIED_SOURCE ( '任何', '', #19, .NOT_KNOWN. ) ;
#1183 = CARTESIAN_POINT ( 'NONE',  ( 15.00000000000000700, 2.000000000000000000, 17.50000000000000000 ) ) ;
#1184 = ORIENTED_EDGE ( 'NONE', *, *, #435, .F. ) ;
#1185 = CARTESIAN_POINT ( 'NONE',  ( -21.99999999999999300, 0.0000000000000000000, 25.00000000000000400 ) ) ;
#1186 = ORIENTED_EDGE ( 'NONE', *, *, #1106, .T. ) ;
#1187 = PERSON_AND_ORGANIZATION_ROLE ( 'creator' ) ;
#1188 = EDGE_LOOP ( 'NONE', ( #991, #536, #1028, #1150 ) ) ;
#1189 = FACE_OUTER_BOUND ( 'NONE', #690, .T. ) ;
#1190 = DIRECTION ( 'NONE',  ( 0.0000000000000000000, 0.0000000000000000000, 1.000000000000000000 ) ) ;
#1191 = DIRECTION ( 'NONE',  ( 0.0000000000000000000, 0.0000000000000000000, -1.000000000000000000 ) ) ;
#1192 = ORGANIZATION ( '未指定', '未指定', '' ) ;
#1193 = DIRECTION ( 'NONE',  ( -1.000000000000000000, 0.0000000000000000000, 0.0000000000000000000 ) ) ;
#1194 = CARTESIAN_POINT ( 'NONE',  ( 24.00000000000000700, 2.000000000000000000, 25.00000000000000400 ) ) ;
#1195 = DIRECTION ( 'NONE',  ( 0.0000000000000000000, 0.0000000000000000000, -1.000000000000000000 ) ) ;
#1196 = CIRCLE ( 'NONE', #869, 2.499999999999996900 ) ;
#1197 = CARTESIAN_POINT ( 'NONE',  ( -14.99999999999999500, 2.000000000000000000, 12.50000000000000400 ) ) ;
#1198 = CARTESIAN_POINT ( 'NONE',  ( 24.00000000000000700, 27.99999999999970500, 15.49999999999975000 ) ) ;
#1199 = CARTESIAN_POINT ( 'NONE',  ( 24.00000000000000700, 50.00000000000000000, -24.99999999999999600 ) ) ;
#1200 = VERTEX_POINT ( 'NONE', #1183 ) ;
#1201 = CIRCLE ( 'NONE', #386, 2.000000000000000400 ) ;
#1202 = UNCERTAINTY_MEASURE_WITH_UNIT (LENGTH_MEASURE( 1.000000000000000100E-005 ), #963, 'distance_accuracy_value', 'NONE');
#1203 = ORIENTED_EDGE ( 'NONE', *, *, #1167, .T. ) ;
#1204 = LINE ( 'NONE', #996, #850 ) ;
#1205 = EDGE_LOOP ( 'NONE', ( #1203, #1020, #363, #1079 ) ) ;
#1206 = EDGE_CURVE ( 'NONE', #643, #520, #694, .T. ) ;
#1207 = VECTOR ( 'NONE', #974, 1000.000000000000000 ) ;
#1208 = FACE_OUTER_BOUND ( 'NONE', #1032, .T. ) ;
#1209 = EDGE_LOOP ( 'NONE', ( #1236, #1035, #965, #376 ) ) ;
#1210 = FACE_OUTER_BOUND ( 'NONE', #290, .T. ) ;
#1211 = EDGE_LOOP ( 'NONE', ( #931, #1133, #1320, #701 ) ) ;
#1212 = AXIS2_PLACEMENT_3D ( 'NONE', #873, #443, #1190 ) ;
#1213 = DIRECTION ( 'NONE',  ( 0.0000000000000000000, 0.0000000000000000000, 1.000000000000000000 ) ) ;
#1214 = CARTESIAN_POINT ( 'NONE',  ( 24.00000000000000700, 25.99999999999999600, 23.00000000000000700 ) ) ;
#1215 = EDGE_CURVE ( 'NONE', #627, #520, #281, .T. ) ;
#1216 = CIRCLE ( 'NONE', #55, 1.999999999999998200 ) ;
#1217 = CARTESIAN_POINT ( 'NONE',  ( 26.00000000000001100, 48.00000000000000000, 23.00000000000000700 ) ) ;
#1218 = AXIS2_PLACEMENT_3D ( 'NONE', #580, #890, #476 ) ;
#1219 = CARTESIAN_POINT ( 'NONE',  ( 24.00000000000000700, 45.50000000000001400, -2.694222958124176000E-015 ) ) ;
#1220 = CYLINDRICAL_SURFACE ( 'NONE', #940, 2.499999999999998700 ) ;
#1221 = VERTEX_POINT ( 'NONE', #555 ) ;
#1222 = DIRECTION ( 'NONE',  ( 1.000000000000000000, 0.0000000000000000000, 0.0000000000000000000 ) ) ;
#1223 = ORIENTED_EDGE ( 'NONE', *, *, #485, .T. ) ;
#1224 = ORIENTED_EDGE ( 'NONE', *, *, #586, .T. ) ;
#1225 = EDGE_CURVE ( 'NONE', #234, #102, #380, .T. ) ;
#1226 = CALENDAR_DATE ( 2019, 17, 11 ) ;
#1227 = CARTESIAN_POINT ( 'NONE',  ( -14.99999999999999500, 0.0000000000000000000, -17.49999999999999600 ) ) ;
#1228 = DIRECTION ( 'NONE',  ( 0.0000000000000000000, 1.000000000000000000, 0.0000000000000000000 ) ) ;
#1229 = DIRECTION ( 'NONE',  ( 0.0000000000000000000, 0.0000000000000000000, 1.000000000000000000 ) ) ;
#1230 = VECTOR ( 'NONE', #806, 1000.000000000000000 ) ;
#1231 = EDGE_CURVE ( 'NONE', #657, #1360, #973, .T. ) ;
#1232 = VECTOR ( 'NONE', #497, 1000.000000000000000 ) ;
#1233 = EDGE_LOOP ( 'NONE', ( #452, #795 ) ) ;
#1234 = AXIS2_PLACEMENT_3D ( 'NONE', #581, #691, #898 ) ;
#1235 = VECTOR ( 'NONE', #446, 1000.000000000000000 ) ;
#1236 = ORIENTED_EDGE ( 'NONE', *, *, #45, .F. ) ;
#1237 = ORIENTED_EDGE ( 'NONE', *, *, #74, .T. ) ;
#1238 = ADVANCED_FACE ( 'NONE', ( #1378 ), #1341, .F. ) ;
#1239 = EDGE_CURVE ( 'NONE', #851, #1327, #707, .T. ) ;
#1240 = EDGE_LOOP ( 'NONE', ( #1069, #351, #1002, #438 ) ) ;
#1241 = LINE ( 'NONE', #349, #659 ) ;
#1242 = AXIS2_PLACEMENT_3D ( 'NONE', #651, #115, #1068 ) ;
#1243 = VERTEX_POINT ( 'NONE', #861 ) ;
#1244 = LINE ( 'NONE', #512, #858 ) ;
#1245 = CARTESIAN_POINT ( 'NONE',  ( -14.99999999999999500, 2.000000000000000000, -12.49999999999999600 ) ) ;
#1246 = EDGE_CURVE ( 'NONE', #326, #1063, #1272, .T. ) ;
#1247 = DIRECTION ( 'NONE',  ( 1.000000000000000000, 0.0000000000000000000, -1.445602896647339200E-016 ) ) ;
#1248 = ADVANCED_FACE ( 'NONE', ( #1210, #903, #1328, #250, #871, #233 ), #655, .T. ) ;
#1249 = ORIENTED_EDGE ( 'NONE', *, *, #968, .T. ) ;
#1250 = CC_DESIGN_PERSON_AND_ORGANIZATION_ASSIGNMENT ( #327, #849, ( #1182 ) ) ;
#1251 = ORIENTED_EDGE ( 'NONE', *, *, #1255, .F. ) ;
#1252 = CYLINDRICAL_SURFACE ( 'NONE', #738, 2.000000000000001800 ) ;
#1253 = ORIENTED_EDGE ( 'NONE', *, *, #1167, .F. ) ;
#1254 = CARTESIAN_POINT ( 'NONE',  ( 24.00000000000000700, 28.00000000000001100, 12.99999999999999600 ) ) ;
#1255 = EDGE_CURVE ( 'NONE', #672, #793, #61, .T. ) ;
#1256 = DIRECTION ( 'NONE',  ( 0.0000000000000000000, 0.0000000000000000000, -1.000000000000000000 ) ) ;
#1257 = EDGE_LOOP ( 'NONE', ( #71, #692, #319, #374 ) ) ;
#1258 = LINE ( 'NONE', #945, #65 ) ;
#1259 = CARTESIAN_POINT ( 'NONE',  ( 24.00000000000000700, 10.50000000000000900, -1.999999999999412900 ) ) ;
#1260 = AXIS2_PLACEMENT_3D ( 'NONE', #1317, #879, #49 ) ;
#1261 = CIRCLE ( 'NONE', #950, 1.999999999999412500 ) ;
#1262 = CARTESIAN_POINT ( 'NONE',  ( 6.938893903907228400E-015, 2.000000000000000000, 23.00000000000000700 ) ) ;
#1263 = CARTESIAN_POINT ( 'NONE',  ( -24.00000000000000000, 0.0000000000000000000, -24.99999999999999600 ) ) ;
#1264 = CARTESIAN_POINT ( 'NONE',  ( -23.99999999999999300, 2.000000000000000000, 23.00000000000000400 ) ) ;
#1265 = CARTESIAN_POINT ( 'NONE',  ( 24.00000000000000700, 27.99999999999970500, 17.49999999999975100 ) ) ;
#1266 = AXIS2_PLACEMENT_3D ( 'NONE', #598, #711, #706 ) ;
#1267 = ORIENTED_EDGE ( 'NONE', *, *, #1375, .F. ) ;
#1268 = VECTOR ( 'NONE', #979, 1000.000000000000000 ) ;
#1269 = CARTESIAN_POINT ( 'NONE',  ( 1.836970198721029600E-015, 2.000000000000000000, 15.00000000000000000 ) ) ;
#1270 = ORIENTED_EDGE ( 'NONE', *, *, #1206, .F. ) ;
#1271 = LINE ( 'NONE', #189, #949 ) ;
#1272 = CIRCLE ( 'NONE', #445, 2.000000000000001800 ) ;
#1273 = DIRECTION ( 'NONE',  ( 1.000000000000000000, 0.0000000000000000000, 0.0000000000000000000 ) ) ;
#1274 = ORIENTED_EDGE ( 'NONE', *, *, #946, .F. ) ;
#1275 = EDGE_CURVE ( 'NONE', #1172, #955, #811, .T. ) ;
#1276 = DIRECTION ( 'NONE',  ( 0.0000000000000000000, 0.0000000000000000000, -1.000000000000000000 ) ) ;
#1277 = CARTESIAN_POINT ( 'NONE',  ( 0.0000000000000000000, 0.0000000000000000000, 0.0000000000000000000 ) ) ;
#1278 = AXIS2_PLACEMENT_3D ( 'NONE', #107, #533, #1053 ) ;
#1279 = VECTOR ( 'NONE', #514, 1000.000000000000000 ) ;
#1280 = DIRECTION ( 'NONE',  ( -0.0000000000000000000, -1.000000000000000000, 0.0000000000000000000 ) ) ;
#1281 = EDGE_CURVE ( 'NONE', #676, #402, #350, .T. ) ;
#1282 = ORIENTED_EDGE ( 'NONE', *, *, #1332, .F. ) ;
#1283 = AXIS2_PLACEMENT_3D ( 'NONE', #589, #64, #1336 ) ;
#1284 = FACE_OUTER_BOUND ( 'NONE', #1257, .T. ) ;
#1285 = CARTESIAN_POINT ( 'NONE',  ( -23.99999999999999300, 27.99999999999970500, 17.49999999999975100 ) ) ;
#1286 = VERTEX_POINT ( 'NONE', #406 ) ;
#1287 = LINE ( 'NONE', #800, #826 ) ;
#1288 = ORIENTED_EDGE ( 'NONE', *, *, #364, .F. ) ;
#1289 = ORIENTED_EDGE ( 'NONE', *, *, #154, .F. ) ;
#1290 = PERSON_AND_ORGANIZATION ( #971, #1192 ) ;
#1291 = EDGE_LOOP ( 'NONE', ( #345, #260 ) ) ;
#1292 = CARTESIAN_POINT ( 'NONE',  ( 6.938893903907228400E-015, 2.000000000000000000, 25.00000000000000400 ) ) ;
#1293 = VECTOR ( 'NONE', #774, 1000.000000000000000 ) ;
#1294 = ORIENTED_EDGE ( 'NONE', *, *, #946, .T. ) ;
#1295 = VERTEX_POINT ( 'NONE', #411 ) ;
#1296 = AXIS2_PLACEMENT_3D ( 'NONE', #57, #804, #882 ) ;
#1297 = DIRECTION ( 'NONE',  ( -1.000000000000000000, 0.0000000000000000000, 1.445602896647339200E-016 ) ) ;
#1298 =( NAMED_UNIT ( * ) SI_UNIT ( $, .STERADIAN. ) SOLID_ANGLE_UNIT ( ) );
#1299 = FACE_BOUND ( 'NONE', #113, .T. ) ;
#1300 = DIRECTION ( 'NONE',  ( -0.0000000000000000000, -1.000000000000000000, -0.0000000000000000000 ) ) ;
#1301 = CARTESIAN_POINT ( 'NONE',  ( 22.00000000000000700, 4.000000000000000000, -23.00000000000000400 ) ) ;
#1302 = ORIENTED_EDGE ( 'NONE', *, *, #229, .F. ) ;
#1303 = DIRECTION ( 'NONE',  ( 0.0000000000000000000, 1.000000000000000000, 0.0000000000000000000 ) ) ;
#1304 = EDGE_CURVE ( 'NONE', #111, #1338, #1311, .T. ) ;
#1305 = ORIENTED_EDGE ( 'NONE', *, *, #66, .T. ) ;
#1306 = CARTESIAN_POINT ( 'NONE',  ( 26.00000000000001100, 28.00000000000001100, 12.99999999999999600 ) ) ;
#1307 = VERTEX_POINT ( 'NONE', #1379 ) ;
#1308 = FACE_OUTER_BOUND ( 'NONE', #952, .T. ) ;
#1309 = AXIS2_PLACEMENT_3D ( 'NONE', #972, #794, #266 ) ;
#1310 = CARTESIAN_POINT ( 'NONE',  ( 24.00000000000000700, 28.00000000000044400, -17.50000000000025200 ) ) ;
#1311 = LINE ( 'NONE', #1382, #216 ) ;
#1312 = DIRECTION ( 'NONE',  ( -0.0000000000000000000, -1.000000000000000000, -0.0000000000000000000 ) ) ;
#1313 = EDGE_CURVE ( 'NONE', #402, #342, #990, .T. ) ;
#1314 = AXIS2_PLACEMENT_3D ( 'NONE', #1277, #541, #531 ) ;
#1315 = DIRECTION ( 'NONE',  ( 1.000000000000000000, -0.0000000000000000000, -0.0000000000000000000 ) ) ;
#1316 = LINE ( 'NONE', #86, #186 ) ;
#1317 = CARTESIAN_POINT ( 'NONE',  ( 0.0000000000000000000, 0.0000000000000000000, 0.0000000000000000000 ) ) ;
#1318 = ADVANCED_FACE ( 'NONE', ( #524 ), #1171, .F. ) ;
#1319 = DIRECTION ( 'NONE',  ( 0.0000000000000000000, 1.000000000000000000, 0.0000000000000000000 ) ) ;
#1320 = ORIENTED_EDGE ( 'NONE', *, *, #938, .T. ) ;
#1321 = ORIENTED_EDGE ( 'NONE', *, *, #10, .F. ) ;
#1322 = DIRECTION ( 'NONE',  ( 1.000000000000000000, 0.0000000000000000000, 0.0000000000000000000 ) ) ;
#1323 = EDGE_CURVE ( 'NONE', #1221, #605, #477, .T. ) ;
#1324 = ORIENTED_EDGE ( 'NONE', *, *, #36, .T. ) ;
#1325 = DIRECTION ( 'NONE',  ( 1.000000000000000000, -0.0000000000000000000, -0.0000000000000000000 ) ) ;
#1326 = COORDINATED_UNIVERSAL_TIME_OFFSET ( 8, 0, .AHEAD. ) ;
#1327 = VERTEX_POINT ( 'NONE', #751 ) ;
#1328 = FACE_BOUND ( 'NONE', #575, .T. ) ;
#1329 = CARTESIAN_POINT ( 'NONE',  ( 24.00000000000000700, 0.0000000000000000000, -25.00000000000000400 ) ) ;
#1330 = ORIENTED_EDGE ( 'NONE', *, *, #112, .F. ) ;
#1331 = DIRECTION ( 'NONE',  ( 1.000000000000000000, 0.0000000000000000000, 0.0000000000000000000 ) ) ;
#1332 = EDGE_CURVE ( 'NONE', #793, #672, #199, .T. ) ;
#1333 = CIRCLE ( 'NONE', #978, 2.500000000000000400 ) ;
#1334 = ORIENTED_EDGE ( 'NONE', *, *, #282, .T. ) ;
#1335 = VECTOR ( 'NONE', #895, 1000.000000000000000 ) ;
#1336 = DIRECTION ( 'NONE',  ( 0.0000000000000000000, 0.0000000000000000000, -1.000000000000000000 ) ) ;
#1337 = EDGE_LOOP ( 'NONE', ( #483, #475 ) ) ;
#1338 = VERTEX_POINT ( 'NONE', #1040 ) ;
#1339 = AXIS2_PLACEMENT_3D ( 'NONE', #872, #132, #240 ) ;
#1340 = CALENDAR_DATE ( 2019, 17, 11 ) ;
#1341 = CYLINDRICAL_SURFACE ( 'NONE', #1132, 2.000000000000001800 ) ;
#1342 = DIRECTION ( 'NONE',  ( 0.0000000000000000000, 0.0000000000000000000, -1.000000000000000000 ) ) ;
#1343 = ORIENTED_EDGE ( 'NONE', *, *, #1275, .F. ) ;
#1344 = FACE_OUTER_BOUND ( 'NONE', #917, .T. ) ;
#1345 = ADVANCED_FACE ( 'NONE', ( #920 ), #456, .F. ) ;
#1346 = CARTESIAN_POINT ( 'NONE',  ( 24.00000000000000700, 48.00000000000000000, 23.00000000000000700 ) ) ;
#1347 = DIRECTION ( 'NONE',  ( 0.0000000000000000000, 1.000000000000000000, 0.0000000000000000000 ) ) ;
#1348 = EDGE_CURVE ( 'NONE', #144, #719, #644, .T. ) ;
#1349 = FACE_OUTER_BOUND ( 'NONE', #360, .T. ) ;
#1350 = DIRECTION ( 'NONE',  ( 0.0000000000000000000, 0.0000000000000000000, -1.000000000000000000 ) ) ;
#1351 = AXIS2_PLACEMENT_3D ( 'NONE', #1090, #1300, #1191 ) ;
#1352 = EDGE_LOOP ( 'NONE', ( #401, #765, #272, #194 ) ) ;
#1353 = FACE_OUTER_BOUND ( 'NONE', #1205, .T. ) ;
#1354 = VERTEX_POINT ( 'NONE', #630 ) ;
#1355 = CARTESIAN_POINT ( 'NONE',  ( 15.00000000000000700, 0.0000000000000000000, 12.50000000000000500 ) ) ;
#1356 = EDGE_LOOP ( 'NONE', ( #1136, #669 ) ) ;
#1357 = EDGE_CURVE ( 'NONE', #698, #638, #953, .T. ) ;
#1358 = ADVANCED_FACE ( 'NONE', ( #407 ), #1369, .F. ) ;
#1359 = AXIS2_PLACEMENT_3D ( 'NONE', #603, #1228, #168 ) ;
#1360 = VERTEX_POINT ( 'NONE', #741 ) ;
#1361 = DIRECTION ( 'NONE',  ( 1.000000000000000000, 0.0000000000000000000, -0.0000000000000000000 ) ) ;
#1362 = CARTESIAN_POINT ( 'NONE',  ( -14.99999999999999500, 2.000000000000000000, -14.99999999999999800 ) ) ;
#1363 = AXIS2_PLACEMENT_3D ( 'NONE', #197, #923, #1141 ) ;
#1364 = CARTESIAN_POINT ( 'NONE',  ( -23.99999999999999300, 28.00000000000001100, -13.00000000000000400 ) ) ;
#1365 = DIRECTION ( 'NONE',  ( 0.0000000000000000000, 0.0000000000000000000, -1.000000000000000000 ) ) ;
#1366 = ORIENTED_EDGE ( 'NONE', *, *, #1039, .F. ) ;
#1367 = CARTESIAN_POINT ( 'NONE',  ( -23.99999999999999300, 28.00000000000044400, -15.50000000000025000 ) ) ;
#1368 = ORIENTED_EDGE ( 'NONE', *, *, #396, .T. ) ;
#1369 = PLANE ( 'NONE',  #665 ) ;
#1370 = LINE ( 'NONE', #1245, #625 ) ;
#1371 = ORIENTED_EDGE ( 'NONE', *, *, #229, .T. ) ;
#1372 = CYLINDRICAL_SURFACE ( 'NONE', #629, 2.500000000000000400 ) ;
#1373 = CARTESIAN_POINT ( 'NONE',  ( 15.00000000000000500, 0.0000000000000000000, -14.99999999999999600 ) ) ;
#1374 = COORDINATED_UNIVERSAL_TIME_OFFSET ( 8, 0, .AHEAD. ) ;
#1375 = EDGE_CURVE ( 'NONE', #883, #901, #1036, .T. ) ;
#1376 = DIRECTION ( 'NONE',  ( -0.0000000000000000000, 1.000000000000000000, -0.0000000000000000000 ) ) ;
#1377 = EDGE_LOOP ( 'NONE', ( #276, #1054, #641, #441, #623, #1037, #1289, #375 ) ) ;
#1378 = FACE_OUTER_BOUND ( 'NONE', #268, .T. ) ;
#1379 = CARTESIAN_POINT ( 'NONE',  ( 15.00000000000000700, 2.000000000000000000, 12.50000000000000500 ) ) ;
#1380 = ORIENTED_EDGE ( 'NONE', *, *, #1178, .F. ) ;
#1381 = AXIS2_PLACEMENT_3D ( 'NONE', #1046, #1161, #951 ) ;
#1382 = CARTESIAN_POINT ( 'NONE',  ( 24.00000000000000700, 26.00000000000000400, -23.00000000000000700 ) ) ;
#1383 = EDGE_CURVE ( 'NONE', #156, #1151, #679, .T. ) ;
#1384 = AXIS2_PLACEMENT_3D ( 'NONE', #763, #235, #228 ) ;
#1385 = DIRECTION ( 'NONE',  ( 0.0000000000000000000, 0.0000000000000000000, 1.000000000000000000 ) ) ;
ENDSEC;
END-ISO-10303-21;
