ISO-10303-21;
HEADER;
/* Generated by software containing ST-Developer
 * from STEP Tools, Inc. (www.steptools.com) 
 */
/* OPTION: using custom renumber hook */

FILE_DESCRIPTION(
/* description */ ('STEP AP203'),
/* implementation_level */ '2;1');

FILE_NAME(
/* name */ 'BHJ61-6000DD-T25-h30',
/* time_stamp */ '2023-03-11T07:50:49+01:00',
/* author */ ('License CC BY-ND 4.0'),
/* organization */ ('CADENAS'),
/* preprocessor_version */ 'ST-DEVELOPER v19.3',
/* originating_system */ 'PARTsolutions',
/* authorisation */ '  ');

FILE_SCHEMA (('CONFIG_CONTROL_DESIGN'));
ENDSEC;

DATA;
#10=PROPERTY_DEFINITION_REPRESENTATION(#14,#12);
#11=PROPERTY_DEFINITION_REPRESENTATION(#15,#13);
#12=REPRESENTATION('',(#16),#1211);
#13=REPRESENTATION('',(#17),#1211);
#14=PROPERTY_DEFINITION('pmi validation property','',#1216);
#15=PROPERTY_DEFINITION('pmi validation property','',#1216);
#16=VALUE_REPRESENTATION_ITEM('number of annotations',COUNT_MEASURE(0.));
#17=VALUE_REPRESENTATION_ITEM('number of views',COUNT_MEASURE(0.));
#18=SHAPE_REPRESENTATION_RELATIONSHIP('','',#707,#19);
#19=ADVANCED_BREP_SHAPE_REPRESENTATION('',(#705),#1211);
#20=ORIENTED_CLOSED_SHELL('',*,#695,.F.);
#21=ORIENTED_CLOSED_SHELL('',*,#696,.F.);
#22=TOROIDAL_SURFACE('',#745,5.29999999999999,0.299999999999987);
#23=TOROIDAL_SURFACE('',#749,5.29999999999999,0.299999999999988);
#24=TOROIDAL_SURFACE('',#761,12.7,0.300000000000002);
#25=TOROIDAL_SURFACE('',#776,5.29999999999999,0.299999999999988);
#26=TOROIDAL_SURFACE('',#780,5.29999999999999,0.299999999999991);
#27=TOROIDAL_SURFACE('',#792,12.7,0.300000000000002);
#28=TOROIDAL_SURFACE('',#799,12.7,0.299999999999997);
#29=TOROIDAL_SURFACE('',#800,12.7,0.300000000000002);
#30=LINE('',#1037,#54);
#31=LINE('',#1040,#55);
#32=LINE('',#1042,#56);
#33=LINE('',#1044,#57);
#34=LINE('',#1046,#58);
#35=LINE('',#1048,#59);
#36=LINE('',#1050,#60);
#37=LINE('',#1060,#61);
#38=LINE('',#1062,#62);
#39=LINE('',#1064,#63);
#40=LINE('',#1066,#64);
#41=LINE('',#1068,#65);
#42=LINE('',#1070,#66);
#43=LINE('',#1076,#67);
#44=LINE('',#1078,#68);
#45=LINE('',#1080,#69);
#46=LINE('',#1082,#70);
#47=LINE('',#1084,#71);
#48=LINE('',#1086,#72);
#49=LINE('',#1088,#73);
#50=LINE('',#1090,#74);
#51=LINE('',#1092,#75);
#52=LINE('',#1094,#76);
#53=LINE('',#1095,#77);
#54=VECTOR('',#820,1000.);
#55=VECTOR('',#821,1000.);
#56=VECTOR('',#822,1000.);
#57=VECTOR('',#823,1000.);
#58=VECTOR('',#826,1000.);
#59=VECTOR('',#827,1000.);
#60=VECTOR('',#828,1000.);
#61=VECTOR('',#839,1000.);
#62=VECTOR('',#840,1000.);
#63=VECTOR('',#841,1000.);
#64=VECTOR('',#844,1000.);
#65=VECTOR('',#845,1000.);
#66=VECTOR('',#846,1000.);
#67=VECTOR('',#853,1000.);
#68=VECTOR('',#854,1000.);
#69=VECTOR('',#855,1000.);
#70=VECTOR('',#858,1000.);
#71=VECTOR('',#859,1000.);
#72=VECTOR('',#860,1000.);
#73=VECTOR('',#863,1000.);
#74=VECTOR('',#864,1000.);
#75=VECTOR('',#865,1000.);
#76=VECTOR('',#868,1000.);
#77=VECTOR('',#869,1000.);
#78=PLANE('',#712);
#79=PLANE('',#715);
#80=PLANE('',#716);
#81=PLANE('',#721);
#82=PLANE('',#722);
#83=PLANE('',#725);
#84=PLANE('',#726);
#85=PLANE('',#727);
#86=PLANE('',#728);
#87=PLANE('',#730);
#88=PLANE('',#740);
#89=PLANE('',#742);
#90=PLANE('',#751);
#91=PLANE('',#755);
#92=PLANE('',#759);
#93=PLANE('',#764);
#94=PLANE('',#770);
#95=PLANE('',#774);
#96=PLANE('',#782);
#97=PLANE('',#786);
#98=PLANE('',#790);
#99=PLANE('',#793);
#100=PLANE('',#794);
#101=PLANE('',#805);
#102=ORIENTED_EDGE('',*,*,#242,.T.);
#103=ORIENTED_EDGE('',*,*,#243,.F.);
#104=ORIENTED_EDGE('',*,*,#244,.F.);
#105=ORIENTED_EDGE('',*,*,#245,.F.);
#106=ORIENTED_EDGE('',*,*,#246,.T.);
#107=ORIENTED_EDGE('',*,*,#247,.F.);
#108=ORIENTED_EDGE('',*,*,#248,.F.);
#109=ORIENTED_EDGE('',*,*,#249,.T.);
#110=ORIENTED_EDGE('',*,*,#250,.T.);
#111=ORIENTED_EDGE('',*,*,#251,.F.);
#112=ORIENTED_EDGE('',*,*,#252,.F.);
#113=ORIENTED_EDGE('',*,*,#247,.T.);
#114=ORIENTED_EDGE('',*,*,#253,.T.);
#115=ORIENTED_EDGE('',*,*,#254,.T.);
#116=ORIENTED_EDGE('',*,*,#255,.T.);
#117=ORIENTED_EDGE('',*,*,#256,.T.);
#118=ORIENTED_EDGE('',*,*,#257,.T.);
#119=ORIENTED_EDGE('',*,*,#258,.F.);
#120=ORIENTED_EDGE('',*,*,#259,.F.);
#121=ORIENTED_EDGE('',*,*,#251,.T.);
#122=ORIENTED_EDGE('',*,*,#260,.T.);
#123=ORIENTED_EDGE('',*,*,#261,.F.);
#124=ORIENTED_EDGE('',*,*,#262,.F.);
#125=ORIENTED_EDGE('',*,*,#258,.T.);
#126=ORIENTED_EDGE('',*,*,#263,.F.);
#127=ORIENTED_EDGE('',*,*,#264,.F.);
#128=ORIENTED_EDGE('',*,*,#265,.T.);
#129=ORIENTED_EDGE('',*,*,#266,.F.);
#130=ORIENTED_EDGE('',*,*,#267,.F.);
#131=ORIENTED_EDGE('',*,*,#261,.T.);
#132=ORIENTED_EDGE('',*,*,#268,.T.);
#133=ORIENTED_EDGE('',*,*,#269,.F.);
#134=ORIENTED_EDGE('',*,*,#270,.F.);
#135=ORIENTED_EDGE('',*,*,#266,.T.);
#136=ORIENTED_EDGE('',*,*,#271,.T.);
#137=ORIENTED_EDGE('',*,*,#272,.F.);
#138=ORIENTED_EDGE('',*,*,#273,.F.);
#139=ORIENTED_EDGE('',*,*,#269,.T.);
#140=ORIENTED_EDGE('',*,*,#274,.T.);
#141=ORIENTED_EDGE('',*,*,#249,.F.);
#142=ORIENTED_EDGE('',*,*,#275,.F.);
#143=ORIENTED_EDGE('',*,*,#272,.T.);
#144=ORIENTED_EDGE('',*,*,#276,.T.);
#145=ORIENTED_EDGE('',*,*,#248,.T.);
#146=ORIENTED_EDGE('',*,*,#252,.T.);
#147=ORIENTED_EDGE('',*,*,#259,.T.);
#148=ORIENTED_EDGE('',*,*,#262,.T.);
#149=ORIENTED_EDGE('',*,*,#267,.T.);
#150=ORIENTED_EDGE('',*,*,#270,.T.);
#151=ORIENTED_EDGE('',*,*,#273,.T.);
#152=ORIENTED_EDGE('',*,*,#275,.T.);
#153=ORIENTED_EDGE('',*,*,#242,.F.);
#154=ORIENTED_EDGE('',*,*,#246,.F.);
#155=ORIENTED_EDGE('',*,*,#274,.F.);
#156=ORIENTED_EDGE('',*,*,#271,.F.);
#157=ORIENTED_EDGE('',*,*,#268,.F.);
#158=ORIENTED_EDGE('',*,*,#265,.F.);
#159=ORIENTED_EDGE('',*,*,#260,.F.);
#160=ORIENTED_EDGE('',*,*,#257,.F.);
#161=ORIENTED_EDGE('',*,*,#250,.F.);
#162=ORIENTED_EDGE('',*,*,#264,.T.);
#163=ORIENTED_EDGE('',*,*,#256,.F.);
#164=ORIENTED_EDGE('',*,*,#263,.T.);
#165=ORIENTED_EDGE('',*,*,#255,.F.);
#166=ORIENTED_EDGE('',*,*,#245,.T.);
#167=ORIENTED_EDGE('',*,*,#254,.F.);
#168=ORIENTED_EDGE('',*,*,#244,.T.);
#169=ORIENTED_EDGE('',*,*,#253,.F.);
#170=ORIENTED_EDGE('',*,*,#277,.T.);
#171=ORIENTED_EDGE('',*,*,#276,.F.);
#172=ORIENTED_EDGE('',*,*,#278,.T.);
#173=ORIENTED_EDGE('',*,*,#279,.F.);
#174=ORIENTED_EDGE('',*,*,#280,.T.);
#175=ORIENTED_EDGE('',*,*,#278,.F.);
#176=ORIENTED_EDGE('',*,*,#281,.T.);
#177=ORIENTED_EDGE('',*,*,#282,.F.);
#178=ORIENTED_EDGE('',*,*,#283,.T.);
#179=ORIENTED_EDGE('',*,*,#281,.F.);
#180=ORIENTED_EDGE('',*,*,#284,.T.);
#181=ORIENTED_EDGE('',*,*,#283,.F.);
#182=ORIENTED_EDGE('',*,*,#285,.T.);
#183=ORIENTED_EDGE('',*,*,#284,.F.);
#184=ORIENTED_EDGE('',*,*,#286,.T.);
#185=ORIENTED_EDGE('',*,*,#285,.F.);
#186=ORIENTED_EDGE('',*,*,#287,.T.);
#187=ORIENTED_EDGE('',*,*,#286,.F.);
#188=ORIENTED_EDGE('',*,*,#288,.T.);
#189=ORIENTED_EDGE('',*,*,#287,.F.);
#190=ORIENTED_EDGE('',*,*,#289,.T.);
#191=ORIENTED_EDGE('',*,*,#288,.F.);
#192=ORIENTED_EDGE('',*,*,#290,.T.);
#193=ORIENTED_EDGE('',*,*,#289,.F.);
#194=ORIENTED_EDGE('',*,*,#243,.T.);
#195=ORIENTED_EDGE('',*,*,#290,.F.);
#196=ORIENTED_EDGE('',*,*,#291,.T.);
#197=ORIENTED_EDGE('',*,*,#280,.F.);
#198=ORIENTED_EDGE('',*,*,#292,.T.);
#199=ORIENTED_EDGE('',*,*,#291,.F.);
#200=ORIENTED_EDGE('',*,*,#282,.T.);
#201=ORIENTED_EDGE('',*,*,#292,.F.);
#202=ORIENTED_EDGE('',*,*,#293,.T.);
#203=ORIENTED_EDGE('',*,*,#294,.F.);
#204=ORIENTED_EDGE('',*,*,#294,.T.);
#205=ORIENTED_EDGE('',*,*,#295,.F.);
#206=ORIENTED_EDGE('',*,*,#295,.T.);
#207=ORIENTED_EDGE('',*,*,#296,.F.);
#208=ORIENTED_EDGE('',*,*,#296,.T.);
#209=ORIENTED_EDGE('',*,*,#297,.F.);
#210=ORIENTED_EDGE('',*,*,#297,.T.);
#211=ORIENTED_EDGE('',*,*,#298,.F.);
#212=ORIENTED_EDGE('',*,*,#298,.T.);
#213=ORIENTED_EDGE('',*,*,#299,.F.);
#214=ORIENTED_EDGE('',*,*,#299,.T.);
#215=ORIENTED_EDGE('',*,*,#300,.F.);
#216=ORIENTED_EDGE('',*,*,#300,.T.);
#217=ORIENTED_EDGE('',*,*,#301,.F.);
#218=ORIENTED_EDGE('',*,*,#301,.T.);
#219=ORIENTED_EDGE('',*,*,#302,.F.);
#220=ORIENTED_EDGE('',*,*,#302,.T.);
#221=ORIENTED_EDGE('',*,*,#303,.F.);
#222=ORIENTED_EDGE('',*,*,#303,.T.);
#223=ORIENTED_EDGE('',*,*,#304,.F.);
#224=ORIENTED_EDGE('',*,*,#304,.T.);
#225=ORIENTED_EDGE('',*,*,#305,.F.);
#226=ORIENTED_EDGE('',*,*,#305,.T.);
#227=ORIENTED_EDGE('',*,*,#277,.F.);
#228=ORIENTED_EDGE('',*,*,#279,.T.);
#229=ORIENTED_EDGE('',*,*,#293,.F.);
#230=ORIENTED_EDGE('',*,*,#306,.T.);
#231=ORIENTED_EDGE('',*,*,#307,.F.);
#232=ORIENTED_EDGE('',*,*,#307,.T.);
#233=ORIENTED_EDGE('',*,*,#308,.F.);
#234=ORIENTED_EDGE('',*,*,#308,.T.);
#235=ORIENTED_EDGE('',*,*,#306,.F.);
#236=ORIENTED_EDGE('',*,*,#309,.T.);
#237=ORIENTED_EDGE('',*,*,#310,.F.);
#238=ORIENTED_EDGE('',*,*,#310,.T.);
#239=ORIENTED_EDGE('',*,*,#311,.F.);
#240=ORIENTED_EDGE('',*,*,#311,.T.);
#241=ORIENTED_EDGE('',*,*,#309,.F.);
#242=EDGE_CURVE('',#312,#312,#374,.T.);
#243=EDGE_CURVE('',#313,#313,#375,.T.);
#244=EDGE_CURVE('',#314,#314,#376,.T.);
#245=EDGE_CURVE('',#315,#315,#377,.T.);
#246=EDGE_CURVE('',#316,#317,#30,.T.);
#247=EDGE_CURVE('',#318,#317,#31,.T.);
#248=EDGE_CURVE('',#319,#318,#32,.T.);
#249=EDGE_CURVE('',#319,#316,#33,.T.);
#250=EDGE_CURVE('',#317,#320,#34,.T.);
#251=EDGE_CURVE('',#321,#320,#35,.T.);
#252=EDGE_CURVE('',#318,#321,#36,.T.);
#253=EDGE_CURVE('',#322,#322,#378,.T.);
#254=EDGE_CURVE('',#323,#323,#379,.T.);
#255=EDGE_CURVE('',#324,#324,#380,.T.);
#256=EDGE_CURVE('',#325,#325,#381,.T.);
#257=EDGE_CURVE('',#320,#326,#37,.T.);
#258=EDGE_CURVE('',#327,#326,#38,.T.);
#259=EDGE_CURVE('',#321,#327,#39,.T.);
#260=EDGE_CURVE('',#326,#328,#40,.T.);
#261=EDGE_CURVE('',#329,#328,#41,.T.);
#262=EDGE_CURVE('',#327,#329,#42,.T.);
#263=EDGE_CURVE('',#330,#330,#382,.T.);
#264=EDGE_CURVE('',#331,#331,#383,.T.);
#265=EDGE_CURVE('',#328,#332,#43,.T.);
#266=EDGE_CURVE('',#333,#332,#44,.T.);
#267=EDGE_CURVE('',#329,#333,#45,.T.);
#268=EDGE_CURVE('',#332,#334,#46,.T.);
#269=EDGE_CURVE('',#335,#334,#47,.T.);
#270=EDGE_CURVE('',#333,#335,#48,.T.);
#271=EDGE_CURVE('',#334,#336,#49,.T.);
#272=EDGE_CURVE('',#337,#336,#50,.T.);
#273=EDGE_CURVE('',#335,#337,#51,.T.);
#274=EDGE_CURVE('',#336,#316,#52,.T.);
#275=EDGE_CURVE('',#337,#319,#53,.T.);
#276=EDGE_CURVE('',#338,#338,#384,.T.);
#277=EDGE_CURVE('',#339,#339,#385,.T.);
#278=EDGE_CURVE('',#340,#340,#386,.T.);
#279=EDGE_CURVE('',#341,#341,#387,.T.);
#280=EDGE_CURVE('',#342,#342,#388,.T.);
#281=EDGE_CURVE('',#343,#343,#389,.T.);
#282=EDGE_CURVE('',#344,#344,#390,.T.);
#283=EDGE_CURVE('',#345,#345,#391,.T.);
#284=EDGE_CURVE('',#346,#346,#392,.T.);
#285=EDGE_CURVE('',#347,#347,#393,.T.);
#286=EDGE_CURVE('',#348,#348,#394,.T.);
#287=EDGE_CURVE('',#349,#349,#395,.T.);
#288=EDGE_CURVE('',#350,#350,#396,.T.);
#289=EDGE_CURVE('',#351,#351,#397,.T.);
#290=EDGE_CURVE('',#352,#352,#398,.T.);
#291=EDGE_CURVE('',#353,#353,#399,.T.);
#292=EDGE_CURVE('',#354,#354,#400,.T.);
#293=EDGE_CURVE('',#355,#355,#401,.T.);
#294=EDGE_CURVE('',#356,#356,#402,.T.);
#295=EDGE_CURVE('',#357,#357,#403,.T.);
#296=EDGE_CURVE('',#358,#358,#404,.T.);
#297=EDGE_CURVE('',#359,#359,#405,.T.);
#298=EDGE_CURVE('',#360,#360,#406,.T.);
#299=EDGE_CURVE('',#361,#361,#407,.T.);
#300=EDGE_CURVE('',#362,#362,#408,.T.);
#301=EDGE_CURVE('',#363,#363,#409,.T.);
#302=EDGE_CURVE('',#364,#364,#410,.T.);
#303=EDGE_CURVE('',#365,#365,#411,.T.);
#304=EDGE_CURVE('',#366,#366,#412,.T.);
#305=EDGE_CURVE('',#367,#367,#413,.T.);
#306=EDGE_CURVE('',#368,#368,#414,.T.);
#307=EDGE_CURVE('',#369,#369,#415,.T.);
#308=EDGE_CURVE('',#370,#370,#416,.T.);
#309=EDGE_CURVE('',#371,#371,#417,.T.);
#310=EDGE_CURVE('',#372,#372,#418,.T.);
#311=EDGE_CURVE('',#373,#373,#419,.T.);
#312=VERTEX_POINT('',#1029);
#313=VERTEX_POINT('',#1031);
#314=VERTEX_POINT('',#1034);
#315=VERTEX_POINT('',#1036);
#316=VERTEX_POINT('',#1038);
#317=VERTEX_POINT('',#1039);
#318=VERTEX_POINT('',#1041);
#319=VERTEX_POINT('',#1043);
#320=VERTEX_POINT('',#1047);
#321=VERTEX_POINT('',#1049);
#322=VERTEX_POINT('',#1053);
#323=VERTEX_POINT('',#1055);
#324=VERTEX_POINT('',#1057);
#325=VERTEX_POINT('',#1059);
#326=VERTEX_POINT('',#1061);
#327=VERTEX_POINT('',#1063);
#328=VERTEX_POINT('',#1067);
#329=VERTEX_POINT('',#1069);
#330=VERTEX_POINT('',#1073);
#331=VERTEX_POINT('',#1075);
#332=VERTEX_POINT('',#1077);
#333=VERTEX_POINT('',#1079);
#334=VERTEX_POINT('',#1083);
#335=VERTEX_POINT('',#1085);
#336=VERTEX_POINT('',#1089);
#337=VERTEX_POINT('',#1091);
#338=VERTEX_POINT('',#1098);
#339=VERTEX_POINT('',#1106);
#340=VERTEX_POINT('',#1109);
#341=VERTEX_POINT('',#1111);
#342=VERTEX_POINT('',#1114);
#343=VERTEX_POINT('',#1117);
#344=VERTEX_POINT('',#1119);
#345=VERTEX_POINT('',#1122);
#346=VERTEX_POINT('',#1125);
#347=VERTEX_POINT('',#1128);
#348=VERTEX_POINT('',#1131);
#349=VERTEX_POINT('',#1134);
#350=VERTEX_POINT('',#1137);
#351=VERTEX_POINT('',#1140);
#352=VERTEX_POINT('',#1143);
#353=VERTEX_POINT('',#1147);
#354=VERTEX_POINT('',#1150);
#355=VERTEX_POINT('',#1154);
#356=VERTEX_POINT('',#1156);
#357=VERTEX_POINT('',#1159);
#358=VERTEX_POINT('',#1162);
#359=VERTEX_POINT('',#1165);
#360=VERTEX_POINT('',#1168);
#361=VERTEX_POINT('',#1171);
#362=VERTEX_POINT('',#1174);
#363=VERTEX_POINT('',#1177);
#364=VERTEX_POINT('',#1180);
#365=VERTEX_POINT('',#1183);
#366=VERTEX_POINT('',#1186);
#367=VERTEX_POINT('',#1189);
#368=VERTEX_POINT('',#1194);
#369=VERTEX_POINT('',#1196);
#370=VERTEX_POINT('',#1199);
#371=VERTEX_POINT('',#1203);
#372=VERTEX_POINT('',#1205);
#373=VERTEX_POINT('',#1208);
#374=CIRCLE('',#710,13.);
#375=CIRCLE('',#711,13.);
#376=CIRCLE('',#713,2.65);
#377=CIRCLE('',#714,2.65);
#378=CIRCLE('',#717,2.65);
#379=CIRCLE('',#718,2.65);
#380=CIRCLE('',#719,2.65);
#381=CIRCLE('',#720,2.65);
#382=CIRCLE('',#723,2.65);
#383=CIRCLE('',#724,2.65);
#384=CIRCLE('',#729,13.);
#385=CIRCLE('',#736,13.);
#386=CIRCLE('',#738,11.);
#387=CIRCLE('',#739,11.);
#388=CIRCLE('',#741,10.4);
#389=CIRCLE('',#743,5.3);
#390=CIRCLE('',#744,7.4);
#391=CIRCLE('',#746,5.);
#392=CIRCLE('',#748,5.);
#393=CIRCLE('',#750,5.3);
#394=CIRCLE('',#752,7.4);
#395=CIRCLE('',#754,7.4);
#396=CIRCLE('',#756,10.4);
#397=CIRCLE('',#758,10.4);
#398=CIRCLE('',#760,12.7);
#399=CIRCLE('',#763,10.4);
#400=CIRCLE('',#765,7.4);
#401=CIRCLE('',#768,10.4);
#402=CIRCLE('',#769,10.4);
#403=CIRCLE('',#771,7.40000000000002);
#404=CIRCLE('',#773,7.40000000000002);
#405=CIRCLE('',#775,5.3);
#406=CIRCLE('',#777,5.);
#407=CIRCLE('',#779,5.);
#408=CIRCLE('',#781,5.3);
#409=CIRCLE('',#783,7.40000000000002);
#410=CIRCLE('',#785,7.40000000000002);
#411=CIRCLE('',#787,10.4);
#412=CIRCLE('',#789,10.4);
#413=CIRCLE('',#791,12.7);
#414=CIRCLE('',#795,12.7);
#415=CIRCLE('',#796,13.);
#416=CIRCLE('',#798,13.);
#417=CIRCLE('',#801,12.7);
#418=CIRCLE('',#802,13.);
#419=CIRCLE('',#804,13.);
#420=EDGE_LOOP('',(#102));
#421=EDGE_LOOP('',(#103));
#422=EDGE_LOOP('',(#104));
#423=EDGE_LOOP('',(#105));
#424=EDGE_LOOP('',(#106,#107,#108,#109));
#425=EDGE_LOOP('',(#110,#111,#112,#113));
#426=EDGE_LOOP('',(#114));
#427=EDGE_LOOP('',(#115));
#428=EDGE_LOOP('',(#116));
#429=EDGE_LOOP('',(#117));
#430=EDGE_LOOP('',(#118,#119,#120,#121));
#431=EDGE_LOOP('',(#122,#123,#124,#125));
#432=EDGE_LOOP('',(#126));
#433=EDGE_LOOP('',(#127));
#434=EDGE_LOOP('',(#128,#129,#130,#131));
#435=EDGE_LOOP('',(#132,#133,#134,#135));
#436=EDGE_LOOP('',(#136,#137,#138,#139));
#437=EDGE_LOOP('',(#140,#141,#142,#143));
#438=EDGE_LOOP('',(#144));
#439=EDGE_LOOP('',(#145,#146,#147,#148,#149,#150,#151,#152));
#440=EDGE_LOOP('',(#153));
#441=EDGE_LOOP('',(#154,#155,#156,#157,#158,#159,#160,#161));
#442=EDGE_LOOP('',(#162));
#443=EDGE_LOOP('',(#163));
#444=EDGE_LOOP('',(#164));
#445=EDGE_LOOP('',(#165));
#446=EDGE_LOOP('',(#166));
#447=EDGE_LOOP('',(#167));
#448=EDGE_LOOP('',(#168));
#449=EDGE_LOOP('',(#169));
#450=EDGE_LOOP('',(#170));
#451=EDGE_LOOP('',(#171));
#452=EDGE_LOOP('',(#172));
#453=EDGE_LOOP('',(#173));
#454=EDGE_LOOP('',(#174));
#455=EDGE_LOOP('',(#175));
#456=EDGE_LOOP('',(#176));
#457=EDGE_LOOP('',(#177));
#458=EDGE_LOOP('',(#178));
#459=EDGE_LOOP('',(#179));
#460=EDGE_LOOP('',(#180));
#461=EDGE_LOOP('',(#181));
#462=EDGE_LOOP('',(#182));
#463=EDGE_LOOP('',(#183));
#464=EDGE_LOOP('',(#184));
#465=EDGE_LOOP('',(#185));
#466=EDGE_LOOP('',(#186));
#467=EDGE_LOOP('',(#187));
#468=EDGE_LOOP('',(#188));
#469=EDGE_LOOP('',(#189));
#470=EDGE_LOOP('',(#190));
#471=EDGE_LOOP('',(#191));
#472=EDGE_LOOP('',(#192));
#473=EDGE_LOOP('',(#193));
#474=EDGE_LOOP('',(#194));
#475=EDGE_LOOP('',(#195));
#476=EDGE_LOOP('',(#196));
#477=EDGE_LOOP('',(#197));
#478=EDGE_LOOP('',(#198));
#479=EDGE_LOOP('',(#199));
#480=EDGE_LOOP('',(#200));
#481=EDGE_LOOP('',(#201));
#482=EDGE_LOOP('',(#202));
#483=EDGE_LOOP('',(#203));
#484=EDGE_LOOP('',(#204));
#485=EDGE_LOOP('',(#205));
#486=EDGE_LOOP('',(#206));
#487=EDGE_LOOP('',(#207));
#488=EDGE_LOOP('',(#208));
#489=EDGE_LOOP('',(#209));
#490=EDGE_LOOP('',(#210));
#491=EDGE_LOOP('',(#211));
#492=EDGE_LOOP('',(#212));
#493=EDGE_LOOP('',(#213));
#494=EDGE_LOOP('',(#214));
#495=EDGE_LOOP('',(#215));
#496=EDGE_LOOP('',(#216));
#497=EDGE_LOOP('',(#217));
#498=EDGE_LOOP('',(#218));
#499=EDGE_LOOP('',(#219));
#500=EDGE_LOOP('',(#220));
#501=EDGE_LOOP('',(#221));
#502=EDGE_LOOP('',(#222));
#503=EDGE_LOOP('',(#223));
#504=EDGE_LOOP('',(#224));
#505=EDGE_LOOP('',(#225));
#506=EDGE_LOOP('',(#226));
#507=EDGE_LOOP('',(#227));
#508=EDGE_LOOP('',(#228));
#509=EDGE_LOOP('',(#229));
#510=EDGE_LOOP('',(#230));
#511=EDGE_LOOP('',(#231));
#512=EDGE_LOOP('',(#232));
#513=EDGE_LOOP('',(#233));
#514=EDGE_LOOP('',(#234));
#515=EDGE_LOOP('',(#235));
#516=EDGE_LOOP('',(#236));
#517=EDGE_LOOP('',(#237));
#518=EDGE_LOOP('',(#238));
#519=EDGE_LOOP('',(#239));
#520=EDGE_LOOP('',(#240));
#521=EDGE_LOOP('',(#241));
#522=FACE_BOUND('',#420,.T.);
#523=FACE_BOUND('',#421,.T.);
#524=FACE_BOUND('',#422,.T.);
#525=FACE_BOUND('',#423,.T.);
#526=FACE_BOUND('',#424,.T.);
#527=FACE_BOUND('',#425,.T.);
#528=FACE_BOUND('',#426,.T.);
#529=FACE_BOUND('',#427,.T.);
#530=FACE_BOUND('',#428,.T.);
#531=FACE_BOUND('',#429,.T.);
#532=FACE_BOUND('',#430,.T.);
#533=FACE_BOUND('',#431,.T.);
#534=FACE_BOUND('',#432,.T.);
#535=FACE_BOUND('',#433,.T.);
#536=FACE_BOUND('',#434,.T.);
#537=FACE_BOUND('',#435,.T.);
#538=FACE_BOUND('',#436,.T.);
#539=FACE_BOUND('',#437,.T.);
#540=FACE_BOUND('',#438,.T.);
#541=FACE_BOUND('',#439,.T.);
#542=FACE_BOUND('',#440,.T.);
#543=FACE_BOUND('',#441,.T.);
#544=FACE_BOUND('',#442,.T.);
#545=FACE_BOUND('',#443,.T.);
#546=FACE_BOUND('',#444,.T.);
#547=FACE_BOUND('',#445,.T.);
#548=FACE_BOUND('',#446,.T.);
#549=FACE_BOUND('',#447,.T.);
#550=FACE_BOUND('',#448,.T.);
#551=FACE_BOUND('',#449,.T.);
#552=FACE_BOUND('',#450,.T.);
#553=FACE_BOUND('',#451,.T.);
#554=FACE_BOUND('',#452,.T.);
#555=FACE_BOUND('',#453,.T.);
#556=FACE_BOUND('',#454,.T.);
#557=FACE_BOUND('',#455,.T.);
#558=FACE_BOUND('',#456,.T.);
#559=FACE_BOUND('',#457,.T.);
#560=FACE_BOUND('',#458,.T.);
#561=FACE_BOUND('',#459,.T.);
#562=FACE_BOUND('',#460,.T.);
#563=FACE_BOUND('',#461,.T.);
#564=FACE_BOUND('',#462,.T.);
#565=FACE_BOUND('',#463,.T.);
#566=FACE_BOUND('',#464,.T.);
#567=FACE_BOUND('',#465,.T.);
#568=FACE_BOUND('',#466,.T.);
#569=FACE_BOUND('',#467,.T.);
#570=FACE_BOUND('',#468,.T.);
#571=FACE_BOUND('',#469,.T.);
#572=FACE_BOUND('',#470,.T.);
#573=FACE_BOUND('',#471,.T.);
#574=FACE_BOUND('',#472,.T.);
#575=FACE_BOUND('',#473,.T.);
#576=FACE_BOUND('',#474,.T.);
#577=FACE_BOUND('',#475,.T.);
#578=FACE_BOUND('',#476,.T.);
#579=FACE_BOUND('',#477,.T.);
#580=FACE_BOUND('',#478,.T.);
#581=FACE_BOUND('',#479,.T.);
#582=FACE_BOUND('',#480,.T.);
#583=FACE_BOUND('',#481,.T.);
#584=FACE_BOUND('',#482,.T.);
#585=FACE_BOUND('',#483,.T.);
#586=FACE_BOUND('',#484,.T.);
#587=FACE_BOUND('',#485,.T.);
#588=FACE_BOUND('',#486,.T.);
#589=FACE_BOUND('',#487,.T.);
#590=FACE_BOUND('',#488,.T.);
#591=FACE_BOUND('',#489,.T.);
#592=FACE_BOUND('',#490,.T.);
#593=FACE_BOUND('',#491,.T.);
#594=FACE_BOUND('',#492,.T.);
#595=FACE_BOUND('',#493,.T.);
#596=FACE_BOUND('',#494,.T.);
#597=FACE_BOUND('',#495,.T.);
#598=FACE_BOUND('',#496,.T.);
#599=FACE_BOUND('',#497,.T.);
#600=FACE_BOUND('',#498,.T.);
#601=FACE_BOUND('',#499,.T.);
#602=FACE_BOUND('',#500,.T.);
#603=FACE_BOUND('',#501,.T.);
#604=FACE_BOUND('',#502,.T.);
#605=FACE_BOUND('',#503,.T.);
#606=FACE_BOUND('',#504,.T.);
#607=FACE_BOUND('',#505,.T.);
#608=FACE_BOUND('',#506,.T.);
#609=FACE_BOUND('',#507,.T.);
#610=FACE_BOUND('',#508,.T.);
#611=FACE_BOUND('',#509,.T.);
#612=FACE_BOUND('',#510,.T.);
#613=FACE_BOUND('',#511,.T.);
#614=FACE_BOUND('',#512,.T.);
#615=FACE_BOUND('',#513,.T.);
#616=FACE_BOUND('',#514,.T.);
#617=FACE_BOUND('',#515,.T.);
#618=FACE_BOUND('',#516,.T.);
#619=FACE_BOUND('',#517,.T.);
#620=FACE_BOUND('',#518,.T.);
#621=FACE_BOUND('',#519,.T.);
#622=FACE_BOUND('',#520,.T.);
#623=FACE_BOUND('',#521,.T.);
#624=CYLINDRICAL_SURFACE('',#709,13.);
#625=CYLINDRICAL_SURFACE('',#731,2.65);
#626=CYLINDRICAL_SURFACE('',#732,2.65);
#627=CYLINDRICAL_SURFACE('',#733,2.65);
#628=CYLINDRICAL_SURFACE('',#734,2.65);
#629=CYLINDRICAL_SURFACE('',#735,13.);
#630=CYLINDRICAL_SURFACE('',#737,11.);
#631=CYLINDRICAL_SURFACE('',#747,5.);
#632=CYLINDRICAL_SURFACE('',#753,7.4);
#633=CYLINDRICAL_SURFACE('',#757,10.4);
#634=CYLINDRICAL_SURFACE('',#762,10.4);
#635=CYLINDRICAL_SURFACE('',#766,7.4);
#636=CYLINDRICAL_SURFACE('',#767,10.4);
#637=CYLINDRICAL_SURFACE('',#772,7.40000000000002);
#638=CYLINDRICAL_SURFACE('',#778,5.);
#639=CYLINDRICAL_SURFACE('',#784,7.40000000000002);
#640=CYLINDRICAL_SURFACE('',#788,10.4);
#641=CYLINDRICAL_SURFACE('',#797,13.);
#642=CYLINDRICAL_SURFACE('',#803,13.);
#643=ADVANCED_FACE('',(#522,#523),#624,.F.);
#644=ADVANCED_FACE('',(#524,#525,#526),#78,.F.);
#645=ADVANCED_FACE('',(#527),#79,.F.);
#646=ADVANCED_FACE('',(#528,#529,#530,#531,#532),#80,.F.);
#647=ADVANCED_FACE('',(#533),#81,.F.);
#648=ADVANCED_FACE('',(#534,#535,#536),#82,.F.);
#649=ADVANCED_FACE('',(#537),#83,.F.);
#650=ADVANCED_FACE('',(#538),#84,.F.);
#651=ADVANCED_FACE('',(#539),#85,.F.);
#652=ADVANCED_FACE('',(#540,#541),#86,.T.);
#653=ADVANCED_FACE('',(#542,#543),#87,.F.);
#654=ADVANCED_FACE('',(#544,#545),#625,.F.);
#655=ADVANCED_FACE('',(#546,#547),#626,.F.);
#656=ADVANCED_FACE('',(#548,#549),#627,.F.);
#657=ADVANCED_FACE('',(#550,#551),#628,.F.);
#658=ADVANCED_FACE('',(#552,#553),#629,.F.);
#659=ADVANCED_FACE('',(#554,#555),#630,.F.);
#660=ADVANCED_FACE('',(#556,#557),#88,.T.);
#661=ADVANCED_FACE('',(#558,#559),#89,.T.);
#662=ADVANCED_FACE('',(#560,#561),#22,.T.);
#663=ADVANCED_FACE('',(#562,#563),#631,.F.);
#664=ADVANCED_FACE('',(#564,#565),#23,.T.);
#665=ADVANCED_FACE('',(#566,#567),#90,.T.);
#666=ADVANCED_FACE('',(#568,#569),#632,.T.);
#667=ADVANCED_FACE('',(#570,#571),#91,.T.);
#668=ADVANCED_FACE('',(#572,#573),#633,.F.);
#669=ADVANCED_FACE('',(#574,#575),#92,.T.);
#670=ADVANCED_FACE('',(#576,#577),#24,.T.);
#671=ADVANCED_FACE('',(#578,#579),#634,.F.);
#672=ADVANCED_FACE('',(#580,#581),#93,.T.);
#673=ADVANCED_FACE('',(#582,#583),#635,.T.);
#674=ADVANCED_FACE('',(#584,#585),#636,.F.);
#675=ADVANCED_FACE('',(#586,#587),#94,.T.);
#676=ADVANCED_FACE('',(#588,#589),#637,.T.);
#677=ADVANCED_FACE('',(#590,#591),#95,.T.);
#678=ADVANCED_FACE('',(#592,#593),#25,.T.);
#679=ADVANCED_FACE('',(#594,#595),#638,.F.);
#680=ADVANCED_FACE('',(#596,#597),#26,.T.);
#681=ADVANCED_FACE('',(#598,#599),#96,.T.);
#682=ADVANCED_FACE('',(#600,#601),#639,.T.);
#683=ADVANCED_FACE('',(#602,#603),#97,.T.);
#684=ADVANCED_FACE('',(#604,#605),#640,.F.);
#685=ADVANCED_FACE('',(#606,#607),#98,.T.);
#686=ADVANCED_FACE('',(#608,#609),#27,.T.);
#687=ADVANCED_FACE('',(#610,#611),#99,.T.);
#688=ADVANCED_FACE('',(#612,#613),#100,.T.);
#689=ADVANCED_FACE('',(#614,#615),#641,.F.);
#690=ADVANCED_FACE('',(#616,#617),#28,.T.);
#691=ADVANCED_FACE('',(#618,#619),#29,.T.);
#692=ADVANCED_FACE('',(#620,#621),#642,.F.);
#693=ADVANCED_FACE('',(#622,#623),#101,.T.);
#694=CLOSED_SHELL('',(#643,#644,#645,#646,#647,#648,#649,#650,#651,#652,
#653,#654,#655,#656,#657,#658,#659,#660,#661,#662,#663,#664,#665,#666,#667,
#668,#669,#670,#671,#672,#673,#674,#675,#676,#677,#678,#679,#680,#681,#682,
#683,#684,#685,#686,#687));
#695=CLOSED_SHELL('',(#688,#689,#690));
#696=CLOSED_SHELL('',(#691,#692,#693));
#697=STYLED_ITEM('',(#698),#705);
#698=PRESENTATION_STYLE_ASSIGNMENT((#699));
#699=SURFACE_STYLE_USAGE(.BOTH.,#700);
#700=SURFACE_SIDE_STYLE('',(#701));
#701=SURFACE_STYLE_FILL_AREA(#702);
#702=FILL_AREA_STYLE('',(#703));
#703=FILL_AREA_STYLE_COLOUR('',#704);
#704=COLOUR_RGB('',0.689999997615814,0.689999997615814,0.689999997615814);
#705=BREP_WITH_VOIDS('BHJ61-6000DD-T25-h30',#694,(#20,#21));
#706=SHAPE_DEFINITION_REPRESENTATION(#1216,#707);
#707=SHAPE_REPRESENTATION('BHJ61-6000DD-T25-h30',(#708),#1211);
#708=AXIS2_PLACEMENT_3D('',#1026,#806,#807);
#709=AXIS2_PLACEMENT_3D('',#1027,#808,#809);
#710=AXIS2_PLACEMENT_3D('',#1028,#810,#811);
#711=AXIS2_PLACEMENT_3D('',#1030,#812,#813);
#712=AXIS2_PLACEMENT_3D('',#1032,#814,#815);
#713=AXIS2_PLACEMENT_3D('',#1033,#816,#817);
#714=AXIS2_PLACEMENT_3D('',#1035,#818,#819);
#715=AXIS2_PLACEMENT_3D('',#1045,#824,#825);
#716=AXIS2_PLACEMENT_3D('',#1051,#829,#830);
#717=AXIS2_PLACEMENT_3D('',#1052,#831,#832);
#718=AXIS2_PLACEMENT_3D('',#1054,#833,#834);
#719=AXIS2_PLACEMENT_3D('',#1056,#835,#836);
#720=AXIS2_PLACEMENT_3D('',#1058,#837,#838);
#721=AXIS2_PLACEMENT_3D('',#1065,#842,#843);
#722=AXIS2_PLACEMENT_3D('',#1071,#847,#848);
#723=AXIS2_PLACEMENT_3D('',#1072,#849,#850);
#724=AXIS2_PLACEMENT_3D('',#1074,#851,#852);
#725=AXIS2_PLACEMENT_3D('',#1081,#856,#857);
#726=AXIS2_PLACEMENT_3D('',#1087,#861,#862);
#727=AXIS2_PLACEMENT_3D('',#1093,#866,#867);
#728=AXIS2_PLACEMENT_3D('',#1096,#870,#871);
#729=AXIS2_PLACEMENT_3D('',#1097,#872,#873);
#730=AXIS2_PLACEMENT_3D('',#1099,#874,#875);
#731=AXIS2_PLACEMENT_3D('',#1100,#876,#877);
#732=AXIS2_PLACEMENT_3D('',#1101,#878,#879);
#733=AXIS2_PLACEMENT_3D('',#1102,#880,#881);
#734=AXIS2_PLACEMENT_3D('',#1103,#882,#883);
#735=AXIS2_PLACEMENT_3D('',#1104,#884,#885);
#736=AXIS2_PLACEMENT_3D('',#1105,#886,#887);
#737=AXIS2_PLACEMENT_3D('',#1107,#888,#889);
#738=AXIS2_PLACEMENT_3D('',#1108,#890,#891);
#739=AXIS2_PLACEMENT_3D('',#1110,#892,#893);
#740=AXIS2_PLACEMENT_3D('',#1112,#894,#895);
#741=AXIS2_PLACEMENT_3D('',#1113,#896,#897);
#742=AXIS2_PLACEMENT_3D('',#1115,#898,#899);
#743=AXIS2_PLACEMENT_3D('',#1116,#900,#901);
#744=AXIS2_PLACEMENT_3D('',#1118,#902,#903);
#745=AXIS2_PLACEMENT_3D('',#1120,#904,#905);
#746=AXIS2_PLACEMENT_3D('',#1121,#906,#907);
#747=AXIS2_PLACEMENT_3D('',#1123,#908,#909);
#748=AXIS2_PLACEMENT_3D('',#1124,#910,#911);
#749=AXIS2_PLACEMENT_3D('',#1126,#912,#913);
#750=AXIS2_PLACEMENT_3D('',#1127,#914,#915);
#751=AXIS2_PLACEMENT_3D('',#1129,#916,#917);
#752=AXIS2_PLACEMENT_3D('',#1130,#918,#919);
#753=AXIS2_PLACEMENT_3D('',#1132,#920,#921);
#754=AXIS2_PLACEMENT_3D('',#1133,#922,#923);
#755=AXIS2_PLACEMENT_3D('',#1135,#924,#925);
#756=AXIS2_PLACEMENT_3D('',#1136,#926,#927);
#757=AXIS2_PLACEMENT_3D('',#1138,#928,#929);
#758=AXIS2_PLACEMENT_3D('',#1139,#930,#931);
#759=AXIS2_PLACEMENT_3D('',#1141,#932,#933);
#760=AXIS2_PLACEMENT_3D('',#1142,#934,#935);
#761=AXIS2_PLACEMENT_3D('',#1144,#936,#937);
#762=AXIS2_PLACEMENT_3D('',#1145,#938,#939);
#763=AXIS2_PLACEMENT_3D('',#1146,#940,#941);
#764=AXIS2_PLACEMENT_3D('',#1148,#942,#943);
#765=AXIS2_PLACEMENT_3D('',#1149,#944,#945);
#766=AXIS2_PLACEMENT_3D('',#1151,#946,#947);
#767=AXIS2_PLACEMENT_3D('',#1152,#948,#949);
#768=AXIS2_PLACEMENT_3D('',#1153,#950,#951);
#769=AXIS2_PLACEMENT_3D('',#1155,#952,#953);
#770=AXIS2_PLACEMENT_3D('',#1157,#954,#955);
#771=AXIS2_PLACEMENT_3D('',#1158,#956,#957);
#772=AXIS2_PLACEMENT_3D('',#1160,#958,#959);
#773=AXIS2_PLACEMENT_3D('',#1161,#960,#961);
#774=AXIS2_PLACEMENT_3D('',#1163,#962,#963);
#775=AXIS2_PLACEMENT_3D('',#1164,#964,#965);
#776=AXIS2_PLACEMENT_3D('',#1166,#966,#967);
#777=AXIS2_PLACEMENT_3D('',#1167,#968,#969);
#778=AXIS2_PLACEMENT_3D('',#1169,#970,#971);
#779=AXIS2_PLACEMENT_3D('',#1170,#972,#973);
#780=AXIS2_PLACEMENT_3D('',#1172,#974,#975);
#781=AXIS2_PLACEMENT_3D('',#1173,#976,#977);
#782=AXIS2_PLACEMENT_3D('',#1175,#978,#979);
#783=AXIS2_PLACEMENT_3D('',#1176,#980,#981);
#784=AXIS2_PLACEMENT_3D('',#1178,#982,#983);
#785=AXIS2_PLACEMENT_3D('',#1179,#984,#985);
#786=AXIS2_PLACEMENT_3D('',#1181,#986,#987);
#787=AXIS2_PLACEMENT_3D('',#1182,#988,#989);
#788=AXIS2_PLACEMENT_3D('',#1184,#990,#991);
#789=AXIS2_PLACEMENT_3D('',#1185,#992,#993);
#790=AXIS2_PLACEMENT_3D('',#1187,#994,#995);
#791=AXIS2_PLACEMENT_3D('',#1188,#996,#997);
#792=AXIS2_PLACEMENT_3D('',#1190,#998,#999);
#793=AXIS2_PLACEMENT_3D('',#1191,#1000,#1001);
#794=AXIS2_PLACEMENT_3D('',#1192,#1002,#1003);
#795=AXIS2_PLACEMENT_3D('',#1193,#1004,#1005);
#796=AXIS2_PLACEMENT_3D('',#1195,#1006,#1007);
#797=AXIS2_PLACEMENT_3D('',#1197,#1008,#1009);
#798=AXIS2_PLACEMENT_3D('',#1198,#1010,#1011);
#799=AXIS2_PLACEMENT_3D('',#1200,#1012,#1013);
#800=AXIS2_PLACEMENT_3D('',#1201,#1014,#1015);
#801=AXIS2_PLACEMENT_3D('',#1202,#1016,#1017);
#802=AXIS2_PLACEMENT_3D('',#1204,#1018,#1019);
#803=AXIS2_PLACEMENT_3D('',#1206,#1020,#1021);
#804=AXIS2_PLACEMENT_3D('',#1207,#1022,#1023);
#805=AXIS2_PLACEMENT_3D('',#1209,#1024,#1025);
#806=DIRECTION('',(0.,0.,1.));
#807=DIRECTION('',(1.,0.,0.));
#808=DIRECTION('',(0.,0.,-1.));
#809=DIRECTION('',(-1.,0.,0.));
#810=DIRECTION('',(0.,0.,-1.));
#811=DIRECTION('',(-1.,0.,0.));
#812=DIRECTION('',(0.,0.,-1.));
#813=DIRECTION('',(-1.,0.,0.));
#814=DIRECTION('',(-2.89120579329468E-16,-1.,0.));
#815=DIRECTION('',(1.,-2.89120579329468E-16,0.));
#816=DIRECTION('',(0.,1.,0.));
#817=DIRECTION('',(1.,0.,0.));
#818=DIRECTION('',(0.,1.,0.));
#819=DIRECTION('',(1.,0.,0.));
#820=DIRECTION('',(-1.,2.89120579329468E-16,0.));
#821=DIRECTION('',(0.,0.,-1.));
#822=DIRECTION('',(-1.,2.89120579329468E-16,0.));
#823=DIRECTION('',(0.,0.,-1.));
#824=DIRECTION('',(1.,0.,0.));
#825=DIRECTION('',(0.,0.,-1.));
#826=DIRECTION('',(0.,-1.,0.));
#827=DIRECTION('',(0.,0.,-1.));
#828=DIRECTION('',(0.,-1.,0.));
#829=DIRECTION('',(0.,1.,0.));
#830=DIRECTION('',(0.,0.,1.));
#831=DIRECTION('',(0.,1.,0.));
#832=DIRECTION('',(1.,0.,0.));
#833=DIRECTION('',(0.,1.,0.));
#834=DIRECTION('',(1.,0.,0.));
#835=DIRECTION('',(0.,1.,0.));
#836=DIRECTION('',(1.,0.,0.));
#837=DIRECTION('',(0.,1.,0.));
#838=DIRECTION('',(1.,0.,0.));
#839=DIRECTION('',(1.,0.,0.));
#840=DIRECTION('',(0.,0.,-1.));
#841=DIRECTION('',(1.,0.,0.));
#842=DIRECTION('',(-1.,0.,0.));
#843=DIRECTION('',(0.,0.,1.));
#844=DIRECTION('',(0.,1.,0.));
#845=DIRECTION('',(0.,0.,-1.));
#846=DIRECTION('',(0.,1.,0.));
#847=DIRECTION('',(0.,-1.,0.));
#848=DIRECTION('',(0.,0.,-1.));
#849=DIRECTION('',(0.,1.,0.));
#850=DIRECTION('',(1.,0.,0.));
#851=DIRECTION('',(0.,1.,0.));
#852=DIRECTION('',(1.,0.,0.));
#853=DIRECTION('',(-1.,0.,0.));
#854=DIRECTION('',(0.,0.,-1.));
#855=DIRECTION('',(-1.,0.,0.));
#856=DIRECTION('',(-1.,0.,0.));
#857=DIRECTION('',(0.,0.,1.));
#858=DIRECTION('',(0.,1.,0.));
#859=DIRECTION('',(0.,0.,-1.));
#860=DIRECTION('',(0.,1.,0.));
#861=DIRECTION('',(0.,-1.,0.));
#862=DIRECTION('',(0.,0.,-1.));
#863=DIRECTION('',(-1.,0.,0.));
#864=DIRECTION('',(0.,0.,-1.));
#865=DIRECTION('',(-1.,0.,0.));
#866=DIRECTION('',(1.,0.,0.));
#867=DIRECTION('',(0.,0.,-1.));
#868=DIRECTION('',(0.,-1.,0.));
#869=DIRECTION('',(0.,-1.,0.));
#870=DIRECTION('',(0.,0.,1.));
#871=DIRECTION('',(1.,0.,0.));
#872=DIRECTION('',(0.,0.,-1.));
#873=DIRECTION('',(-1.,0.,0.));
#874=DIRECTION('',(0.,0.,1.));
#875=DIRECTION('',(1.,0.,0.));
#876=DIRECTION('',(0.,-1.,0.));
#877=DIRECTION('',(0.,0.,-1.));
#878=DIRECTION('',(0.,-1.,0.));
#879=DIRECTION('',(0.,0.,-1.));
#880=DIRECTION('',(0.,-1.,0.));
#881=DIRECTION('',(0.,0.,-1.));
#882=DIRECTION('',(0.,-1.,0.));
#883=DIRECTION('',(0.,0.,-1.));
#884=DIRECTION('',(0.,0.,-1.));
#885=DIRECTION('',(-1.,0.,0.));
#886=DIRECTION('',(0.,0.,-1.));
#887=DIRECTION('',(-1.,0.,0.));
#888=DIRECTION('',(0.,0.,-1.));
#889=DIRECTION('',(-1.,0.,0.));
#890=DIRECTION('',(0.,0.,-1.));
#891=DIRECTION('',(-1.,0.,0.));
#892=DIRECTION('',(0.,0.,-1.));
#893=DIRECTION('',(-1.,0.,0.));
#894=DIRECTION('',(0.,0.,1.));
#895=DIRECTION('',(1.,0.,0.));
#896=DIRECTION('',(0.,0.,-1.));
#897=DIRECTION('',(-1.,0.,0.));
#898=DIRECTION('',(0.,0.,1.));
#899=DIRECTION('',(1.,0.,0.));
#900=DIRECTION('',(0.,0.,-1.));
#901=DIRECTION('',(-1.,0.,0.));
#902=DIRECTION('',(0.,0.,-1.));
#903=DIRECTION('',(-1.,0.,0.));
#904=DIRECTION('',(0.,0.,-1.));
#905=DIRECTION('',(-1.,0.,0.));
#906=DIRECTION('',(0.,0.,-1.));
#907=DIRECTION('',(-1.,0.,0.));
#908=DIRECTION('',(0.,0.,-1.));
#909=DIRECTION('',(-1.,0.,0.));
#910=DIRECTION('',(0.,0.,-1.));
#911=DIRECTION('',(-1.,0.,0.));
#912=DIRECTION('',(0.,0.,-1.));
#913=DIRECTION('',(-1.,0.,0.));
#914=DIRECTION('',(0.,0.,-1.));
#915=DIRECTION('',(-1.,0.,0.));
#916=DIRECTION('',(0.,0.,-1.));
#917=DIRECTION('',(-1.,0.,0.));
#918=DIRECTION('',(0.,0.,-1.));
#919=DIRECTION('',(-1.,0.,0.));
#920=DIRECTION('',(0.,0.,-1.));
#921=DIRECTION('',(-1.,0.,0.));
#922=DIRECTION('',(0.,0.,-1.));
#923=DIRECTION('',(-1.,0.,0.));
#924=DIRECTION('',(0.,0.,-1.));
#925=DIRECTION('',(-1.,0.,0.));
#926=DIRECTION('',(0.,0.,-1.));
#927=DIRECTION('',(-1.,0.,0.));
#928=DIRECTION('',(0.,0.,-1.));
#929=DIRECTION('',(-1.,0.,0.));
#930=DIRECTION('',(0.,0.,-1.));
#931=DIRECTION('',(-1.,0.,0.));
#932=DIRECTION('',(0.,0.,-1.));
#933=DIRECTION('',(-1.,0.,0.));
#934=DIRECTION('',(0.,0.,-1.));
#935=DIRECTION('',(-1.,0.,0.));
#936=DIRECTION('',(0.,0.,-1.));
#937=DIRECTION('',(-1.,0.,0.));
#938=DIRECTION('',(0.,0.,-1.));
#939=DIRECTION('',(-1.,0.,0.));
#940=DIRECTION('',(0.,0.,-1.));
#941=DIRECTION('',(-1.,0.,0.));
#942=DIRECTION('',(0.,0.,1.));
#943=DIRECTION('',(1.,0.,0.));
#944=DIRECTION('',(0.,0.,-1.));
#945=DIRECTION('',(-1.,0.,0.));
#946=DIRECTION('',(0.,0.,-1.));
#947=DIRECTION('',(-1.,0.,0.));
#948=DIRECTION('',(0.,0.,-1.));
#949=DIRECTION('',(-1.,0.,0.));
#950=DIRECTION('',(0.,0.,-1.));
#951=DIRECTION('',(-1.,0.,0.));
#952=DIRECTION('',(0.,0.,-1.));
#953=DIRECTION('',(-1.,0.,0.));
#954=DIRECTION('',(0.,0.,-1.));
#955=DIRECTION('',(-1.,0.,0.));
#956=DIRECTION('',(0.,0.,-1.));
#957=DIRECTION('',(-1.,0.,0.));
#958=DIRECTION('',(0.,0.,-1.));
#959=DIRECTION('',(-1.,0.,0.));
#960=DIRECTION('',(0.,0.,-1.));
#961=DIRECTION('',(-1.,0.,0.));
#962=DIRECTION('',(0.,0.,-1.));
#963=DIRECTION('',(-1.,0.,0.));
#964=DIRECTION('',(0.,0.,-1.));
#965=DIRECTION('',(-1.,0.,0.));
#966=DIRECTION('',(0.,0.,-1.));
#967=DIRECTION('',(-1.,0.,0.));
#968=DIRECTION('',(0.,0.,-1.));
#969=DIRECTION('',(-1.,0.,0.));
#970=DIRECTION('',(0.,0.,-1.));
#971=DIRECTION('',(-1.,0.,0.));
#972=DIRECTION('',(0.,0.,-1.));
#973=DIRECTION('',(-1.,0.,0.));
#974=DIRECTION('',(0.,0.,-1.));
#975=DIRECTION('',(-1.,0.,0.));
#976=DIRECTION('',(0.,0.,-1.));
#977=DIRECTION('',(-1.,0.,0.));
#978=DIRECTION('',(0.,0.,1.));
#979=DIRECTION('',(1.,0.,0.));
#980=DIRECTION('',(0.,0.,-1.));
#981=DIRECTION('',(-1.,0.,0.));
#982=DIRECTION('',(0.,0.,-1.));
#983=DIRECTION('',(-1.,0.,0.));
#984=DIRECTION('',(0.,0.,-1.));
#985=DIRECTION('',(-1.,0.,0.));
#986=DIRECTION('',(0.,0.,1.));
#987=DIRECTION('',(1.,0.,0.));
#988=DIRECTION('',(0.,0.,-1.));
#989=DIRECTION('',(-1.,0.,0.));
#990=DIRECTION('',(0.,0.,-1.));
#991=DIRECTION('',(-1.,0.,0.));
#992=DIRECTION('',(0.,0.,-1.));
#993=DIRECTION('',(-1.,0.,0.));
#994=DIRECTION('',(0.,0.,1.));
#995=DIRECTION('',(1.,0.,0.));
#996=DIRECTION('',(0.,0.,-1.));
#997=DIRECTION('',(-1.,0.,0.));
#998=DIRECTION('',(0.,0.,-1.));
#999=DIRECTION('',(-1.,0.,0.));
#1000=DIRECTION('',(0.,0.,-1.));
#1001=DIRECTION('',(-1.,0.,0.));
#1002=DIRECTION('',(0.,0.,1.));
#1003=DIRECTION('',(1.,0.,0.));
#1004=DIRECTION('',(0.,0.,-1.));
#1005=DIRECTION('',(-1.,0.,0.));
#1006=DIRECTION('',(0.,0.,-1.));
#1007=DIRECTION('',(-1.,0.,0.));
#1008=DIRECTION('',(0.,0.,-1.));
#1009=DIRECTION('',(-1.,0.,0.));
#1010=DIRECTION('',(0.,0.,-1.));
#1011=DIRECTION('',(-1.,0.,0.));
#1012=DIRECTION('',(0.,0.,-1.));
#1013=DIRECTION('',(-1.,0.,0.));
#1014=DIRECTION('',(0.,0.,-1.));
#1015=DIRECTION('',(-1.,0.,0.));
#1016=DIRECTION('',(0.,0.,-1.));
#1017=DIRECTION('',(-1.,0.,0.));
#1018=DIRECTION('',(0.,0.,-1.));
#1019=DIRECTION('',(-1.,0.,0.));
#1020=DIRECTION('',(0.,0.,-1.));
#1021=DIRECTION('',(-1.,0.,0.));
#1022=DIRECTION('',(0.,0.,-1.));
#1023=DIRECTION('',(-1.,0.,0.));
#1024=DIRECTION('',(0.,0.,-1.));
#1025=DIRECTION('',(-1.,0.,0.));
#1026=CARTESIAN_POINT('',(0.,0.,0.));
#1027=CARTESIAN_POINT('',(0.,30.,-12.5));
#1028=CARTESIAN_POINT('',(0.,30.,-12.5));
#1029=CARTESIAN_POINT('',(-13.,30.,-12.5));
#1030=CARTESIAN_POINT('',(0.,30.,-12.2));
#1031=CARTESIAN_POINT('',(-13.,30.,-12.2));
#1032=CARTESIAN_POINT('',(-17.,9.8,12.5));
#1033=CARTESIAN_POINT('',(-23.,9.8,6.49999999999998));
#1034=CARTESIAN_POINT('',(-20.35,9.8,6.49999999999998));
#1035=CARTESIAN_POINT('',(-23.,9.8,-6.49999999999998));
#1036=CARTESIAN_POINT('',(-20.35,9.8,-6.49999999999998));
#1037=CARTESIAN_POINT('',(-17.,9.8,-12.5));
#1038=CARTESIAN_POINT('',(-17.,9.8,-12.5));
#1039=CARTESIAN_POINT('',(-29.,9.8,-12.5));
#1040=CARTESIAN_POINT('',(-29.,9.8,12.5));
#1041=CARTESIAN_POINT('',(-29.,9.8,12.5));
#1042=CARTESIAN_POINT('',(-17.,9.8,12.5));
#1043=CARTESIAN_POINT('',(-17.,9.8,12.5));
#1044=CARTESIAN_POINT('',(-17.,9.8,12.5));
#1045=CARTESIAN_POINT('',(-29.,9.8,12.5));
#1046=CARTESIAN_POINT('',(-29.,9.8,-12.5));
#1047=CARTESIAN_POINT('',(-29.,0.,-12.5));
#1048=CARTESIAN_POINT('',(-29.,0.,12.5));
#1049=CARTESIAN_POINT('',(-29.,0.,12.5));
#1050=CARTESIAN_POINT('',(-29.,9.8,12.5));
#1051=CARTESIAN_POINT('',(-29.,0.,12.5));
#1052=CARTESIAN_POINT('',(-23.,0.,6.49999999999998));
#1053=CARTESIAN_POINT('',(-20.35,0.,6.49999999999998));
#1054=CARTESIAN_POINT('',(-23.,0.,-6.49999999999998));
#1055=CARTESIAN_POINT('',(-20.35,0.,-6.49999999999998));
#1056=CARTESIAN_POINT('',(23.,0.,6.49999999999999));
#1057=CARTESIAN_POINT('',(25.65,0.,6.49999999999999));
#1058=CARTESIAN_POINT('',(23.,0.,-6.49999999999999));
#1059=CARTESIAN_POINT('',(25.65,0.,-6.49999999999999));
#1060=CARTESIAN_POINT('',(-29.,0.,-12.5));
#1061=CARTESIAN_POINT('',(29.,0.,-12.5));
#1062=CARTESIAN_POINT('',(29.,0.,12.5));
#1063=CARTESIAN_POINT('',(29.,0.,12.5));
#1064=CARTESIAN_POINT('',(-29.,0.,12.5));
#1065=CARTESIAN_POINT('',(29.,0.,12.5));
#1066=CARTESIAN_POINT('',(29.,0.,-12.5));
#1067=CARTESIAN_POINT('',(29.,9.8,-12.5));
#1068=CARTESIAN_POINT('',(29.,9.8,12.5));
#1069=CARTESIAN_POINT('',(29.,9.8,12.5));
#1070=CARTESIAN_POINT('',(29.,0.,12.5));
#1071=CARTESIAN_POINT('',(29.,9.8,12.5));
#1072=CARTESIAN_POINT('',(23.,9.8,6.49999999999999));
#1073=CARTESIAN_POINT('',(25.65,9.8,6.49999999999999));
#1074=CARTESIAN_POINT('',(23.,9.8,-6.49999999999999));
#1075=CARTESIAN_POINT('',(25.65,9.8,-6.49999999999999));
#1076=CARTESIAN_POINT('',(29.,9.8,-12.5));
#1077=CARTESIAN_POINT('',(17.,9.8,-12.5));
#1078=CARTESIAN_POINT('',(17.,9.8,12.5));
#1079=CARTESIAN_POINT('',(17.,9.8,12.5));
#1080=CARTESIAN_POINT('',(29.,9.8,12.5));
#1081=CARTESIAN_POINT('',(17.,9.8,12.5));
#1082=CARTESIAN_POINT('',(17.,9.8,-12.5));
#1083=CARTESIAN_POINT('',(17.,47.,-12.5));
#1084=CARTESIAN_POINT('',(17.,47.,12.5));
#1085=CARTESIAN_POINT('',(17.,47.,12.5));
#1086=CARTESIAN_POINT('',(17.,9.8,12.5));
#1087=CARTESIAN_POINT('',(17.,47.,12.5));
#1088=CARTESIAN_POINT('',(17.,47.,-12.5));
#1089=CARTESIAN_POINT('',(-17.,47.,-12.5));
#1090=CARTESIAN_POINT('',(-17.,47.,12.5));
#1091=CARTESIAN_POINT('',(-17.,47.,12.5));
#1092=CARTESIAN_POINT('',(17.,47.,12.5));
#1093=CARTESIAN_POINT('',(-17.,47.,12.5));
#1094=CARTESIAN_POINT('',(-17.,47.,-12.5));
#1095=CARTESIAN_POINT('',(-17.,47.,12.5));
#1096=CARTESIAN_POINT('',(0.,0.,12.5));
#1097=CARTESIAN_POINT('',(0.,30.,12.5));
#1098=CARTESIAN_POINT('',(-13.,30.,12.5));
#1099=CARTESIAN_POINT('',(0.,0.,-12.5));
#1100=CARTESIAN_POINT('',(23.,9.8,-6.49999999999999));
#1101=CARTESIAN_POINT('',(23.,9.8,6.49999999999999));
#1102=CARTESIAN_POINT('',(-23.,9.8,-6.49999999999998));
#1103=CARTESIAN_POINT('',(-23.,9.8,6.49999999999998));
#1104=CARTESIAN_POINT('',(0.,30.,-12.5));
#1105=CARTESIAN_POINT('',(0.,30.,12.2));
#1106=CARTESIAN_POINT('',(-13.,30.,12.2));
#1107=CARTESIAN_POINT('',(0.,30.,-12.5));
#1108=CARTESIAN_POINT('',(0.,30.,-4.5));
#1109=CARTESIAN_POINT('',(-11.,30.,-4.5));
#1110=CARTESIAN_POINT('',(0.,30.,4.5));
#1111=CARTESIAN_POINT('',(-11.,30.,4.5));
#1112=CARTESIAN_POINT('',(0.,42.7,-4.5));
#1113=CARTESIAN_POINT('',(0.,30.,-4.5));
#1114=CARTESIAN_POINT('',(-10.4,30.,-4.5));
#1115=CARTESIAN_POINT('',(0.,37.4,-4.5));
#1116=CARTESIAN_POINT('',(0.,30.,-4.5));
#1117=CARTESIAN_POINT('',(-5.3,30.,-4.5));
#1118=CARTESIAN_POINT('',(0.,30.,-4.5));
#1119=CARTESIAN_POINT('',(-7.4,30.,-4.5));
#1120=CARTESIAN_POINT('',(0.,30.,-4.79999999999999));
#1121=CARTESIAN_POINT('',(0.,30.,-4.8));
#1122=CARTESIAN_POINT('',(-5.,30.,-4.8));
#1123=CARTESIAN_POINT('',(0.,30.,-50.));
#1124=CARTESIAN_POINT('',(0.,30.,-12.2));
#1125=CARTESIAN_POINT('',(-5.,30.,-12.2));
#1126=CARTESIAN_POINT('',(0.,30.,-12.2));
#1127=CARTESIAN_POINT('',(0.,30.,-12.5));
#1128=CARTESIAN_POINT('',(-5.3,30.,-12.5));
#1129=CARTESIAN_POINT('',(0.,35.3,-12.5));
#1130=CARTESIAN_POINT('',(0.,30.,-12.5));
#1131=CARTESIAN_POINT('',(-7.4,30.,-12.5));
#1132=CARTESIAN_POINT('',(0.,30.,-50.));
#1133=CARTESIAN_POINT('',(0.,30.,-10.882));
#1134=CARTESIAN_POINT('',(-7.4,30.,-10.882));
#1135=CARTESIAN_POINT('',(0.,37.4,-10.882));
#1136=CARTESIAN_POINT('',(0.,30.,-10.882));
#1137=CARTESIAN_POINT('',(-10.4,30.,-10.882));
#1138=CARTESIAN_POINT('',(0.,30.,-50.));
#1139=CARTESIAN_POINT('',(0.,30.,-12.5));
#1140=CARTESIAN_POINT('',(-10.4,30.,-12.5));
#1141=CARTESIAN_POINT('',(0.,40.4,-12.5));
#1142=CARTESIAN_POINT('',(0.,30.,-12.5));
#1143=CARTESIAN_POINT('',(-12.7,30.,-12.5));
#1144=CARTESIAN_POINT('',(0.,30.,-12.2));
#1145=CARTESIAN_POINT('',(0.,30.,-50.));
#1146=CARTESIAN_POINT('',(0.,30.,-6.119));
#1147=CARTESIAN_POINT('',(-10.4,30.,-6.119));
#1148=CARTESIAN_POINT('',(0.,40.4,-6.119));
#1149=CARTESIAN_POINT('',(0.,30.,-6.119));
#1150=CARTESIAN_POINT('',(-7.4,30.,-6.119));
#1151=CARTESIAN_POINT('',(0.,30.,-50.));
#1152=CARTESIAN_POINT('',(0.,30.,-50.));
#1153=CARTESIAN_POINT('',(0.,30.,4.5));
#1154=CARTESIAN_POINT('',(-10.4,30.,4.5));
#1155=CARTESIAN_POINT('',(0.,30.,6.119));
#1156=CARTESIAN_POINT('',(-10.4,30.,6.119));
#1157=CARTESIAN_POINT('',(0.,37.4,6.119));
#1158=CARTESIAN_POINT('',(0.,30.,6.119));
#1159=CARTESIAN_POINT('',(-7.40000000000002,30.,6.119));
#1160=CARTESIAN_POINT('',(0.,30.,-50.));
#1161=CARTESIAN_POINT('',(0.,30.,4.5));
#1162=CARTESIAN_POINT('',(-7.40000000000002,30.,4.5));
#1163=CARTESIAN_POINT('',(0.,35.3,4.5));
#1164=CARTESIAN_POINT('',(0.,30.,4.5));
#1165=CARTESIAN_POINT('',(-5.3,30.,4.5));
#1166=CARTESIAN_POINT('',(0.,30.,4.79999999999999));
#1167=CARTESIAN_POINT('',(0.,30.,4.8));
#1168=CARTESIAN_POINT('',(-5.,30.,4.8));
#1169=CARTESIAN_POINT('',(0.,30.,-50.));
#1170=CARTESIAN_POINT('',(0.,30.,12.2));
#1171=CARTESIAN_POINT('',(-5.,30.,12.2));
#1172=CARTESIAN_POINT('',(0.,30.,12.2));
#1173=CARTESIAN_POINT('',(0.,30.,12.5));
#1174=CARTESIAN_POINT('',(-5.3,30.,12.5));
#1175=CARTESIAN_POINT('',(0.,37.4,12.5));
#1176=CARTESIAN_POINT('',(0.,30.,12.5));
#1177=CARTESIAN_POINT('',(-7.40000000000002,30.,12.5));
#1178=CARTESIAN_POINT('',(0.,30.,-50.));
#1179=CARTESIAN_POINT('',(0.,30.,10.882));
#1180=CARTESIAN_POINT('',(-7.40000000000002,30.,10.882));
#1181=CARTESIAN_POINT('',(0.,40.4,10.882));
#1182=CARTESIAN_POINT('',(0.,30.,10.882));
#1183=CARTESIAN_POINT('',(-10.4,30.,10.882));
#1184=CARTESIAN_POINT('',(0.,30.,-50.));
#1185=CARTESIAN_POINT('',(0.,30.,12.5));
#1186=CARTESIAN_POINT('',(-10.4,30.,12.5));
#1187=CARTESIAN_POINT('',(0.,42.7,12.5));
#1188=CARTESIAN_POINT('',(0.,30.,12.5));
#1189=CARTESIAN_POINT('',(-12.7,30.,12.5));
#1190=CARTESIAN_POINT('',(0.,30.,12.2));
#1191=CARTESIAN_POINT('',(0.,40.4,4.5));
#1192=CARTESIAN_POINT('',(0.,43.,4.5));
#1193=CARTESIAN_POINT('',(0.,30.,4.5));
#1194=CARTESIAN_POINT('',(-12.7,30.,4.5));
#1195=CARTESIAN_POINT('',(0.,30.,4.5));
#1196=CARTESIAN_POINT('',(-13.,30.,4.5));
#1197=CARTESIAN_POINT('',(0.,30.,-12.5));
#1198=CARTESIAN_POINT('',(0.,30.,4.8));
#1199=CARTESIAN_POINT('',(-13.,30.,4.8));
#1200=CARTESIAN_POINT('',(0.,30.,4.8));
#1201=CARTESIAN_POINT('',(0.,30.,-4.8));
#1202=CARTESIAN_POINT('',(0.,30.,-4.5));
#1203=CARTESIAN_POINT('',(-12.7,30.,-4.5));
#1204=CARTESIAN_POINT('',(0.,30.,-4.8));
#1205=CARTESIAN_POINT('',(-13.,30.,-4.8));
#1206=CARTESIAN_POINT('',(0.,30.,-12.5));
#1207=CARTESIAN_POINT('',(0.,30.,-4.5));
#1208=CARTESIAN_POINT('',(-13.,30.,-4.5));
#1209=CARTESIAN_POINT('',(0.,41.,-4.5));
#1210=MECHANICAL_DESIGN_GEOMETRIC_PRESENTATION_REPRESENTATION('',(#697),
#1211);
#1211=(
GEOMETRIC_REPRESENTATION_CONTEXT(3)
GLOBAL_UNCERTAINTY_ASSIGNED_CONTEXT((#1212))
GLOBAL_UNIT_ASSIGNED_CONTEXT((#1215,#1214,#1213))
REPRESENTATION_CONTEXT('BHJ61-6000DD-T25-h30','TOP_LEVEL_ASSEMBLY_PART')
);
#1212=UNCERTAINTY_MEASURE_WITH_UNIT(LENGTH_MEASURE(0.005),#1215,
'DISTANCE_ACCURACY_VALUE','Maximum Tolerance applied to model');
#1213=(
NAMED_UNIT(*)
SI_UNIT($,.STERADIAN.)
SOLID_ANGLE_UNIT()
);
#1214=(
NAMED_UNIT(*)
PLANE_ANGLE_UNIT()
SI_UNIT($,.RADIAN.)
);
#1215=(
LENGTH_UNIT()
NAMED_UNIT(*)
SI_UNIT(.MILLI.,.METRE.)
);
#1216=PRODUCT_DEFINITION_SHAPE('','',#1217);
#1217=PRODUCT_DEFINITION('','',#1219,#1218);
#1218=DESIGN_CONTEXT('',#1225,'design');
#1219=PRODUCT_DEFINITION_FORMATION_WITH_SPECIFIED_SOURCE('','',#1221,
 .NOT_KNOWN.);
#1220=PRODUCT_RELATED_PRODUCT_CATEGORY('','',(#1221));
#1221=PRODUCT('BHJ61-6000DD-T25-h30','BHJ61-6000DD-T25-h30',
'BHJ61-6000DD-T25-h30',(#1223));
#1222=PRODUCT_CATEGORY('','');
#1223=MECHANICAL_CONTEXT('',#1225,'mechanical');
#1224=APPLICATION_PROTOCOL_DEFINITION('international standard',
'config_control_design',2010,#1225);
#1225=APPLICATION_CONTEXT(
'configuration controlled 3D designs of mechanical parts and assemblie
s');
ENDSEC;
END-ISO-10303-21;
